<svg xmlns="http://www.w3.org/2000/svg" width="234.14" height="98.4" viewBox="0 0 234.14 98.4">
  <path id="パス_89448" data-name="パス 89448" d="M-121.56.5a3.341,3.341,0,0,0-.62-.31,4.67,4.67,0,0,0-.64-.21,17.24,17.24,0,0,0,1.05-2.02q.55-1.22,1.11-2.7t1.09-3.08q.53-1.6.95-3.12-1.24.14-2.38.18t-1.9,0l-.04-1.3a15.771,15.771,0,0,0,2.12.07q1.24-.03,2.52-.17.28-1.12.47-2.11t.27-1.75l1.36.18q-.1.7-.3,1.6t-.46,1.9q1-.16,1.89-.37a11.666,11.666,0,0,0,1.51-.45l.28,1.22a11.823,11.823,0,0,1-1.71.46q-1.07.22-2.31.38-.44,1.58-.97,3.24t-1.1,3.24q-.57,1.58-1.13,2.9A23.712,23.712,0,0,1-121.56.5Zm13.68-.94a16.644,16.644,0,0,1-3.93.16,9.1,9.1,0,0,1-3.05-.75,4.306,4.306,0,0,1-1.88-1.57l.84-.84a4.652,4.652,0,0,0,3.05,1.73,13.737,13.737,0,0,0,5.17-.09,3.2,3.2,0,0,0-.16.68A3.253,3.253,0,0,0-107.88-.44Zm-.54-7.22a10.846,10.846,0,0,0-2.1-.48,23.412,23.412,0,0,0-2.34-.2,16.53,16.53,0,0,0-2.04.04l.16-1.3q.66-.04,1.55-.01t1.85.12q.96.09,1.85.22a11.439,11.439,0,0,1,1.51.31ZM-86.6-.38q-1.7.3-3.34.43a19.506,19.506,0,0,1-3.05.02,8.855,8.855,0,0,1-2.48-.52,3.8,3.8,0,0,1-1.68-1.19,3.117,3.117,0,0,1-.61-1.98,3.089,3.089,0,0,1,.59-1.83,6.185,6.185,0,0,1,1.64-1.53,14.818,14.818,0,0,1,2.41-1.28,8.772,8.772,0,0,1-.82-2.95,36.575,36.575,0,0,1-.2-4.57h1.44a18.523,18.523,0,0,0-.1,2.6,17.345,17.345,0,0,0,.25,2.52,8.122,8.122,0,0,0,.57,1.96q1-.36,2.07-.68t2.17-.58l.36,1.34a22.8,22.8,0,0,0-3.5.8,17,17,0,0,0-2.89,1.19A7.715,7.715,0,0,0-95.74-5.2a2.255,2.255,0,0,0-.72,1.54,1.917,1.917,0,0,0,.82,1.65,4.924,4.924,0,0,0,2.24.78,14.745,14.745,0,0,0,3.23.03,30.113,30.113,0,0,0,3.81-.6,4.128,4.128,0,0,0-.17.71A4.583,4.583,0,0,0-86.6-.38Zm11.94.84-1.06-.8q.48-.48,1.26-1.37t1.72-2q.94-1.11,1.89-2.26t1.76-2.18q.81-1.03,1.33-1.71-.74.14-1.66.28t-1.84.26q-.92.12-1.69.21t-1.21.13l-.22-1.24q.44,0,1.18-.06t1.64-.16q.9-.1,1.84-.24t1.78-.29q.84-.15,1.44-.31l.92.84a10.36,10.36,0,0,0-.74.81q-.52.61-1.18,1.43t-1.34,1.68a1.149,1.149,0,0,1,.61-.05,1.991,1.991,0,0,1,.63.17,1.742,1.742,0,0,1,.8.85,4.586,4.586,0,0,1,.2,1.93,6.522,6.522,0,0,0,.14,1.9,1.052,1.052,0,0,0,.63.76,3.56,3.56,0,0,0,1.17.16q.46,0,1.1-.05t1.29-.14q.65-.09,1.09-.19a3.211,3.211,0,0,0-.08.65,5.5,5.5,0,0,0,0,.67q-.92.14-1.9.23t-1.66.09a4.532,4.532,0,0,1-1.79-.3,1.763,1.763,0,0,1-.97-1.1,6.2,6.2,0,0,1-.2-2.28,6.221,6.221,0,0,0-.09-1.6,1,1,0,0,0-.59-.72,1.263,1.263,0,0,0-.79-.07,1.5,1.5,0,0,0-.83.59q-.94,1.14-1.84,2.22T-73.54-.86Q-74.26,0-74.66.46Zm8.22-13.54q-.38-.1-1.08-.35T-69-13.98q-.78-.3-1.44-.59a6.772,6.772,0,0,1-.96-.49l.6-1.06a8.056,8.056,0,0,0,.87.43q.61.27,1.36.56t1.44.53q.69.24,1.09.34ZM-45.9-.04a3.157,3.157,0,0,1-2.09-.7A1.975,1.975,0,0,1-48.7-2.3a1.877,1.877,0,0,1,.38-1.11,2.669,2.669,0,0,1,1.13-.86,4.536,4.536,0,0,1,1.83-.33,9.664,9.664,0,0,1,1.86.18q-.04-.98-.1-2.42t-.1-3.28q-1.36.08-2.65.11t-2.17-.01l-.1-1.34a18.5,18.5,0,0,0,2.15.1q1.33,0,2.75-.08-.02-.88-.03-1.84t-.01-1.98h1.26q-.02.66-.01,1.3t.01,1.26v1.16q1.3-.1,2.38-.23a12.422,12.422,0,0,0,1.6-.27v1.3a16.326,16.326,0,0,1-1.62.23q-1.06.11-2.34.21.04,1.96.11,3.53t.11,2.59A14.532,14.532,0,0,1-37.92-1.7a1.685,1.685,0,0,0-.26.31q-.18.25-.34.49a2.275,2.275,0,0,0-.2.34A14.213,14.213,0,0,0-40.5-1.93a11.771,11.771,0,0,0-1.7-.91v.22A2.144,2.144,0,0,1-43.22-.64,4.992,4.992,0,0,1-45.9-.04Zm-6.86.38a16.081,16.081,0,0,1-.22-1.91q-.08-1.19-.11-2.64t0-3.01q.03-1.56.11-3.04t.21-2.73a18.224,18.224,0,0,1,.31-2.05l1.26.3a13.851,13.851,0,0,0-.34,1.92q-.14,1.18-.23,2.61t-.11,2.94q-.02,1.51.02,2.93t.13,2.58A17.192,17.192,0,0,0-51.5.12Zm6.94-1.54a3.538,3.538,0,0,0,1.76-.36,1.24,1.24,0,0,0,.62-1.16q0-.1-.01-.22t-.01-.3a6.9,6.9,0,0,0-.96-.17q-.48-.05-.98-.07a2.6,2.6,0,0,0-1.57.36,1.119,1.119,0,0,0-.55.84.931.931,0,0,0,.43.76A2.111,2.111,0,0,0-45.82-1.2Zm8.4-12.76a11.955,11.955,0,0,0-1.13-1.26,9.739,9.739,0,0,0-1.27-1.08l.68-.58a6.638,6.638,0,0,1,.82.67q.46.43.9.88a8.944,8.944,0,0,1,.7.79Zm-1.54,1.48a11.793,11.793,0,0,0-1.08-1.3,9.025,9.025,0,0,0-1.24-1.12l.68-.56a8.943,8.943,0,0,1,.79.7q.45.44.88.9t.69.8ZM-27.84.94a8.538,8.538,0,0,0-.99-1.31q-.65-.73-1.36-1.42A13.514,13.514,0,0,0-31.46-2.9l.88-.8a15.155,15.155,0,0,1,1.34,1.13q.74.69,1.41,1.4A12.483,12.483,0,0,1-26.8.04Zm27.2.5V-2.48H-4.58V-3.7H-.64v-6.42A20.831,20.831,0,0,1-2.79-7.19a29.675,29.675,0,0,1-2.77,2.8A23.481,23.481,0,0,1-8.52-2.14a2.042,2.042,0,0,0-.25-.3q-.19-.2-.4-.39a2.363,2.363,0,0,0-.31-.25A16.857,16.857,0,0,0-7.06-4.72,24.977,24.977,0,0,0-4.73-6.85,29.313,29.313,0,0,0-2.7-9.18a18.536,18.536,0,0,0,1.52-2.24H-8.6v-1.2H-.64v-4H.62v4H8.6v1.2H1.18a18.286,18.286,0,0,0,1.6,2.34A23.356,23.356,0,0,0,4.84-6.82a27.071,27.071,0,0,0,2.32,2A19.861,19.861,0,0,0,9.54-3.24q-.08.06-.3.27t-.42.44q-.2.23-.28.33A26.035,26.035,0,0,1,5.48-4.52,26.541,26.541,0,0,1,2.76-7.28,23.085,23.085,0,0,1,.62-10.22V-3.7H4.68v1.22H.62V1.44ZM24.34-.34a2.829,2.829,0,0,0-.32-.64,3.409,3.409,0,0,0-.44-.58A7.809,7.809,0,0,0,26.6-2.62a6.118,6.118,0,0,0,2-1.96,5.072,5.072,0,0,0,.78-2.48,5.854,5.854,0,0,0-.33-2.31,5.515,5.515,0,0,0-1.14-1.88,5.723,5.723,0,0,0-1.76-1.29,5.689,5.689,0,0,0-2.17-.54H23.7a24.82,24.82,0,0,1-.58,4.06,21.234,21.234,0,0,1-1.19,3.71A10.01,10.01,0,0,1,20.2-2.52a2.291,2.291,0,0,1-1.22.77,2.315,2.315,0,0,1-1.34-.15,3.2,3.2,0,0,1-1.24-.96,4.919,4.919,0,0,1-.87-1.65,5.87,5.87,0,0,1-.25-2.11,7.78,7.78,0,0,1,.79-3.13,7.979,7.979,0,0,1,1.91-2.48,8.4,8.4,0,0,1,2.75-1.6,8.379,8.379,0,0,1,3.31-.45,6.811,6.811,0,0,1,2.56.62,7.334,7.334,0,0,1,2.17,1.52,6.58,6.58,0,0,1,1.46,2.27,6.92,6.92,0,0,1,.43,2.89,6.436,6.436,0,0,1-1.77,4.22A8.691,8.691,0,0,1,24.34-.34ZM18.02-3.16a1.323,1.323,0,0,0,.6.11,1,1,0,0,0,.68-.37,8.493,8.493,0,0,0,1.5-2.41A18.688,18.688,0,0,0,21.88-9.2a23.932,23.932,0,0,0,.54-3.8,6.772,6.772,0,0,0-2.96,1.15,6.846,6.846,0,0,0-2.07,2.28,6.919,6.919,0,0,0-.87,3.01,4.224,4.224,0,0,0,.41,2.17A2.717,2.717,0,0,0,18.02-3.16ZM42.88.46a3.945,3.945,0,0,1-1.7-.4,2.579,2.579,0,0,1-1.02-.91A2.155,2.155,0,0,1,39.82-2a2.113,2.113,0,0,1,.45-1.23,3.048,3.048,0,0,1,1.27-.93,4.958,4.958,0,0,1,2.04-.34,8.508,8.508,0,0,1,.92.05q.46.05.94.13-.06-1.26-.17-2.78t-.22-3.09q-.11-1.57-.18-2.96T44.8-15.5h1.34q-.02.8.01,1.87t.09,2.25q.78-.04,1.77-.17t1.96-.33a15.849,15.849,0,0,0,1.65-.42q0,.08.03.35l.06.54a3.42,3.42,0,0,0,.05.35,16.343,16.343,0,0,1-1.68.38q-1,.18-2.02.3t-1.76.18q.1,1.68.22,3.32t.2,2.86a18.536,18.536,0,0,1,5.52,2.64,1.337,1.337,0,0,0-.29.31q-.19.25-.36.49a2.042,2.042,0,0,0-.21.34,14.024,14.024,0,0,0-2.23-1.52A14.474,14.474,0,0,0,46.78-2.8q0,.18.01.32t.01.26a2.406,2.406,0,0,1-.98,1.96A4.435,4.435,0,0,1,42.88.46ZM42.9-.78a3.97,3.97,0,0,0,1.88-.32,1.193,1.193,0,0,0,.74-1.14q0-.2-.01-.42t-.01-.48q-.52-.1-1.03-.16a8.638,8.638,0,0,0-1.01-.06,3.217,3.217,0,0,0-1.79.41,1.144,1.144,0,0,0-.61.93,1.008,1.008,0,0,0,.44.82A2.329,2.329,0,0,0,42.9-.78ZM68.32,1.26a3.107,3.107,0,0,0-.58-.43,2.831,2.831,0,0,0-.66-.31,10.6,10.6,0,0,0,2.38-2.14,10.766,10.766,0,0,0,1.69-2.83,8.448,8.448,0,0,0,.63-3.21,2.43,2.43,0,0,0-.67-1.9,2.33,2.33,0,0,0-1.61-.6,7.806,7.806,0,0,0-1.83.24,11.366,11.366,0,0,0-1.9.64,8.557,8.557,0,0,0-1.55.86,2.987,2.987,0,0,0-.34-.6,3.212,3.212,0,0,0-.46-.56,18.388,18.388,0,0,1,1.82-.84,16.35,16.35,0,0,1,2.16-.7,8.681,8.681,0,0,1,2.1-.28,3.757,3.757,0,0,1,1.79.43,3.277,3.277,0,0,1,1.3,1.26,3.972,3.972,0,0,1,.49,2.05,9.832,9.832,0,0,1-.63,3.48,11.953,11.953,0,0,1-1.7,3.08A11.145,11.145,0,0,1,68.32,1.26Zm3.08-14.7q-.38-.1-1.09-.33t-1.53-.53q-.82-.3-1.53-.6t-1.07-.5l.62-1.1a9.748,9.748,0,0,0,.97.45q.65.27,1.43.56t1.49.52q.71.23,1.13.33ZM85.38-.18q-.12-.72-.2-1.83t-.1-2.45q-.02-1.34.01-2.77t.11-2.79q.08-1.36.22-2.52t.32-1.96l1.24.26a16,16,0,0,0-.32,1.84q-.14,1.12-.22,2.45t-.11,2.73q-.03,1.4-.01,2.7t.1,2.37a17.245,17.245,0,0,0,.2,1.73Zm7.26-1.26a4.4,4.4,0,0,1-1.71-.47,2.078,2.078,0,0,1-.95-1.05,3.6,3.6,0,0,1-.1-2.6l1.16.32a2.732,2.732,0,0,0-.13.96,1.893,1.893,0,0,0,.21.76,2.14,2.14,0,0,0,1.74.8,12.456,12.456,0,0,0,2.08.03q1.16-.07,2.29-.25a12.208,12.208,0,0,0,1.91-.44,3.739,3.739,0,0,0-.04.39q-.02.29-.03.58T99.06-2a17.465,17.465,0,0,1-3.33.57A17.575,17.575,0,0,1,92.64-1.44Zm-2.2-9.7-.1-1.32a16.086,16.086,0,0,0,1.74.08q1.02,0,2.15-.06t2.18-.17a14.542,14.542,0,0,0,1.81-.29l-.04,1.3q-.76.14-1.79.25t-2.12.17q-1.09.06-2.1.07T90.44-11.14ZM110.16.94a8.538,8.538,0,0,0-.99-1.31q-.65-.73-1.36-1.42a13.515,13.515,0,0,0-1.27-1.11l.88-.8a15.155,15.155,0,0,1,1.34,1.13q.74.69,1.41,1.4A12.483,12.483,0,0,1,111.2.04ZM-57.32,40.76V30.24a16.448,16.448,0,0,1-1.48,2.1,2.543,2.543,0,0,0-.29-.23q-.21-.15-.42-.31a1.582,1.582,0,0,0-.31-.2,9.422,9.422,0,0,0,1.33-1.72,22.772,22.772,0,0,0,1.17-2.15q.54-1.13.93-2.19a15.106,15.106,0,0,0,.57-1.86l1.24.38a17.851,17.851,0,0,1-.59,1.78q-.37.96-.83,1.92h2.54a12.666,12.666,0,0,0,.57-1.3q.29-.76.54-1.5A10.378,10.378,0,0,0-52,23.72l1.26.3q-.12.48-.35,1.14t-.5,1.34q-.27.68-.55,1.26h3.24V28.9h-3.28v2.76h2.78V32.8h-2.78v2.78h2.78v1.14h-2.78v2.84h3.62v1.2Zm-8.12.02v-5.5h5.68v5.5Zm1.16-1.1h3.36v-3.3h-3.36Zm-2.14-11.42v-1.1h7.46v1.1Zm10.32,11.3h2.72V36.72H-56.1Zm0-3.98h2.72V32.8H-56.1Zm0-3.92h2.72V28.9H-56.1Zm-9.36-.68V29.9h5.56v1.08Zm0,2.68V32.6h5.56v1.06Zm0-8.14V24.46h5.56v1.06Zm23.9,14.6a2.383,2.383,0,0,0-.28-.21q-.22-.15-.44-.29a1.14,1.14,0,0,0-.32-.16,14.215,14.215,0,0,0,1.64-2.27,28.48,28.48,0,0,0,1.56-3.03q.74-1.66,1.32-3.38-1.14.14-2.21.3t-1.71.3a1.672,1.672,0,0,0-.07-.36q-.07-.26-.14-.53a2.218,2.218,0,0,0-.11-.35q.76-.06,2.03-.21t2.57-.29q.4-1.36.66-2.63a16.293,16.293,0,0,0,.32-2.37l1.26.2a18.5,18.5,0,0,1-.32,2.23q-.24,1.19-.62,2.45.52-.04.99-.07t.81-.03a2.742,2.742,0,0,1,1.64.46,2.3,2.3,0,0,1,.8,1.65,10.9,10.9,0,0,1-.3,3.41,11.386,11.386,0,0,1-1.24,3.64,2.448,2.448,0,0,1-2.22,1.18,4.316,4.316,0,0,1-1.07-.13,3.217,3.217,0,0,1-1.03-.49q.04-.28.06-.66a2.955,2.955,0,0,0-.02-.62,3.272,3.272,0,0,0,1.94.68,1.48,1.48,0,0,0,1.03-.37,3.032,3.032,0,0,0,.72-1.21,18.37,18.37,0,0,0,.63-2.28,13.23,13.23,0,0,0,.33-2.21,2.907,2.907,0,0,0-.16-1.25.972.972,0,0,0-.54-.55,2.2,2.2,0,0,0-.77-.13q-.38,0-.88.03t-1.08.07a38.559,38.559,0,0,1-1.4,3.68,34.418,34.418,0,0,1-1.67,3.33A15.588,15.588,0,0,1-41.56,40.12Zm15.24-5.4a10.293,10.293,0,0,0-.91-1.24q-.57-.68-1.22-1.35t-1.29-1.23a9.864,9.864,0,0,0-1.14-.88l.9-.84a12.427,12.427,0,0,1,1.21.94q.67.58,1.33,1.25t1.22,1.32a11.974,11.974,0,0,1,.88,1.13Zm16.16,4.94a2.829,2.829,0,0,0-.32-.64,3.409,3.409,0,0,0-.44-.58A7.809,7.809,0,0,0-7.9,37.38a6.118,6.118,0,0,0,2-1.96,5.072,5.072,0,0,0,.78-2.48,5.854,5.854,0,0,0-.33-2.31,5.515,5.515,0,0,0-1.14-1.88,5.723,5.723,0,0,0-1.76-1.29,5.689,5.689,0,0,0-2.17-.54h-.28a24.82,24.82,0,0,1-.58,4.06,21.234,21.234,0,0,1-1.19,3.71,10.01,10.01,0,0,1-1.73,2.79,2.291,2.291,0,0,1-1.22.77,2.315,2.315,0,0,1-1.34-.15,3.2,3.2,0,0,1-1.24-.96,4.919,4.919,0,0,1-.87-1.65,5.87,5.87,0,0,1-.25-2.11,7.78,7.78,0,0,1,.79-3.13,7.979,7.979,0,0,1,1.91-2.48,8.4,8.4,0,0,1,2.75-1.6,8.379,8.379,0,0,1,3.31-.45,6.811,6.811,0,0,1,2.56.62,7.334,7.334,0,0,1,2.17,1.52,6.58,6.58,0,0,1,1.46,2.27,6.92,6.92,0,0,1,.43,2.89,6.436,6.436,0,0,1-1.77,4.22A8.691,8.691,0,0,1-10.16,39.66Zm-6.32-2.82a1.323,1.323,0,0,0,.6.11,1,1,0,0,0,.68-.37,8.493,8.493,0,0,0,1.5-2.41,18.688,18.688,0,0,0,1.08-3.37,23.932,23.932,0,0,0,.54-3.8,6.772,6.772,0,0,0-2.96,1.15,6.846,6.846,0,0,0-2.07,2.28,6.919,6.919,0,0,0-.87,3.01,4.224,4.224,0,0,0,.41,2.17A2.717,2.717,0,0,0-16.48,36.84Zm30,4.7a3.491,3.491,0,0,0-.12-.65,5.457,5.457,0,0,0-.18-.57h1.84a.862.862,0,0,0,.58-.16.693.693,0,0,0,.18-.54V37.78H7.14v3.74H5.88V31.5h11.2v8.4a1.665,1.665,0,0,1-.41,1.24,1.823,1.823,0,0,1-1.31.4Zm.38-11.02a2.125,2.125,0,0,1-1.33-.31,1.275,1.275,0,0,1-.37-1.03v-5.9h1.22v2.9q.56-.16,1.29-.41t1.49-.55q.76-.3,1.43-.6a9.463,9.463,0,0,0,1.09-.56l.8.94q-.54.28-1.31.6t-1.65.63q-.88.31-1.7.57t-1.44.42v1.5a.642.642,0,0,0,.15.47.888.888,0,0,0,.61.15h3.5a2.4,2.4,0,0,0,.93-.15,1.1,1.1,0,0,0,.55-.66,5.938,5.938,0,0,0,.28-1.61,2.708,2.708,0,0,0,.57.26q.35.12.61.22a6.27,6.27,0,0,1-.47,2.03,1.671,1.671,0,0,1-.87.88,3.719,3.719,0,0,1-1.34.21Zm-5.32.24V29.14q-.48.12-1.24.29t-1.62.33q-.86.16-1.66.3t-1.4.24L2.4,29.1q.64-.08,1.49-.22l1.75-.29q.9-.15,1.68-.3t1.26-.25v-1.4H2.92V25.52H8.58V23.28H9.8v7.48ZM7.14,36.74h8.68V35.16H7.14Zm0-2.6h8.68V32.56H7.14Zm26.7,7.36V34.58h-7.4V27.56h7.4V23.32h1.32v4.24h7.42v7.02H35.16V41.5Zm1.32-8.18h6.1V28.78h-6.1Zm-7.38,0h6.06V28.78H27.78ZM58.9,40.68a10.039,10.039,0,0,1-2.57-.3,4.162,4.162,0,0,1-1.79-.91,2.041,2.041,0,0,1-.66-1.57,2.452,2.452,0,0,1,.59-1.57,6.311,6.311,0,0,1,1.58-1.35,14.957,14.957,0,0,1,2.19-1.12V33.6a2.248,2.248,0,0,0-.38-1.52,1.429,1.429,0,0,0-1.04-.42,5.65,5.65,0,0,0-2.3.39,5.284,5.284,0,0,0-2.04,1.35q-.38.42-.75.79T51,34.9l-.96-.96a14.2,14.2,0,0,0,2.73-2.65,17.439,17.439,0,0,0,2.05-3.21q-1.34.08-2.44.1t-1.62,0L50.7,26.9q.62.06,1.9.06t2.76-.08a10.475,10.475,0,0,0,.47-1.5A6.185,6.185,0,0,0,56,24l1.32.08a8.438,8.438,0,0,1-.19,1.35q-.15.67-.37,1.37,1.6-.1,3.01-.26a14.762,14.762,0,0,0,2.13-.36l.12,1.22q-.56.12-1.48.23t-2.01.2q-1.09.09-2.23.17a14.6,14.6,0,0,1-.89,1.66q-.53.86-1.11,1.62a4.48,4.48,0,0,1,1.34-.54,6.038,6.038,0,0,1,1.38-.18q2.34,0,2.46,2.82,1.24-.46,2.48-.81T64.18,32l.38,1.2a26.323,26.323,0,0,0-2.63.57,24.742,24.742,0,0,0-2.43.79V37.4H58.24V35.06A9.646,9.646,0,0,0,56,36.4a1.948,1.948,0,0,0-.86,1.4,1.327,1.327,0,0,0,1,1.24,7.3,7.3,0,0,0,2.66.4,14.323,14.323,0,0,0,2.03-.16,13.919,13.919,0,0,0,2.09-.46,1.359,1.359,0,0,0,.01.36q.03.26.07.52.02.16.03.27t.01.17a17.713,17.713,0,0,1-2.1.4A15.9,15.9,0,0,1,58.9,40.68ZM-100.76,81.52V74.56h-4.26V64.14h9.82V74.56h-4.34v6.96Zm-10.72-.08a4.808,4.808,0,0,0-.11-.66,2.779,2.779,0,0,0-.19-.6h1.56a.862.862,0,0,0,.58-.16.693.693,0,0,0,.18-.54V74.42q-.94.36-1.74.64l-1.08.38-.36-1.34q.46-.12,1.34-.41t1.84-.61V68.92h-3.04v-1.2h3.04v-4.4h1.24v4.4h2.38v1.2h-2.38v3.72q.8-.3,1.45-.56t.95-.4v1.24q-.26.14-.92.42t-1.48.6V79.8q0,1.64-1.78,1.64Zm11.94-8.04h3.14V69.92h-3.14Zm0-4.64h3.14V65.3h-3.14Zm-4.26,4.64h3.04V69.92h-3.04Zm0-4.64h3.04V65.3h-3.04Zm19.9,12.16a3.3,3.3,0,0,0-.32-.49,3.415,3.415,0,0,0-.5-.53,8.356,8.356,0,0,0,3.54-1.94,4.858,4.858,0,0,0,1.44-2.94,2.659,2.659,0,0,1-.88.7,2.47,2.47,0,0,1-1.12.26,2.563,2.563,0,0,1-1.94-.75,2.642,2.642,0,0,1-.74-1.85,2.776,2.776,0,0,1,.36-1.42,2.689,2.689,0,0,1,1-.99,2.864,2.864,0,0,1,1.46-.37,2.9,2.9,0,0,1,1.12.2q-.06-.6-.12-1.24t-.06-1.3q-1.64.06-3.21.17t-2.9.25q-1.33.14-2.25.32l-.24-1.26q.9-.08,2.25-.18t2.99-.19q1.64-.09,3.36-.17V63.96h1.24v3.18q2.22-.1,4.24-.15t3.3-.01l-.08,1.28q-1.28-.12-3.27-.13t-4.19.07q.02.86.07,1.78t.09,1.76a3.641,3.641,0,0,1,.56,1.14,5.02,5.02,0,0,1,.2,1.46,6.094,6.094,0,0,1-1.44,4A8.465,8.465,0,0,1-83.9,80.92Zm2.16-6.08a1.533,1.533,0,0,0,1.07-.39,1.324,1.324,0,0,0,.43-1.03,10.322,10.322,0,0,0-.06-1.1,1.661,1.661,0,0,0-1.3-.56,1.62,1.62,0,0,0-1.15.44,1.491,1.491,0,0,0-.47,1.14,1.6,1.6,0,0,0,.42,1.1A1.336,1.336,0,0,0-81.74,74.84Zm23,4.24a6.056,6.056,0,0,1-3.08-.69A4.184,4.184,0,0,1-63.58,76l1.2-.54a2.8,2.8,0,0,0,1.18,1.72,4.388,4.388,0,0,0,2.46.6q1.34,0,2.66-.12t2.46-.34a13.558,13.558,0,0,0,1.88-.48q0,.12.02.43a5.684,5.684,0,0,0,.07.6q.05.29.07.39a12.133,12.133,0,0,1-1.94.44q-1.16.18-2.51.28T-58.74,79.08Zm-2.6-11.8-.04-1.32a7.5,7.5,0,0,0,1.67.32,19.263,19.263,0,0,0,2.19.08q1.16-.02,2.2-.14a9.435,9.435,0,0,0,1.68-.32l.04,1.32a8.931,8.931,0,0,1-1.66.31q-1.02.11-2.16.13a21.025,21.025,0,0,1-2.18-.07A8.283,8.283,0,0,1-61.34,67.28ZM-29.1,79.62q-1.7.3-3.34.43a19.506,19.506,0,0,1-3.05.02,8.855,8.855,0,0,1-2.48-.52,3.8,3.8,0,0,1-1.68-1.19,3.117,3.117,0,0,1-.61-1.98,3.089,3.089,0,0,1,.59-1.83,6.185,6.185,0,0,1,1.64-1.53,14.819,14.819,0,0,1,2.41-1.28,8.772,8.772,0,0,1-.82-2.95,36.577,36.577,0,0,1-.2-4.57h1.44a18.522,18.522,0,0,0-.1,2.6,17.344,17.344,0,0,0,.25,2.52,8.121,8.121,0,0,0,.57,1.96q1-.36,2.07-.68t2.17-.58l.36,1.34a22.8,22.8,0,0,0-3.5.8,17,17,0,0,0-2.89,1.19,7.715,7.715,0,0,0-1.97,1.43,2.255,2.255,0,0,0-.72,1.54,1.917,1.917,0,0,0,.82,1.65,4.924,4.924,0,0,0,2.24.78,14.745,14.745,0,0,0,3.23.03,30.113,30.113,0,0,0,3.81-.6,4.128,4.128,0,0,0-.17.71A4.583,4.583,0,0,0-29.1,79.62Zm10.54.5a2.383,2.383,0,0,0-.28-.21q-.22-.15-.44-.29a1.14,1.14,0,0,0-.32-.16,14.215,14.215,0,0,0,1.64-2.27,28.481,28.481,0,0,0,1.56-3.03q.74-1.66,1.32-3.38-1.14.14-2.21.3t-1.71.3a1.672,1.672,0,0,0-.07-.36q-.07-.26-.14-.53a2.219,2.219,0,0,0-.11-.35q.76-.06,2.03-.21t2.57-.29q.4-1.36.66-2.63a16.294,16.294,0,0,0,.32-2.37l1.26.2a18.5,18.5,0,0,1-.32,2.23q-.24,1.19-.62,2.45.52-.04.99-.07t.81-.03a2.707,2.707,0,0,1,1.62.46,2.334,2.334,0,0,1,.81,1.65,10.637,10.637,0,0,1-.29,3.41,11.2,11.2,0,0,1-1.25,3.64,2.453,2.453,0,0,1-2.21,1.18,4.316,4.316,0,0,1-1.07-.13,3.216,3.216,0,0,1-1.03-.49q.04-.28.06-.66a2.955,2.955,0,0,0-.02-.62,3.272,3.272,0,0,0,1.94.68,1.48,1.48,0,0,0,1.03-.37,3.032,3.032,0,0,0,.72-1.21,18.369,18.369,0,0,0,.63-2.28,13.23,13.23,0,0,0,.33-2.21,2.907,2.907,0,0,0-.16-1.25.972.972,0,0,0-.54-.55,2.2,2.2,0,0,0-.77-.13q-.38,0-.88.03t-1.08.07a38.559,38.559,0,0,1-1.4,3.68,34.417,34.417,0,0,1-1.67,3.33A15.588,15.588,0,0,1-18.56,80.12Zm15.24-5.4a10.292,10.292,0,0,0-.91-1.24q-.57-.68-1.22-1.35T-6.74,70.9a9.863,9.863,0,0,0-1.14-.88l.9-.84a12.427,12.427,0,0,1,1.21.94q.67.58,1.33,1.25t1.22,1.32a11.974,11.974,0,0,1,.88,1.13Zm.68-7.32a9.429,9.429,0,0,0-.94-.64q-.56-.34-1.15-.63a10.624,10.624,0,0,0-1.03-.45l.48-.74a7.247,7.247,0,0,1,1.03.46q.61.32,1.2.66a8.858,8.858,0,0,1,.93.6Zm-1.12,1.84a7.508,7.508,0,0,0-.92-.68q-.56-.36-1.13-.67a10.41,10.41,0,0,0-1.01-.49l.5-.72a8.626,8.626,0,0,1,1,.5q.6.34,1.19.7a8.606,8.606,0,0,1,.91.62ZM16.02,80.32a7.934,7.934,0,0,1-3.4-1.16,6.828,6.828,0,0,1-2.32-2.42,6.451,6.451,0,0,1-.84-3.24,6.927,6.927,0,0,1,.38-2.17,8.355,8.355,0,0,1,1.17-2.25,7.4,7.4,0,0,1,2.03-1.9q-1.28.22-2.65.47l-2.64.48q-1.27.23-2.28.43T3.9,68.9l-.34-1.38q.66-.08,1.77-.24t2.49-.37q1.38-.21,2.85-.47t2.84-.51q1.37-.25,2.48-.48t1.77-.39l.34,1.3-.65.1-.89.14a6.36,6.36,0,0,0-2.26.84,7.521,7.521,0,0,0-3.11,3.69,6.45,6.45,0,0,0-.45,2.37,4.817,4.817,0,0,0,.82,2.82,5.708,5.708,0,0,0,2.18,1.86,9.1,9.1,0,0,0,2.98.88,2.947,2.947,0,0,0-.42.62A3.9,3.9,0,0,0,16.02,80.32Zm3.24-8.62a9.622,9.622,0,0,0-.72-.89q-.44-.49-.92-.94a9.746,9.746,0,0,0-.86-.73l.68-.58a10.423,10.423,0,0,1,.84.74q.5.48.97.97a10.294,10.294,0,0,1,.73.83Zm-1.58,1.44a7.487,7.487,0,0,0-.69-.92q-.43-.5-.89-.96a7.587,7.587,0,0,0-.84-.74l.68-.56a7.631,7.631,0,0,1,.82.76q.48.5.94,1.01a9.677,9.677,0,0,1,.7.85Zm19.94,7.68a22.58,22.58,0,0,1-2.97-.07,8.717,8.717,0,0,1-2.4-.54,3.715,3.715,0,0,1-1.61-1.16,3.064,3.064,0,0,1-.58-1.93,2.284,2.284,0,0,1,.6-1.61,3.7,3.7,0,0,1,1.61-.98,7.835,7.835,0,0,1,2.25-.36,11.8,11.8,0,0,1,2.5.21,15.732,15.732,0,0,1-1.06-1.37q-.52-.75-1-1.57-1.34.24-2.67.42t-2.47.28q-1.14.1-1.9.1l-.3-1.16a16.525,16.525,0,0,0,1.78-.07q1.08-.09,2.37-.27t2.59-.4q-.32-.64-.62-1.29t-.56-1.27q-1.28.18-2.51.29t-2.15.13l-.26-1.16q.88,0,2.06-.1t2.44-.26q-.3-.82-.5-1.52a10.553,10.553,0,0,1-.28-1.2l1.3-.16a12.065,12.065,0,0,0,.7,2.7q1.26-.2,2.35-.43a14.443,14.443,0,0,0,1.77-.47l.34,1.14a15.583,15.583,0,0,1-1.73.44q-1.07.22-2.31.42.26.62.56,1.25t.62,1.27q1.6-.3,2.91-.63a10.154,10.154,0,0,0,1.91-.63l.48,1.08a10.341,10.341,0,0,1-1.9.65q-1.26.33-2.78.63a22.191,22.191,0,0,0,1.45,2.11A11.224,11.224,0,0,0,39.22,75l-.74.92a9.882,9.882,0,0,0-2.61-.68,7.842,7.842,0,0,0-2.29.05,3.769,3.769,0,0,0-1.62.65,1.371,1.371,0,0,0-.6,1.12,1.846,1.846,0,0,0,.53,1.38,3.314,3.314,0,0,0,1.45.78,9.968,9.968,0,0,0,2.12.33,24.707,24.707,0,0,0,2.54.01,2.493,2.493,0,0,0-.24.63Q37.66,80.58,37.62,80.82Zm13.32-.32a3.341,3.341,0,0,0-.62-.31,4.67,4.67,0,0,0-.64-.21,17.24,17.24,0,0,0,1.05-2.02q.55-1.22,1.11-2.7t1.09-3.08q.53-1.6.95-3.12-1.24.14-2.38.18t-1.9,0l-.04-1.3a15.771,15.771,0,0,0,2.12.07q1.24-.03,2.52-.17.28-1.12.47-2.11t.27-1.75l1.36.18q-.1.7-.3,1.6t-.46,1.9q1-.16,1.89-.37a11.664,11.664,0,0,0,1.51-.45l.28,1.22a11.823,11.823,0,0,1-1.71.46q-1.07.22-2.31.38-.44,1.58-.97,3.24t-1.1,3.24q-.57,1.58-1.13,2.9A23.715,23.715,0,0,1,50.94,80.5Zm13.68-.94a16.644,16.644,0,0,1-3.93.16,9.1,9.1,0,0,1-3.05-.75,4.306,4.306,0,0,1-1.88-1.57l.84-.84a4.652,4.652,0,0,0,3.05,1.73,13.737,13.737,0,0,0,5.17-.09,3.2,3.2,0,0,0-.16.68A3.253,3.253,0,0,0,64.62,79.56Zm-.54-7.22a10.846,10.846,0,0,0-2.1-.48,23.412,23.412,0,0,0-2.34-.2,16.531,16.531,0,0,0-2.04.04l.16-1.3q.66-.04,1.55-.01t1.85.12q.96.09,1.85.22a11.438,11.438,0,0,1,1.51.31ZM79.14,80.5a3.77,3.77,0,0,0-.11-.37q-.09-.27-.21-.54a1.866,1.866,0,0,0-.2-.37,9.669,9.669,0,0,0,4.86-.95,2.988,2.988,0,0,0,1.66-2.69,1.953,1.953,0,0,0-.92-1.79,4.254,4.254,0,0,0-2.28-.57,7.074,7.074,0,0,0-2,.32,7.951,7.951,0,0,0-2.08.97,5.675,5.675,0,0,0-1.66,1.65l-1.12-.54a8.452,8.452,0,0,0,.67-1.73,20.185,20.185,0,0,0,.48-2.18q.19-1.15.27-2.17a12.542,12.542,0,0,0,.04-1.68L77.9,68a15.811,15.811,0,0,1-.11,1.68q-.11,1-.32,2.11a21.029,21.029,0,0,1-.53,2.17,8.812,8.812,0,0,1,2.52-1.44,7.342,7.342,0,0,1,2.52-.5,5.122,5.122,0,0,1,3.3.98,3.168,3.168,0,0,1,1.22,2.6,4.019,4.019,0,0,1-1.82,3.46A10.5,10.5,0,0,1,79.14,80.5ZM82.5,67.72a7.453,7.453,0,0,0-1.07-.7q-.65-.36-1.38-.7t-1.41-.59a8.127,8.127,0,0,0-1.18-.35l.64-1.16q.46.14,1.14.41t1.41.61q.73.34,1.4.68t1.11.62ZM97.58,81.1a2.607,2.607,0,0,1-1.35-.36,2.761,2.761,0,0,1-.98-.98,2.7,2.7,0,0,1-.01-2.71,2.76,2.76,0,0,1,.98-.98,2.6,2.6,0,0,1,1.36-.37,2.553,2.553,0,0,1,1.35.37,2.787,2.787,0,0,1,.97.98,2.607,2.607,0,0,1,.36,1.35,2.7,2.7,0,0,1-1.33,2.34A2.607,2.607,0,0,1,97.58,81.1Zm0-.78a1.8,1.8,0,0,0,1.35-.57,1.932,1.932,0,0,0,0-2.7,1.8,1.8,0,0,0-1.35-.57,1.92,1.92,0,1,0,0,3.84Z" transform="translate(122.94 16.88)" fill="#4d2200"/>
</svg>
