<svg xmlns="http://www.w3.org/2000/svg" width="490.952" height="85.788" viewBox="0 0 490.952 85.788">
  <path id="パス_89447" data-name="パス 89447" d="M-170.184.7a4.678,4.678,0,0,0-.868-.434,6.538,6.538,0,0,0-.9-.294,24.137,24.137,0,0,0,1.47-2.828q.77-1.708,1.554-3.78t1.526-4.312q.742-2.24,1.33-4.368-1.736.2-3.332.252t-2.66,0l-.056-1.82a22.079,22.079,0,0,0,2.968.1q1.736-.042,3.528-.238.392-1.568.658-2.954t.378-2.45l1.9.252q-.14.98-.42,2.24t-.644,2.66q1.4-.224,2.646-.518a16.332,16.332,0,0,0,2.114-.63l.392,1.708a16.553,16.553,0,0,1-2.394.644q-1.5.308-3.234.532-.616,2.212-1.358,4.536t-1.54,4.536q-.8,2.212-1.582,4.06A33.2,33.2,0,0,1-170.184.7Zm19.152-1.316a23.3,23.3,0,0,1-5.5.224,12.733,12.733,0,0,1-4.27-1.05,6.029,6.029,0,0,1-2.632-2.2l1.176-1.176a6.513,6.513,0,0,0,4.27,2.422,19.232,19.232,0,0,0,7.238-.126,4.483,4.483,0,0,0-.224.952A4.555,4.555,0,0,0-151.032-.616Zm-.756-10.108a15.184,15.184,0,0,0-2.94-.672,32.778,32.778,0,0,0-3.276-.28,23.142,23.142,0,0,0-2.856.056l.224-1.82q.924-.056,2.17-.014t2.59.168q1.344.126,2.59.308a16.015,16.015,0,0,1,2.114.434ZM-121.24-.532q-2.38.42-4.676.6a27.308,27.308,0,0,1-4.27.028,12.4,12.4,0,0,1-3.472-.728A5.317,5.317,0,0,1-136.01-2.3a4.365,4.365,0,0,1-.854-2.772,4.324,4.324,0,0,1,.826-2.562,8.659,8.659,0,0,1,2.3-2.142,20.746,20.746,0,0,1,3.374-1.792,12.281,12.281,0,0,1-1.148-4.13,51.206,51.206,0,0,1-.28-6.4h2.016a25.931,25.931,0,0,0-.14,3.64,24.284,24.284,0,0,0,.35,3.528,11.37,11.37,0,0,0,.8,2.744q1.4-.5,2.9-.952t3.038-.812l.5,1.876a31.918,31.918,0,0,0-4.9,1.12,23.8,23.8,0,0,0-4.046,1.666,10.8,10.8,0,0,0-2.758,2,3.157,3.157,0,0,0-1.008,2.156,2.683,2.683,0,0,0,1.148,2.31,6.893,6.893,0,0,0,3.136,1.092,20.643,20.643,0,0,0,4.522.042,42.158,42.158,0,0,0,5.334-.84,5.779,5.779,0,0,0-.238.994A6.416,6.416,0,0,0-121.24-.532ZM-104.524.644l-1.484-1.12q.672-.672,1.764-1.918t2.408-2.8q1.316-1.554,2.646-3.164t2.464-3.052q1.134-1.442,1.862-2.394-1.036.2-2.324.392t-2.576.364q-1.288.168-2.366.294t-1.694.182l-.308-1.736q.616,0,1.652-.084t2.3-.224q1.26-.14,2.576-.336t2.492-.406q1.176-.21,2.016-.434l1.288,1.176a14.506,14.506,0,0,0-1.036,1.134q-.728.854-1.652,2t-1.876,2.352a1.608,1.608,0,0,1,.854-.07,2.787,2.787,0,0,1,.882.238,2.439,2.439,0,0,1,1.12,1.19,6.42,6.42,0,0,1,.28,2.7,9.131,9.131,0,0,0,.2,2.66,1.473,1.473,0,0,0,.882,1.064,4.984,4.984,0,0,0,1.638.224q.644,0,1.54-.07t1.806-.2q.91-.126,1.526-.266a4.5,4.5,0,0,0-.112.91,7.7,7.7,0,0,0,0,.938q-1.288.2-2.66.322t-2.324.126a6.345,6.345,0,0,1-2.506-.42,2.468,2.468,0,0,1-1.358-1.54,8.673,8.673,0,0,1-.28-3.192,8.71,8.71,0,0,0-.126-2.24,1.4,1.4,0,0,0-.826-1.008,1.768,1.768,0,0,0-1.106-.1,2.105,2.105,0,0,0-1.162.826q-1.316,1.6-2.576,3.108T-102.956-1.2Q-103.964,0-104.524.644Zm11.508-18.956q-.532-.14-1.512-.49t-2.072-.77q-1.092-.42-2.016-.826a9.48,9.48,0,0,1-1.344-.686l.84-1.484a11.279,11.279,0,0,0,1.218.6q.854.378,1.9.784t2.016.742q.966.336,1.526.476ZM-64.26-.056a4.42,4.42,0,0,1-2.926-.98A2.765,2.765,0,0,1-68.18-3.22a2.628,2.628,0,0,1,.532-1.554,3.737,3.737,0,0,1,1.582-1.2A6.35,6.35,0,0,1-63.5-6.44a13.53,13.53,0,0,1,2.6.252q-.056-1.372-.14-3.388t-.14-4.592q-1.9.112-3.71.154t-3.038-.014l-.14-1.876a25.9,25.9,0,0,0,3.01.14q1.862,0,3.85-.112-.028-1.232-.042-2.576t-.014-2.772H-59.5q-.028.924-.014,1.82t.014,1.764v1.624q1.82-.14,3.332-.322a17.39,17.39,0,0,0,2.24-.378v1.82a22.856,22.856,0,0,1-2.268.322q-1.484.154-3.276.294.056,2.744.154,4.942t.154,3.626A20.346,20.346,0,0,1-53.088-2.38a2.359,2.359,0,0,0-.364.434q-.252.35-.476.686a3.185,3.185,0,0,0-.28.476A19.9,19.9,0,0,0-56.7-2.7a16.48,16.48,0,0,0-2.38-1.274v.308A3,3,0,0,1-60.508-.9,6.989,6.989,0,0,1-64.26-.056Zm-9.6.532A22.514,22.514,0,0,1-74.172-2.2q-.112-1.666-.154-3.7t0-4.214q.042-2.184.154-4.256t.294-3.822a25.513,25.513,0,0,1,.434-2.87l1.764.42a19.391,19.391,0,0,0-.476,2.688q-.2,1.652-.322,3.654t-.154,4.116q-.028,2.114.028,4.1t.182,3.612A24.068,24.068,0,0,0-72.1.168Zm9.716-2.156a4.953,4.953,0,0,0,2.464-.5,1.736,1.736,0,0,0,.868-1.624q0-.14-.014-.308t-.014-.42a9.665,9.665,0,0,0-1.344-.238q-.672-.07-1.372-.1a3.638,3.638,0,0,0-2.2.5,1.567,1.567,0,0,0-.77,1.176,1.3,1.3,0,0,0,.6,1.064A2.956,2.956,0,0,0-64.148-1.68Zm11.76-17.864a16.736,16.736,0,0,0-1.582-1.764,13.635,13.635,0,0,0-1.778-1.512l.952-.812a9.293,9.293,0,0,1,1.148.938q.644.6,1.26,1.232a12.521,12.521,0,0,1,.98,1.106Zm-2.156,2.072a16.51,16.51,0,0,0-1.512-1.82,12.635,12.635,0,0,0-1.736-1.568l.952-.784a12.522,12.522,0,0,1,1.106.98q.63.616,1.232,1.26t.966,1.12ZM-38.976,1.316A11.953,11.953,0,0,0-40.362-.518q-.91-1.022-1.9-1.988A18.92,18.92,0,0,0-44.044-4.06l1.232-1.12A21.216,21.216,0,0,1-40.936-3.6q1.036.966,1.974,1.96A17.477,17.477,0,0,1-37.52.056Zm38.08.7V-3.472H-6.412V-5.18H-.9v-8.988a29.163,29.163,0,0,1-3.01,4.1,41.546,41.546,0,0,1-3.878,3.92A32.874,32.874,0,0,1-11.928-3a2.86,2.86,0,0,0-.35-.42q-.266-.28-.56-.546a3.308,3.308,0,0,0-.434-.35,23.6,23.6,0,0,0,3.388-2.3A34.968,34.968,0,0,0-6.622-9.59,41.038,41.038,0,0,0-3.78-12.852a25.95,25.95,0,0,0,2.128-3.136H-12.04v-1.68H-.9v-5.6H.868v5.6H12.04v1.68H1.652a25.6,25.6,0,0,0,2.24,3.276A32.7,32.7,0,0,0,6.776-9.548a37.9,37.9,0,0,0,3.248,2.8,27.805,27.805,0,0,0,3.332,2.212q-.112.084-.42.378t-.588.616q-.28.322-.392.462A36.45,36.45,0,0,1,7.672-6.328a37.157,37.157,0,0,1-3.808-3.864,32.319,32.319,0,0,1-3-4.116V-5.18H6.552v1.708H.868V2.016ZM34.076-.476a3.961,3.961,0,0,0-.448-.9,4.773,4.773,0,0,0-.616-.812A10.933,10.933,0,0,0,37.24-3.668a8.565,8.565,0,0,0,2.8-2.744,7.1,7.1,0,0,0,1.092-3.472,8.2,8.2,0,0,0-.462-3.234,7.722,7.722,0,0,0-1.6-2.632,8.012,8.012,0,0,0-2.464-1.806,7.964,7.964,0,0,0-3.038-.756H33.18a34.748,34.748,0,0,1-.812,5.684A29.728,29.728,0,0,1,30.7-7.434,14.014,14.014,0,0,1,28.28-3.528,3.208,3.208,0,0,1,26.572-2.45,3.241,3.241,0,0,1,24.7-2.66,4.475,4.475,0,0,1,22.96-4a6.887,6.887,0,0,1-1.218-2.31,8.218,8.218,0,0,1-.35-2.954A10.892,10.892,0,0,1,22.5-13.65a11.17,11.17,0,0,1,2.674-3.472,11.756,11.756,0,0,1,3.85-2.24,11.731,11.731,0,0,1,4.634-.63,9.535,9.535,0,0,1,3.584.868A10.267,10.267,0,0,1,40.278-17a9.212,9.212,0,0,1,2.044,3.178,9.688,9.688,0,0,1,.6,4.046,9.011,9.011,0,0,1-2.478,5.908A12.167,12.167,0,0,1,34.076-.476ZM25.228-4.424a1.852,1.852,0,0,0,.84.154,1.4,1.4,0,0,0,.952-.518,11.89,11.89,0,0,0,2.1-3.374,26.163,26.163,0,0,0,1.512-4.718,33.5,33.5,0,0,0,.756-5.32,9.481,9.481,0,0,0-4.144,1.61,9.584,9.584,0,0,0-2.9,3.192,9.687,9.687,0,0,0-1.218,4.214A5.913,5.913,0,0,0,23.7-6.146,3.8,3.8,0,0,0,25.228-4.424ZM60.032.644a5.522,5.522,0,0,1-2.38-.56A3.61,3.61,0,0,1,56.224-1.19a3.017,3.017,0,0,1-.476-1.61,2.958,2.958,0,0,1,.63-1.722,4.268,4.268,0,0,1,1.778-1.3A6.941,6.941,0,0,1,61.012-6.3a11.911,11.911,0,0,1,1.288.07q.644.07,1.316.182-.084-1.764-.238-3.892t-.308-4.326q-.154-2.2-.252-4.144t-.1-3.29H64.6q-.028,1.12.014,2.618t.126,3.15q1.092-.056,2.478-.238t2.744-.462a22.188,22.188,0,0,0,2.31-.588q0,.112.042.49l.084.756a4.787,4.787,0,0,0,.07.49,22.88,22.88,0,0,1-2.352.532q-1.4.252-2.828.42t-2.464.252q.14,2.352.308,4.648t.28,4a25.951,25.951,0,0,1,7.728,3.7,1.872,1.872,0,0,0-.406.434q-.266.35-.5.686a2.86,2.86,0,0,0-.294.476A19.632,19.632,0,0,0,68.81-2.464,20.263,20.263,0,0,0,65.492-3.92q0,.252.014.448t.014.364A3.369,3.369,0,0,1,64.148-.364,6.209,6.209,0,0,1,60.032.644Zm.028-1.736a5.558,5.558,0,0,0,2.632-.448,1.671,1.671,0,0,0,1.036-1.6q0-.28-.014-.588T63.7-4.4q-.728-.14-1.442-.224A12.094,12.094,0,0,0,60.844-4.7a4.5,4.5,0,0,0-2.506.574,1.6,1.6,0,0,0-.854,1.3A1.412,1.412,0,0,0,58.1-1.68,3.26,3.26,0,0,0,60.06-1.092ZM95.648,1.764a4.35,4.35,0,0,0-.812-.6,3.963,3.963,0,0,0-.924-.434,14.832,14.832,0,0,0,3.332-3A15.072,15.072,0,0,0,99.61-6.23a11.827,11.827,0,0,0,.882-4.494,3.4,3.4,0,0,0-.938-2.66,3.262,3.262,0,0,0-2.254-.84,10.928,10.928,0,0,0-2.562.336,15.912,15.912,0,0,0-2.66.9,11.981,11.981,0,0,0-2.17,1.2,4.181,4.181,0,0,0-.476-.84,4.5,4.5,0,0,0-.644-.784,25.744,25.744,0,0,1,2.548-1.176,22.89,22.89,0,0,1,3.024-.98,12.153,12.153,0,0,1,2.94-.392,5.26,5.26,0,0,1,2.506.6,4.588,4.588,0,0,1,1.82,1.764,5.561,5.561,0,0,1,.686,2.87,13.764,13.764,0,0,1-.882,4.872A16.735,16.735,0,0,1,99.05-1.54,15.6,15.6,0,0,1,95.648,1.764Zm4.312-20.58q-.532-.14-1.526-.462t-2.142-.742q-1.148-.42-2.142-.84t-1.5-.7l.868-1.54a13.647,13.647,0,0,0,1.358.63q.91.378,2,.784t2.086.728q.994.322,1.582.462ZM119.532-.252q-.168-1.008-.28-2.562t-.14-3.43q-.028-1.876.014-3.878t.154-3.906q.112-1.9.308-3.528t.448-2.744l1.736.364a22.4,22.4,0,0,0-.448,2.576q-.2,1.568-.308,3.43t-.154,3.822q-.042,1.96-.014,3.78t.14,3.318a24.143,24.143,0,0,0,.28,2.422ZM129.7-2.016a6.166,6.166,0,0,1-2.394-.658,2.91,2.91,0,0,1-1.33-1.47,5.039,5.039,0,0,1-.14-3.64l1.624.448a3.825,3.825,0,0,0-.182,1.344,2.651,2.651,0,0,0,.294,1.064A3,3,0,0,0,130-3.808a17.438,17.438,0,0,0,2.912.042q1.624-.1,3.206-.35a17.091,17.091,0,0,0,2.674-.616,5.231,5.231,0,0,0-.056.546q-.028.406-.042.812t-.014.574a24.451,24.451,0,0,1-4.662.8A24.605,24.605,0,0,1,129.7-2.016Zm-3.08-13.58-.14-1.848a22.52,22.52,0,0,0,2.436.112q1.428,0,3.01-.084t3.052-.238a20.359,20.359,0,0,0,2.534-.406l-.056,1.82q-1.064.2-2.506.35t-2.968.238q-1.526.084-2.94.1T126.616-15.6ZM154.224,1.316a11.953,11.953,0,0,0-1.386-1.834q-.91-1.022-1.9-1.988a18.922,18.922,0,0,0-1.778-1.554l1.232-1.12A21.218,21.218,0,0,1,152.264-3.6q1.036.966,1.974,1.96A17.478,17.478,0,0,1,155.68.056ZM-241.248,61.064V46.336a23.026,23.026,0,0,1-2.072,2.94,3.559,3.559,0,0,0-.406-.322q-.294-.21-.588-.434a2.214,2.214,0,0,0-.434-.28,13.19,13.19,0,0,0,1.862-2.408,31.88,31.88,0,0,0,1.638-3.01q.756-1.582,1.3-3.066a21.148,21.148,0,0,0,.8-2.6l1.736.532a24.992,24.992,0,0,1-.826,2.492q-.518,1.344-1.162,2.688h3.556a17.73,17.73,0,0,0,.8-1.82q.406-1.064.756-2.1a14.53,14.53,0,0,0,.49-1.736l1.764.42q-.168.672-.49,1.6t-.7,1.876q-.378.952-.77,1.764h4.536v1.6h-4.592v3.864h3.892v1.6h-3.892v3.892h3.892v1.6h-3.892v3.976h5.068v1.68Zm-11.368.028v-7.7h7.952v7.7Zm1.624-1.54h4.7v-4.62h-4.7Zm-3-15.988v-1.54h10.444v1.54Zm14.448,15.82h3.808V55.408h-3.808Zm0-5.572h3.808V49.92h-3.808Zm0-5.488h3.808V44.46h-3.808Zm-13.1-.952V45.86h7.784v1.512Zm0,3.752V49.64h7.784v1.484Zm0-11.4V38.244h7.784v1.484Zm33.46,20.44a3.336,3.336,0,0,0-.392-.294q-.308-.21-.616-.406a1.6,1.6,0,0,0-.448-.224,19.9,19.9,0,0,0,2.3-3.178,39.871,39.871,0,0,0,2.184-4.242q1.036-2.324,1.848-4.732-1.6.2-3.094.42t-2.394.42a2.34,2.34,0,0,0-.1-.5q-.1-.364-.2-.742a3.1,3.1,0,0,0-.154-.49q1.064-.084,2.842-.294t3.6-.406q.56-1.9.924-3.682a22.812,22.812,0,0,0,.448-3.318l1.764.28a25.9,25.9,0,0,1-.448,3.122q-.336,1.666-.868,3.43.728-.056,1.386-.1t1.134-.042a3.839,3.839,0,0,1,2.3.644,3.225,3.225,0,0,1,1.12,2.31,15.264,15.264,0,0,1-.42,4.774,15.94,15.94,0,0,1-1.736,5.1,3.427,3.427,0,0,1-3.108,1.652,6.043,6.043,0,0,1-1.5-.182,4.5,4.5,0,0,1-1.442-.686q.056-.392.084-.924A4.137,4.137,0,0,0-214.2,57a4.58,4.58,0,0,0,2.716.952,2.071,2.071,0,0,0,1.442-.518,4.245,4.245,0,0,0,1.008-1.694,25.718,25.718,0,0,0,.882-3.192,18.523,18.523,0,0,0,.462-3.094,4.07,4.07,0,0,0-.224-1.75,1.361,1.361,0,0,0-.756-.77,3.074,3.074,0,0,0-1.078-.182q-.532,0-1.232.042t-1.512.1a53.983,53.983,0,0,1-1.96,5.152,48.186,48.186,0,0,1-2.338,4.662A21.822,21.822,0,0,1-219.184,60.168Zm21.336-7.56a14.41,14.41,0,0,0-1.274-1.736q-.8-.952-1.708-1.89t-1.806-1.722a13.81,13.81,0,0,0-1.6-1.232l1.26-1.176a17.4,17.4,0,0,1,1.694,1.316q.938.812,1.862,1.75t1.708,1.848a16.767,16.767,0,0,1,1.232,1.582Zm22.624,6.916a3.96,3.96,0,0,0-.448-.9,4.773,4.773,0,0,0-.616-.812,10.933,10.933,0,0,0,4.228-1.484,8.565,8.565,0,0,0,2.8-2.744,7.1,7.1,0,0,0,1.092-3.472,8.2,8.2,0,0,0-.462-3.234,7.722,7.722,0,0,0-1.6-2.632,8.012,8.012,0,0,0-2.464-1.806,7.964,7.964,0,0,0-3.038-.756h-.392a34.748,34.748,0,0,1-.812,5.684,29.728,29.728,0,0,1-1.666,5.194,14.014,14.014,0,0,1-2.422,3.906,3.208,3.208,0,0,1-1.708,1.078,3.241,3.241,0,0,1-1.876-.21A4.475,4.475,0,0,1-186.34,56a6.887,6.887,0,0,1-1.218-2.31,8.218,8.218,0,0,1-.35-2.954A10.892,10.892,0,0,1-186.8,46.35a11.17,11.17,0,0,1,2.674-3.472,11.756,11.756,0,0,1,3.85-2.24,11.731,11.731,0,0,1,4.634-.63,9.535,9.535,0,0,1,3.584.868A10.268,10.268,0,0,1-169.022,43a9.212,9.212,0,0,1,2.044,3.178,9.688,9.688,0,0,1,.6,4.046,9.011,9.011,0,0,1-2.478,5.908A12.167,12.167,0,0,1-175.224,59.524Zm-8.848-3.948a1.852,1.852,0,0,0,.84.154,1.4,1.4,0,0,0,.952-.518,11.89,11.89,0,0,0,2.1-3.374,26.165,26.165,0,0,0,1.512-4.718,33.5,33.5,0,0,0,.756-5.32,9.481,9.481,0,0,0-4.144,1.61,9.584,9.584,0,0,0-2.9,3.192,9.687,9.687,0,0,0-1.218,4.214,5.913,5.913,0,0,0,.574,3.038A3.8,3.8,0,0,0-184.072,55.576Zm42,6.58a4.887,4.887,0,0,0-.168-.91,7.641,7.641,0,0,0-.252-.8h2.576a1.206,1.206,0,0,0,.812-.224.97.97,0,0,0,.252-.756V56.892H-151v5.236h-1.764V48.1h15.68V59.86a2.331,2.331,0,0,1-.574,1.736,2.552,2.552,0,0,1-1.834.56Zm.532-15.428a2.975,2.975,0,0,1-1.862-.434,1.785,1.785,0,0,1-.518-1.442v-8.26h1.708v4.06q.784-.224,1.806-.574t2.086-.77q1.064-.42,2-.84a13.248,13.248,0,0,0,1.526-.784l1.12,1.316q-.756.392-1.834.84t-2.31.882q-1.232.434-2.38.8t-2.016.588v2.1a.9.9,0,0,0,.21.658,1.243,1.243,0,0,0,.854.21h4.9a3.357,3.357,0,0,0,1.3-.21,1.54,1.54,0,0,0,.77-.924,8.313,8.313,0,0,0,.392-2.254,3.792,3.792,0,0,0,.8.364q.49.168.854.308a8.778,8.778,0,0,1-.658,2.842,2.339,2.339,0,0,1-1.218,1.232,5.207,5.207,0,0,1-1.876.294Zm-7.448.336V44.8q-.672.168-1.736.406t-2.268.462q-1.2.224-2.324.42t-1.96.336l-.364-1.68q.9-.112,2.086-.308l2.45-.406q1.26-.21,2.352-.42t1.764-.35V41.3h-7.924V39.728h7.924V36.592h1.708V47.064ZM-151,55.436h12.152V53.224H-151Zm0-3.64h12.152V49.584H-151Zm37.38,10.3V52.412h-10.36V42.584h10.36V36.648h1.848v5.936h10.388v9.828h-10.388V62.1Zm1.848-11.452h8.54V44.292h-8.54Zm-10.332,0h8.484V44.292h-8.484Zm43.568,10.3a14.054,14.054,0,0,1-3.6-.42,5.827,5.827,0,0,1-2.506-1.274,2.858,2.858,0,0,1-.924-2.2,3.432,3.432,0,0,1,.826-2.2,8.835,8.835,0,0,1,2.212-1.89A20.94,20.94,0,0,1-79.464,51.4V51.04A3.147,3.147,0,0,0-80,48.912a2,2,0,0,0-1.456-.588,7.91,7.91,0,0,0-3.22.546,7.4,7.4,0,0,0-2.856,1.89q-.532.588-1.05,1.106t-1.022.994l-1.344-1.344a19.878,19.878,0,0,0,3.822-3.71,24.414,24.414,0,0,0,2.87-4.494q-1.876.112-3.416.14t-2.268,0l-.084-1.792q.868.084,2.66.084t3.864-.112a14.665,14.665,0,0,0,.658-2.1A8.659,8.659,0,0,0-82.6,37.6l1.848.112a11.812,11.812,0,0,1-.266,1.89q-.21.938-.518,1.918,2.24-.14,4.214-.364a20.667,20.667,0,0,0,2.982-.5l.168,1.708q-.784.168-2.072.322t-2.814.28q-1.526.126-3.122.238a20.439,20.439,0,0,1-1.246,2.324q-.742,1.2-1.554,2.268a6.271,6.271,0,0,1,1.876-.756,8.453,8.453,0,0,1,1.932-.252q3.276,0,3.444,3.948,1.736-.644,3.472-1.134t3.108-.8l.532,1.68a36.854,36.854,0,0,0-3.682.8,34.636,34.636,0,0,0-3.4,1.106V56.36h-1.764V53.084A13.5,13.5,0,0,0-82.6,54.96a2.727,2.727,0,0,0-1.2,1.96,1.858,1.858,0,0,0,1.4,1.736,10.223,10.223,0,0,0,3.724.56,20.052,20.052,0,0,0,2.842-.224,19.486,19.486,0,0,0,2.926-.644,1.9,1.9,0,0,0,.014.5q.042.364.1.728.028.224.042.378t.014.238a24.8,24.8,0,0,1-2.94.56A22.266,22.266,0,0,1-78.54,60.952Zm34.076,1.176V52.384h-5.964V37.8H-36.68V52.384h-6.076v9.744Zm-15.008-.112a6.731,6.731,0,0,0-.154-.924,3.891,3.891,0,0,0-.266-.84h2.184a1.206,1.206,0,0,0,.812-.224.97.97,0,0,0,.252-.756V52.188q-1.316.5-2.436.9t-1.512.532l-.5-1.876q.644-.168,1.876-.574t2.576-.854V44.488H-60.9v-1.68h4.256v-6.16h1.736v6.16h3.332v1.68h-3.332V49.7q1.12-.42,2.03-.784t1.33-.56v1.736q-.364.2-1.288.588t-2.072.84v8.2q0,2.3-2.492,2.3ZM-42.756,50.76h4.4V45.888h-4.4Zm0-6.5h4.4V39.42h-4.4Zm-5.964,6.5h4.256V45.888H-48.72Zm0-6.5h4.256V39.42H-48.72Zm27.86,17.024a4.619,4.619,0,0,0-.448-.686,4.781,4.781,0,0,0-.7-.742,11.7,11.7,0,0,0,4.956-2.716,6.8,6.8,0,0,0,2.016-4.116,3.723,3.723,0,0,1-1.232.98,3.458,3.458,0,0,1-1.568.364,3.589,3.589,0,0,1-2.716-1.05,3.7,3.7,0,0,1-1.036-2.59,3.886,3.886,0,0,1,.5-1.988,3.765,3.765,0,0,1,1.4-1.386,4.009,4.009,0,0,1,2.044-.518,4.055,4.055,0,0,1,1.568.28q-.084-.84-.168-1.736t-.084-1.82q-2.3.084-4.494.238t-4.06.35q-1.862.2-3.15.448l-.336-1.764q1.26-.112,3.15-.252t4.186-.266q2.3-.126,4.7-.238V37.544h1.736V42q3.108-.14,5.936-.21t4.62-.014l-.112,1.792q-1.792-.168-4.578-.182t-5.866.1q.028,1.2.1,2.492t.126,2.464a5.1,5.1,0,0,1,.784,1.6,7.028,7.028,0,0,1,.28,2.044,8.531,8.531,0,0,1-2.016,5.6A11.851,11.851,0,0,1-20.86,61.288Zm3.024-8.512a2.146,2.146,0,0,0,1.5-.546,1.853,1.853,0,0,0,.6-1.442,14.451,14.451,0,0,0-.084-1.54,2.326,2.326,0,0,0-1.82-.784,2.268,2.268,0,0,0-1.61.616,2.087,2.087,0,0,0-.658,1.6,2.242,2.242,0,0,0,.588,1.54A1.87,1.87,0,0,0-17.836,52.776Zm32.2,5.936a8.478,8.478,0,0,1-4.312-.966A5.857,5.857,0,0,1,7.588,54.4l1.68-.756a3.921,3.921,0,0,0,1.652,2.408,6.144,6.144,0,0,0,3.444.84q1.876,0,3.724-.168t3.444-.476a18.981,18.981,0,0,0,2.632-.672q0,.168.028.6a7.958,7.958,0,0,0,.1.84q.07.406.1.546a16.986,16.986,0,0,1-2.716.616q-1.624.252-3.514.392T14.364,58.712Zm-3.64-16.52-.056-1.848a10.5,10.5,0,0,0,2.338.448,26.966,26.966,0,0,0,3.066.112q1.624-.028,3.08-.2A13.209,13.209,0,0,0,21.5,40.26l.056,1.848a12.5,12.5,0,0,1-2.324.434q-1.428.154-3.024.182a29.436,29.436,0,0,1-3.052-.1A11.6,11.6,0,0,1,10.724,42.192ZM55.86,59.468q-2.38.42-4.676.6a27.308,27.308,0,0,1-4.27.028,12.4,12.4,0,0,1-3.472-.728A5.317,5.317,0,0,1,41.09,57.7a4.651,4.651,0,0,1-.028-5.334,8.659,8.659,0,0,1,2.3-2.142,20.746,20.746,0,0,1,3.374-1.792,12.281,12.281,0,0,1-1.148-4.13,51.206,51.206,0,0,1-.28-6.4H47.32a25.931,25.931,0,0,0-.14,3.64,24.283,24.283,0,0,0,.35,3.528,11.37,11.37,0,0,0,.8,2.744q1.4-.5,2.9-.952t3.038-.812l.5,1.876a31.918,31.918,0,0,0-4.9,1.12,23.8,23.8,0,0,0-4.046,1.666,10.8,10.8,0,0,0-2.758,2,3.157,3.157,0,0,0-1.008,2.156,2.683,2.683,0,0,0,1.148,2.31,6.893,6.893,0,0,0,3.136,1.092,20.643,20.643,0,0,0,4.522.042,42.158,42.158,0,0,0,5.334-.84,5.779,5.779,0,0,0-.238.994A6.417,6.417,0,0,0,55.86,59.468Zm14.756.7a3.336,3.336,0,0,0-.392-.294q-.308-.21-.616-.406a1.6,1.6,0,0,0-.448-.224,19.9,19.9,0,0,0,2.3-3.178,39.872,39.872,0,0,0,2.184-4.242q1.036-2.324,1.848-4.732-1.6.2-3.094.42T70,47.932a2.341,2.341,0,0,0-.1-.5q-.1-.364-.2-.742a3.106,3.106,0,0,0-.154-.49q1.064-.084,2.842-.294t3.6-.406q.56-1.9.924-3.682a22.81,22.81,0,0,0,.448-3.318l1.764.28A25.906,25.906,0,0,1,78.68,41.9q-.336,1.666-.868,3.43.728-.056,1.386-.1t1.134-.042a3.789,3.789,0,0,1,2.268.644,3.267,3.267,0,0,1,1.134,2.31,14.892,14.892,0,0,1-.406,4.774,15.675,15.675,0,0,1-1.75,5.1,3.435,3.435,0,0,1-3.094,1.652,6.043,6.043,0,0,1-1.5-.182,4.5,4.5,0,0,1-1.442-.686q.056-.392.084-.924A4.137,4.137,0,0,0,75.6,57a4.58,4.58,0,0,0,2.716.952,2.071,2.071,0,0,0,1.442-.518,4.245,4.245,0,0,0,1.008-1.694,25.718,25.718,0,0,0,.882-3.192,18.522,18.522,0,0,0,.462-3.094,4.07,4.07,0,0,0-.224-1.75,1.361,1.361,0,0,0-.756-.77,3.074,3.074,0,0,0-1.078-.182q-.532,0-1.232.042t-1.512.1a53.981,53.981,0,0,1-1.96,5.152A48.184,48.184,0,0,1,73.01,56.71,21.823,21.823,0,0,1,70.616,60.168Zm21.336-7.56a14.409,14.409,0,0,0-1.274-1.736q-.8-.952-1.708-1.89T87.164,47.26a13.809,13.809,0,0,0-1.6-1.232l1.26-1.176a17.4,17.4,0,0,1,1.694,1.316q.938.812,1.862,1.75t1.708,1.848a16.764,16.764,0,0,1,1.232,1.582ZM92.9,42.36a13.2,13.2,0,0,0-1.316-.9q-.784-.476-1.61-.882a14.876,14.876,0,0,0-1.442-.63l.672-1.036a10.145,10.145,0,0,1,1.442.644q.854.448,1.68.924a12.4,12.4,0,0,1,1.3.84Zm-1.568,2.576a10.512,10.512,0,0,0-1.288-.952q-.784-.5-1.582-.938a14.572,14.572,0,0,0-1.414-.686l.7-1.008a12.078,12.078,0,0,1,1.4.7q.84.476,1.666.98a12.048,12.048,0,0,1,1.274.868Zm27.692,15.512a11.107,11.107,0,0,1-4.76-1.624,9.56,9.56,0,0,1-3.248-3.388,9.031,9.031,0,0,1-1.176-4.536,9.7,9.7,0,0,1,.532-3.038,11.7,11.7,0,0,1,1.638-3.15,10.365,10.365,0,0,1,2.842-2.66q-1.792.308-3.71.658l-3.7.672q-1.778.322-3.192.6t-2.2.476l-.476-1.932q.924-.112,2.478-.336t3.486-.518q1.932-.294,3.99-.658t3.976-.714q1.918-.35,3.472-.672t2.478-.546l.476,1.82-.91.14q-.546.084-1.246.2a8.9,8.9,0,0,0-3.164,1.176,10.53,10.53,0,0,0-4.354,5.166,9.029,9.029,0,0,0-.63,3.318,6.744,6.744,0,0,0,1.148,3.948,7.991,7.991,0,0,0,3.052,2.6,12.746,12.746,0,0,0,4.172,1.232,4.126,4.126,0,0,0-.588.868A5.464,5.464,0,0,0,119.028,60.448Zm4.536-12.068a13.469,13.469,0,0,0-1.008-1.246q-.616-.686-1.288-1.316a13.645,13.645,0,0,0-1.2-1.022l.952-.812a14.592,14.592,0,0,1,1.176,1.036q.7.672,1.358,1.358a14.411,14.411,0,0,1,1.022,1.162ZM121.352,50.4a10.481,10.481,0,0,0-.966-1.288q-.6-.7-1.246-1.344a10.62,10.62,0,0,0-1.176-1.036l.952-.784a10.683,10.683,0,0,1,1.148,1.064q.672.7,1.316,1.414a13.549,13.549,0,0,1,.98,1.19Zm27.916,10.752a31.611,31.611,0,0,1-4.158-.1,12.2,12.2,0,0,1-3.36-.756A5.2,5.2,0,0,1,139.5,58.67a4.29,4.29,0,0,1-.812-2.7,3.2,3.2,0,0,1,.84-2.254,5.185,5.185,0,0,1,2.254-1.372,10.97,10.97,0,0,1,3.15-.5,16.523,16.523,0,0,1,3.5.294,22.026,22.026,0,0,1-1.484-1.918q-.728-1.05-1.4-2.2-1.876.336-3.738.588T138.348,49q-1.6.14-2.66.14l-.42-1.624a23.132,23.132,0,0,0,2.492-.1q1.512-.126,3.318-.378t3.626-.56q-.448-.9-.868-1.806t-.784-1.778q-1.792.252-3.514.406t-3.01.182l-.364-1.624q1.232,0,2.884-.14t3.416-.364q-.42-1.148-.7-2.128a14.775,14.775,0,0,1-.392-1.68l1.82-.224a16.891,16.891,0,0,0,.98,3.78q1.764-.28,3.29-.6a20.218,20.218,0,0,0,2.478-.658l.476,1.6a21.817,21.817,0,0,1-2.422.616q-1.5.308-3.234.588.364.868.784,1.75t.868,1.778q2.24-.42,4.074-.882a14.216,14.216,0,0,0,2.674-.882l.672,1.512a14.479,14.479,0,0,1-2.66.91q-1.764.462-3.892.882a31.062,31.062,0,0,0,2.03,2.954,15.714,15.714,0,0,0,2.2,2.338l-1.036,1.288a13.835,13.835,0,0,0-3.654-.952,10.979,10.979,0,0,0-3.206.07,5.277,5.277,0,0,0-2.268.91,1.919,1.919,0,0,0-.84,1.568,2.584,2.584,0,0,0,.742,1.932,4.639,4.639,0,0,0,2.03,1.092,13.955,13.955,0,0,0,2.968.462,34.59,34.59,0,0,0,3.556.014,3.491,3.491,0,0,0-.336.882Q149.324,60.812,149.268,61.148Zm18.648-.448a4.678,4.678,0,0,0-.868-.434,6.538,6.538,0,0,0-.9-.294,24.137,24.137,0,0,0,1.47-2.828q.77-1.708,1.554-3.78t1.526-4.312q.742-2.24,1.33-4.368-1.736.2-3.332.252t-2.66,0l-.056-1.82a22.079,22.079,0,0,0,2.968.1q1.736-.042,3.528-.238.392-1.568.658-2.954t.378-2.45l1.9.252q-.14.98-.42,2.24t-.644,2.66q1.4-.224,2.646-.518a16.332,16.332,0,0,0,2.114-.63l.392,1.708a16.553,16.553,0,0,1-2.394.644q-1.5.308-3.234.532-.616,2.212-1.358,4.536t-1.54,4.536q-.8,2.212-1.582,4.06A33.2,33.2,0,0,1,167.916,60.7Zm19.152-1.316a23.3,23.3,0,0,1-5.5.224,12.733,12.733,0,0,1-4.27-1.05,6.029,6.029,0,0,1-2.632-2.2l1.176-1.176a6.513,6.513,0,0,0,4.27,2.422,19.232,19.232,0,0,0,7.238-.126,4.483,4.483,0,0,0-.224.952A4.555,4.555,0,0,0,187.068,59.384Zm-.756-10.108a15.184,15.184,0,0,0-2.94-.672,32.778,32.778,0,0,0-3.276-.28,23.141,23.141,0,0,0-2.856.056l.224-1.82q.924-.056,2.17-.014t2.59.168q1.344.126,2.59.308a16.015,16.015,0,0,1,2.114.434ZM207.4,60.7a5.285,5.285,0,0,0-.154-.518q-.126-.378-.294-.756a2.613,2.613,0,0,0-.28-.518,13.536,13.536,0,0,0,6.8-1.33,4.183,4.183,0,0,0,2.324-3.766,2.734,2.734,0,0,0-1.288-2.506,5.955,5.955,0,0,0-3.192-.8,9.9,9.9,0,0,0-2.8.448,11.132,11.132,0,0,0-2.912,1.358,7.945,7.945,0,0,0-2.324,2.31l-1.568-.756a11.834,11.834,0,0,0,.938-2.422,28.262,28.262,0,0,0,.672-3.052q.266-1.61.378-3.038A17.559,17.559,0,0,0,203.756,43l1.9.2a22.133,22.133,0,0,1-.154,2.352q-.154,1.4-.448,2.954a29.442,29.442,0,0,1-.742,3.038,12.336,12.336,0,0,1,3.528-2.016,10.279,10.279,0,0,1,3.528-.7,7.17,7.17,0,0,1,4.62,1.372,4.436,4.436,0,0,1,1.708,3.64,5.626,5.626,0,0,1-2.548,4.844Q212.6,60.476,207.4,60.7Zm4.7-17.892a10.435,10.435,0,0,0-1.5-.98q-.91-.5-1.932-.98t-1.974-.826a11.378,11.378,0,0,0-1.652-.49l.9-1.624q.644.2,1.6.574t1.974.854q1.022.476,1.96.952t1.554.868ZM233.212,61.54a3.65,3.65,0,0,1-1.89-.5,3.865,3.865,0,0,1-1.372-1.372,3.777,3.777,0,0,1-.014-3.794,3.865,3.865,0,0,1,1.372-1.372,3.647,3.647,0,0,1,1.9-.518,3.574,3.574,0,0,1,1.89.518,3.9,3.9,0,0,1,1.358,1.372,3.65,3.65,0,0,1,.5,1.89,3.782,3.782,0,0,1-1.862,3.276A3.65,3.65,0,0,1,233.212,61.54Zm0-1.092a2.524,2.524,0,0,0,1.89-.8,2.7,2.7,0,0,0,0-3.78,2.524,2.524,0,0,0-1.89-.8,2.688,2.688,0,1,0,0,5.376Z" transform="translate(253.988 23.632)" fill="#4d2200"/>
</svg>
