<svg xmlns="http://www.w3.org/2000/svg" xmlns:xlink="http://www.w3.org/1999/xlink" width="200" height="140" viewBox="0 0 200 140">
  <defs>
    <clipPath id="clip-path">
      <rect id="長方形_631" data-name="長方形 631" width="200" height="140" transform="translate(88 4689)" fill="#fff" stroke="#707070" stroke-width="1"/>
    </clipPath>
    <filter id="パス_89294" x="-4.049" y="-10.939" width="215.222" height="162.568" filterUnits="userSpaceOnUse">
      <feOffset input="SourceAlpha"/>
      <feGaussianBlur stdDeviation="5" result="blur"/>
      <feFlood flood-opacity="0.161"/>
      <feComposite operator="in" in2="blur"/>
      <feComposite in="SourceGraphic"/>
    </filter>
  </defs>
  <g id="マスクグループ_97" data-name="マスクグループ 97" transform="translate(-88 -4689)" clip-path="url(#clip-path)">
    <g transform="matrix(1, 0, 0, 1, 88, 4689)" filter="url(#パス_89294)">
      <path id="パス_89294-2" data-name="パス 89294" d="M-67.363-10.2H-79.155l-2.066,4.807a7.61,7.61,0,0,0-.764,2.65,1.54,1.54,0,0,0,.663,1.224,5.789,5.789,0,0,0,2.864.685V0h-9.591V-.831a5.168,5.168,0,0,0,2.471-.876,13.759,13.759,0,0,0,2.538-4.38l10.714-25.066h.786l10.6,25.336a11.549,11.549,0,0,0,2.325,3.964A4.739,4.739,0,0,0-55.705-.831V0H-67.722V-.831a4.5,4.5,0,0,0,2.459-.606,1.564,1.564,0,0,0,.64-1.258,9.313,9.313,0,0,0-.9-3.122Zm-.629-1.662-5.166-12.309-5.3,12.309Zm27.16-9.321v4.627q2.583-4.627,5.3-4.627a2.883,2.883,0,0,1,2.044.752,2.314,2.314,0,0,1,.809,1.741,2.057,2.057,0,0,1-.584,1.482,1.867,1.867,0,0,1-1.393.606,2.967,2.967,0,0,1-1.763-.775,2.911,2.911,0,0,0-1.449-.775,1.337,1.337,0,0,0-.876.449,10.808,10.808,0,0,0-2.089,3.032v9.86A6.1,6.1,0,0,0-40.4-2.224a2.326,2.326,0,0,0,1.033,1.011,4.538,4.538,0,0,0,2.134.4V0H-47.772V-.809A4.374,4.374,0,0,0-45.436-1.3a1.918,1.918,0,0,0,.786-1.146,11.553,11.553,0,0,0,.112-2.179V-12.6a33.135,33.135,0,0,0-.146-4.279,1.675,1.675,0,0,0-.539-1,1.514,1.514,0,0,0-.977-.314,4.441,4.441,0,0,0-1.572.337L-48-18.665l6.222-2.516Zm22.173-6.154v6.761h4.807V-19h-4.807V-5.66a4.481,4.481,0,0,0,.573,2.7,1.819,1.819,0,0,0,1.471.7,2.573,2.573,0,0,0,1.438-.46A2.961,2.961,0,0,0-14.1-4.088h.876A7.047,7.047,0,0,1-15.446-.775,4.8,4.8,0,0,1-18.411.337a3.986,3.986,0,0,1-2.021-.573,3.462,3.462,0,0,1-1.46-1.64,8.608,8.608,0,0,1-.472-3.291V-19h-3.257v-.741a8.528,8.528,0,0,0,2.527-1.673,13.3,13.3,0,0,0,2.3-2.8,25.156,25.156,0,0,0,1.438-3.122Zm18.939-4.6a2.187,2.187,0,0,1,1.606.663,2.187,2.187,0,0,1,.663,1.606,2.224,2.224,0,0,1-.663,1.617,2.169,2.169,0,0,1-1.606.674,2.206,2.206,0,0,1-1.617-.674,2.206,2.206,0,0,1-.674-1.617,2.187,2.187,0,0,1,.663-1.606A2.214,2.214,0,0,1,.281-31.939ZM2.145-21.181V-4.649a7.572,7.572,0,0,0,.281,2.572,1.971,1.971,0,0,0,.831.955,4.448,4.448,0,0,0,2.01.314V0h-10V-.809A4.653,4.653,0,0,0-2.707-1.1a2,2,0,0,0,.82-.966,7.26,7.26,0,0,0,.3-2.583v-7.929a28.039,28.039,0,0,0-.2-4.335,1.762,1.762,0,0,0-.494-1,1.4,1.4,0,0,0-.921-.281,4.5,4.5,0,0,0-1.527.337l-.314-.809,6.2-2.516Zm25.879,0v7.008h-.741a9.105,9.105,0,0,0-2.19-4.492,4.925,4.925,0,0,0-3.4-1.19,3.755,3.755,0,0,0-2.538.831,2.411,2.411,0,0,0-.966,1.842,3.345,3.345,0,0,0,.719,2.156,7.993,7.993,0,0,0,2.83,1.954l3.279,1.595q4.56,2.224,4.56,5.862a5.538,5.538,0,0,1-2.123,4.526A7.36,7.36,0,0,1,22.7.629a16.339,16.339,0,0,1-4.312-.674A4.383,4.383,0,0,0,17.176-.27a.894.894,0,0,0-.809.584h-.741V-7.03h.741a8.36,8.36,0,0,0,2.4,4.739A5.8,5.8,0,0,0,22.746-.7a3.56,3.56,0,0,0,2.527-.91A2.886,2.886,0,0,0,26.25-3.8,3.484,3.484,0,0,0,25.161-6.4a19.027,19.027,0,0,0-4.346-2.673,12.877,12.877,0,0,1-4.268-2.92,5.059,5.059,0,0,1-1.011-3.234,5.705,5.705,0,0,1,1.741-4.245,6.159,6.159,0,0,1,4.5-1.707,10.584,10.584,0,0,1,2.942.517,6.95,6.95,0,0,0,1.527.337.894.894,0,0,0,.562-.157,2.156,2.156,0,0,0,.472-.7ZM51.186-2.965a33.91,33.91,0,0,1-3.976,2.83,6.074,6.074,0,0,1-2.583.562,4.629,4.629,0,0,1-3.515-1.46,5.359,5.359,0,0,1-1.381-3.841A4.892,4.892,0,0,1,40.4-7.479a8.922,8.922,0,0,1,3.2-2.875,49.8,49.8,0,0,1,7.581-3.279v-.809q0-3.077-.977-4.223a3.528,3.528,0,0,0-2.841-1.146,3.191,3.191,0,0,0-2.246.764,2.3,2.3,0,0,0-.854,1.752l.045,1.3a2.24,2.24,0,0,1-.528,1.595,1.808,1.808,0,0,1-1.381.562,1.748,1.748,0,0,1-1.359-.584,2.29,2.29,0,0,1-.528-1.595,4.6,4.6,0,0,1,1.977-3.549,8.535,8.535,0,0,1,5.548-1.617,9.623,9.623,0,0,1,4.492.921,4.234,4.234,0,0,1,1.954,2.179,12.276,12.276,0,0,1,.4,3.953v6.985A31.993,31.993,0,0,0,55-3.538a1.513,1.513,0,0,0,.371.887.88.88,0,0,0,.6.225,1.225,1.225,0,0,0,.629-.157,14.031,14.031,0,0,0,1.819-1.64v1.258Q55.9.4,53.612.4A2.185,2.185,0,0,1,51.86-.359,4.125,4.125,0,0,1,51.186-2.965Zm0-1.46v-7.839a44.351,44.351,0,0,0-4.38,1.909,7.564,7.564,0,0,0-2.538,2.066A3.994,3.994,0,0,0,43.5-5.93a3.848,3.848,0,0,0,.966,2.684,2.927,2.927,0,0,0,2.224,1.067Q48.4-2.179,51.186-4.425Zm21.657-12.4q3.616-4.357,6.9-4.357a4.952,4.952,0,0,1,2.9.842,5.642,5.642,0,0,1,1.932,2.774,12.832,12.832,0,0,1,.494,4.133v8.782A7.4,7.4,0,0,0,85.376-2a1.845,1.845,0,0,0,.8.876,4.519,4.519,0,0,0,2.033.314V0H78.032V-.809h.427a3.424,3.424,0,0,0,2.01-.438,2.3,2.3,0,0,0,.8-1.292,13.123,13.123,0,0,0,.09-2.111v-8.423a8.553,8.553,0,0,0-.73-4.077,2.607,2.607,0,0,0-2.459-1.269q-2.673,0-5.323,2.92V-4.649a7.754,7.754,0,0,0,.247,2.583,2.079,2.079,0,0,0,.865.955,5.354,5.354,0,0,0,2.235.3V0H66.015V-.809h.449a2.417,2.417,0,0,0,2.123-.8,5.818,5.818,0,0,0,.55-3.043v-7.637a33.192,33.192,0,0,0-.168-4.515,1.934,1.934,0,0,0-.517-1.1,1.4,1.4,0,0,0-.932-.292,4.317,4.317,0,0,0-1.5.337l-.337-.809,6.2-2.516h.966Zm-100.4,54a10.567,10.567,0,0,0,2.224,7.188,6.781,6.781,0,0,0,5.278,2.605,5.724,5.724,0,0,0,3.515-1.112,8.206,8.206,0,0,0,2.5-3.807l.7.449a10.71,10.71,0,0,1-2.74,5.6,7.317,7.317,0,0,1-5.683,2.527A8.3,8.3,0,0,1-28.1,47.743a11.056,11.056,0,0,1-2.639-7.76q0-5.278,2.707-8.232A8.827,8.827,0,0,1-21.241,28.8a7.6,7.6,0,0,1,5.683,2.28,8.359,8.359,0,0,1,2.224,6.1Zm0-1.3h9.523a8.8,8.8,0,0,0-.472-2.785,4.46,4.46,0,0,0-1.673-1.977,4.219,4.219,0,0,0-2.325-.719,4.633,4.633,0,0,0-3.335,1.449A6.286,6.286,0,0,0-27.553,35.872ZM9.6,28.819v7.008H8.861a9.105,9.105,0,0,0-2.19-4.492,4.925,4.925,0,0,0-3.4-1.19,3.755,3.755,0,0,0-2.538.831,2.411,2.411,0,0,0-.966,1.842,3.345,3.345,0,0,0,.719,2.156,7.993,7.993,0,0,0,2.83,1.954l3.279,1.595q4.56,2.224,4.56,5.862a5.538,5.538,0,0,1-2.123,4.526,7.36,7.36,0,0,1-4.75,1.718,16.339,16.339,0,0,1-4.312-.674,4.383,4.383,0,0,0-1.213-.225.894.894,0,0,0-.809.584H-2.8V42.97h.741a8.36,8.36,0,0,0,2.4,4.739A5.8,5.8,0,0,0,4.324,49.3a3.56,3.56,0,0,0,2.527-.91,2.886,2.886,0,0,0,.977-2.19A3.484,3.484,0,0,0,6.738,43.6a19.027,19.027,0,0,0-4.346-2.673,12.877,12.877,0,0,1-4.268-2.92,5.059,5.059,0,0,1-1.011-3.234,5.705,5.705,0,0,1,1.741-4.245,6.159,6.159,0,0,1,4.5-1.707,10.584,10.584,0,0,1,2.942.517,6.95,6.95,0,0,0,1.527.337.894.894,0,0,0,.562-.157,2.156,2.156,0,0,0,.472-.7Zm17.479-6.154v6.761h4.807V31H27.081V44.34a4.481,4.481,0,0,0,.573,2.7,1.819,1.819,0,0,0,1.471.7,2.573,2.573,0,0,0,1.438-.46,2.961,2.961,0,0,0,1.078-1.359h.876a7.047,7.047,0,0,1-2.224,3.313,4.8,4.8,0,0,1-2.965,1.112,3.986,3.986,0,0,1-2.021-.573,3.463,3.463,0,0,1-1.46-1.64,8.608,8.608,0,0,1-.472-3.291V31H20.118v-.741a8.528,8.528,0,0,0,2.527-1.673,13.3,13.3,0,0,0,2.3-2.8,25.156,25.156,0,0,0,1.438-3.122ZM-63.522,89.8H-75.314l-2.066,4.807a7.61,7.61,0,0,0-.764,2.65,1.54,1.54,0,0,0,.663,1.224,5.789,5.789,0,0,0,2.864.685V100h-9.591v-.831a5.168,5.168,0,0,0,2.471-.876,13.759,13.759,0,0,0,2.538-4.38l10.714-25.066h.786l10.6,25.336a11.549,11.549,0,0,0,2.325,3.964,4.739,4.739,0,0,0,2.909,1.022V100H-63.881v-.831a4.505,4.505,0,0,0,2.459-.606,1.564,1.564,0,0,0,.64-1.258,9.313,9.313,0,0,0-.9-3.122Zm-.629-1.662-5.166-12.309-5.3,12.309Zm27.16-9.321v4.627q2.583-4.627,5.3-4.627a2.883,2.883,0,0,1,2.044.752,2.314,2.314,0,0,1,.809,1.741,2.057,2.057,0,0,1-.584,1.482,1.867,1.867,0,0,1-1.393.606,2.967,2.967,0,0,1-1.763-.775,2.911,2.911,0,0,0-1.449-.775,1.337,1.337,0,0,0-.876.449,10.808,10.808,0,0,0-2.089,3.032v9.86a6.1,6.1,0,0,0,.427,2.583,2.326,2.326,0,0,0,1.033,1.011,4.538,4.538,0,0,0,2.134.4V100H-43.931v-.809A4.373,4.373,0,0,0-41.6,98.7a1.918,1.918,0,0,0,.786-1.146,11.553,11.553,0,0,0,.112-2.179V87.4a33.135,33.135,0,0,0-.146-4.279,1.675,1.675,0,0,0-.539-1,1.514,1.514,0,0,0-.977-.314,4.441,4.441,0,0,0-1.572.337l-.225-.809,6.222-2.516Zm22.173-6.154v6.761h4.807V81h-4.807V94.34a4.481,4.481,0,0,0,.573,2.7,1.819,1.819,0,0,0,1.471.7,2.573,2.573,0,0,0,1.438-.46,2.961,2.961,0,0,0,1.078-1.359h.876a7.047,7.047,0,0,1-2.224,3.313,4.8,4.8,0,0,1-2.965,1.112,3.986,3.986,0,0,1-2.021-.573,3.462,3.462,0,0,1-1.46-1.64,8.608,8.608,0,0,1-.472-3.291V81H-21.78v-.741a8.528,8.528,0,0,0,2.527-1.673,13.3,13.3,0,0,0,2.3-2.8,25.156,25.156,0,0,0,1.438-3.122Zm18.939-4.6a2.187,2.187,0,0,1,1.606.663,2.187,2.187,0,0,1,.663,1.606,2.224,2.224,0,0,1-.663,1.617,2.169,2.169,0,0,1-1.606.674A2.206,2.206,0,0,1,2.5,71.946a2.269,2.269,0,0,1,1.617-3.886ZM5.986,78.819V95.351a7.572,7.572,0,0,0,.281,2.572,1.971,1.971,0,0,0,.831.955,4.448,4.448,0,0,0,2.01.314V100h-10v-.809A4.653,4.653,0,0,0,1.134,98.9a2,2,0,0,0,.82-.966,7.26,7.26,0,0,0,.3-2.583V87.422a28.039,28.039,0,0,0-.2-4.335,1.762,1.762,0,0,0-.494-1,1.4,1.4,0,0,0-.921-.281,4.5,4.5,0,0,0-1.527.337l-.314-.809L5,78.819Zm25.879,0v7.008h-.741a9.105,9.105,0,0,0-2.19-4.492,4.925,4.925,0,0,0-3.4-1.19,3.755,3.755,0,0,0-2.538.831,2.411,2.411,0,0,0-.966,1.842,3.345,3.345,0,0,0,.719,2.156,7.993,7.993,0,0,0,2.83,1.954l3.279,1.595q4.56,2.224,4.56,5.862a5.538,5.538,0,0,1-2.123,4.526,7.36,7.36,0,0,1-4.75,1.718,16.339,16.339,0,0,1-4.312-.674,4.383,4.383,0,0,0-1.213-.225.894.894,0,0,0-.809.584h-.741V92.97h.741a8.36,8.36,0,0,0,2.4,4.739A5.8,5.8,0,0,0,26.587,99.3a3.56,3.56,0,0,0,2.527-.91,2.886,2.886,0,0,0,.977-2.19A3.484,3.484,0,0,0,29,93.6a19.027,19.027,0,0,0-4.346-2.673,12.877,12.877,0,0,1-4.268-2.92,5.059,5.059,0,0,1-1.011-3.234,5.705,5.705,0,0,1,1.741-4.245,6.159,6.159,0,0,1,4.5-1.707,10.584,10.584,0,0,1,2.942.517,6.95,6.95,0,0,0,1.527.337.894.894,0,0,0,.562-.157,2.156,2.156,0,0,0,.472-.7Zm17.479-6.154v6.761h4.807V81H49.344V94.34a4.481,4.481,0,0,0,.573,2.7,1.819,1.819,0,0,0,1.471.7,2.573,2.573,0,0,0,1.438-.46A2.961,2.961,0,0,0,53.9,95.912h.876a7.047,7.047,0,0,1-2.224,3.313,4.8,4.8,0,0,1-2.965,1.112,3.986,3.986,0,0,1-2.021-.573,3.462,3.462,0,0,1-1.46-1.64,8.608,8.608,0,0,1-.472-3.291V81H42.382v-.741a8.528,8.528,0,0,0,2.527-1.673,13.3,13.3,0,0,0,2.3-2.8,25.156,25.156,0,0,0,1.438-3.122Zm17.165,14.51a10.567,10.567,0,0,0,2.224,7.188,6.781,6.781,0,0,0,5.278,2.605,5.724,5.724,0,0,0,3.515-1.112,8.206,8.206,0,0,0,2.5-3.807l.7.449a10.71,10.71,0,0,1-2.74,5.6,7.317,7.317,0,0,1-5.683,2.527,8.3,8.3,0,0,1-6.345-2.886,11.056,11.056,0,0,1-2.639-7.76q0-5.278,2.707-8.232A8.827,8.827,0,0,1,72.821,78.8a7.6,7.6,0,0,1,5.683,2.28,8.359,8.359,0,0,1,2.224,6.1Zm0-1.3h9.523a8.8,8.8,0,0,0-.472-2.785,4.46,4.46,0,0,0-1.673-1.977,4.219,4.219,0,0,0-2.325-.719,4.633,4.633,0,0,0-3.335,1.449A6.286,6.286,0,0,0,66.509,85.872ZM94.68,95.643a2.392,2.392,0,0,1,1.774.73,2.5,2.5,0,1,1-4.268,1.763,2.392,2.392,0,0,1,.73-1.774A2.421,2.421,0,0,1,94.68,95.643Z" transform="translate(99 36)" fill="#fff"/>
    </g>
  </g>
</svg>
