<svg xmlns="http://www.w3.org/2000/svg" width="200" height="140"><defs><clipPath id="a"><path data-name="長方形 631" transform="translate(88 4689)" fill="#fff" stroke="#707070" d="M0 0h200v140H0z"/></clipPath><filter id="b" x="-4.049" y="-10.939" width="215.222" height="162.568" filterUnits="userSpaceOnUse"><feOffset/><feGaussianBlur stdDeviation="5" result="blur"/><feFlood flood-opacity=".161"/><feComposite operator="in" in2="blur"/><feComposite in="SourceGraphic"/></filter></defs><g data-name="マスクグループ 97" transform="translate(-88 -4689)" clip-path="url(#a)"><g transform="translate(88 4689)" filter="url(#b)"><path data-name="パス 89294" d="M31.637 25.8H19.845l-2.066 4.807a7.61 7.61 0 00-.764 2.65 1.54 1.54 0 00.663 1.224 5.789 5.789 0 002.864.685V36h-9.591v-.831a5.168 5.168 0 002.471-.876 13.759 13.759 0 002.538-4.38L26.674 4.847h.786l10.6 25.336a11.549 11.549 0 002.325 3.964 4.739 4.739 0 002.91 1.022V36H31.278v-.831a4.5 4.5 0 002.459-.606 1.564 1.564 0 00.64-1.258 9.313 9.313 0 00-.9-3.122zm-.629-1.662l-5.166-12.309-5.3 12.309zm27.16-9.321v4.627q2.583-4.627 5.3-4.627a2.883 2.883 0 012.044.752 2.314 2.314 0 01.809 1.741 2.057 2.057 0 01-.584 1.482 1.867 1.867 0 01-1.393.606 2.967 2.967 0 01-1.763-.775 2.911 2.911 0 00-1.449-.775 1.337 1.337 0 00-.876.449 10.808 10.808 0 00-2.089 3.032v9.86a6.1 6.1 0 00.433 2.587 2.326 2.326 0 001.033 1.011 4.538 4.538 0 002.134.4V36H51.228v-.809a4.374 4.374 0 002.336-.491 1.918 1.918 0 00.786-1.146 11.553 11.553 0 00.112-2.179V23.4a33.135 33.135 0 00-.146-4.279 1.675 1.675 0 00-.539-1 1.514 1.514 0 00-.977-.314 4.441 4.441 0 00-1.572.337L51 17.335l6.222-2.516zm22.173-6.154v6.761h4.807V17h-4.807v13.34a4.481 4.481 0 00.573 2.7 1.819 1.819 0 001.471.7 2.573 2.573 0 001.438-.46 2.961 2.961 0 001.077-1.368h.876a7.047 7.047 0 01-2.222 3.313 4.8 4.8 0 01-2.965 1.112 3.986 3.986 0 01-2.021-.573 3.462 3.462 0 01-1.46-1.64 8.608 8.608 0 01-.472-3.291V17h-3.257v-.741a8.528 8.528 0 002.527-1.673 13.3 13.3 0 002.3-2.8 25.156 25.156 0 001.438-3.122zm18.939-4.6a2.187 2.187 0 011.606.663 2.187 2.187 0 01.663 1.606 2.224 2.224 0 01-.663 1.617 2.169 2.169 0 01-1.606.674 2.206 2.206 0 01-1.617-.674 2.206 2.206 0 01-.674-1.617 2.187 2.187 0 01.663-1.606 2.214 2.214 0 011.629-.665zm1.865 10.756v16.532a7.572 7.572 0 00.281 2.572 1.971 1.971 0 00.831.955 4.448 4.448 0 002.01.314V36h-10v-.809a4.653 4.653 0 002.026-.291 2 2 0 00.82-.966 7.26 7.26 0 00.3-2.583v-7.929a28.039 28.039 0 00-.2-4.335 1.762 1.762 0 00-.494-1 1.4 1.4 0 00-.921-.281 4.5 4.5 0 00-1.527.337l-.314-.809 6.2-2.516zm25.879 0v7.008h-.741a9.105 9.105 0 00-2.19-4.492 4.925 4.925 0 00-3.4-1.19 3.755 3.755 0 00-2.538.831 2.411 2.411 0 00-.966 1.842 3.345 3.345 0 00.719 2.156 7.993 7.993 0 002.83 1.954l3.279 1.595q4.56 2.224 4.56 5.862a5.538 5.538 0 01-2.123 4.526 7.36 7.36 0 01-4.754 1.718 16.339 16.339 0 01-4.312-.674 4.383 4.383 0 00-1.212-.225.894.894 0 00-.809.584h-.741V28.97h.741a8.36 8.36 0 002.4 4.739 5.8 5.8 0 003.979 1.591 3.56 3.56 0 002.527-.91 2.886 2.886 0 00.977-2.19 3.484 3.484 0 00-1.089-2.6 19.027 19.027 0 00-4.346-2.673 12.877 12.877 0 01-4.268-2.92 5.059 5.059 0 01-1.011-3.234 5.705 5.705 0 011.741-4.245 6.159 6.159 0 014.5-1.707 10.584 10.584 0 012.942.517 6.95 6.95 0 001.527.337.894.894 0 00.562-.157 2.156 2.156 0 00.472-.7zm23.162 18.216a33.91 33.91 0 01-3.976 2.83 6.074 6.074 0 01-2.583.562 4.629 4.629 0 01-3.515-1.46 5.359 5.359 0 01-1.381-3.841 4.892 4.892 0 01.669-2.605 8.922 8.922 0 013.2-2.875 49.8 49.8 0 017.581-3.279v-.809q0-3.077-.977-4.223a3.528 3.528 0 00-2.841-1.146 3.191 3.191 0 00-2.246.764 2.3 2.3 0 00-.854 1.752l.045 1.3a2.24 2.24 0 01-.528 1.595 1.808 1.808 0 01-1.381.562 1.748 1.748 0 01-1.359-.584 2.29 2.29 0 01-.528-1.595 4.6 4.6 0 011.977-3.549 8.535 8.535 0 015.548-1.617 9.623 9.623 0 014.492.921 4.234 4.234 0 011.954 2.179 12.276 12.276 0 01.4 3.953v6.985a31.993 31.993 0 00.117 3.607 1.513 1.513 0 00.371.887.88.88 0 00.6.225 1.225 1.225 0 00.629-.157 14.031 14.031 0 001.819-1.64v1.258Q154.9 36.4 152.612 36.4a2.185 2.185 0 01-1.752-.759 4.125 4.125 0 01-.674-2.606zm0-1.46v-7.839a44.351 44.351 0 00-4.38 1.909 7.564 7.564 0 00-2.538 2.066 3.994 3.994 0 00-.768 2.359 3.848 3.848 0 00.966 2.684 2.927 2.927 0 002.224 1.067q1.71 0 4.496-2.246zm21.657-12.4q3.616-4.357 6.9-4.357a4.952 4.952 0 012.9.842 5.642 5.642 0 011.932 2.774 12.832 12.832 0 01.494 4.133v8.782a7.4 7.4 0 00.307 2.651 1.845 1.845 0 00.8.876 4.519 4.519 0 002.033.314V36h-10.177v-.809h.427a3.424 3.424 0 002.01-.438 2.3 2.3 0 00.8-1.292 13.123 13.123 0 00.09-2.111v-8.423a8.553 8.553 0 00-.73-4.077 2.607 2.607 0 00-2.459-1.269q-2.673 0-5.323 2.92v10.85a7.754 7.754 0 00.247 2.583 2.079 2.079 0 00.865.955 5.354 5.354 0 002.235.3V36h-10.179v-.809h.449a2.417 2.417 0 002.123-.8 5.818 5.818 0 00.55-3.043v-7.637a33.192 33.192 0 00-.168-4.515 1.934 1.934 0 00-.517-1.1 1.4 1.4 0 00-.932-.292 4.317 4.317 0 00-1.5.337l-.337-.809 6.2-2.516h.966zm-100.4 54a10.567 10.567 0 002.224 7.188 6.781 6.781 0 005.278 2.605 5.724 5.724 0 003.515-1.112 8.206 8.206 0 002.5-3.807l.7.449a10.71 10.71 0 01-2.74 5.6 7.317 7.317 0 01-5.683 2.527 8.3 8.3 0 01-6.337-2.882 11.056 11.056 0 01-2.639-7.76q0-5.278 2.707-8.232a8.827 8.827 0 016.791-2.951 7.6 7.6 0 015.683 2.28 8.359 8.359 0 012.224 6.1zm0-1.3h9.523a8.8 8.8 0 00-.472-2.785 4.46 4.46 0 00-1.673-1.977 4.219 4.219 0 00-2.325-.719 4.633 4.633 0 00-3.335 1.449 6.286 6.286 0 00-1.714 4.029zm37.157-7.056v7.008h-.739a9.105 9.105 0 00-2.19-4.492 4.925 4.925 0 00-3.4-1.19 3.755 3.755 0 00-2.538.831 2.411 2.411 0 00-.966 1.842 3.345 3.345 0 00.719 2.156 7.993 7.993 0 002.83 1.954l3.279 1.595q4.56 2.224 4.56 5.862a5.538 5.538 0 01-2.123 4.526 7.36 7.36 0 01-4.75 1.718 16.339 16.339 0 01-4.312-.674 4.383 4.383 0 00-1.213-.225.894.894 0 00-.809.584H96.2V78.97h.741a8.36 8.36 0 002.4 4.739 5.8 5.8 0 003.983 1.591 3.56 3.56 0 002.527-.91 2.886 2.886 0 00.977-2.19 3.484 3.484 0 00-1.09-2.6 19.027 19.027 0 00-4.346-2.673 12.877 12.877 0 01-4.268-2.92 5.059 5.059 0 01-1.011-3.234 5.705 5.705 0 011.741-4.245 6.159 6.159 0 014.5-1.707 10.584 10.584 0 012.942.517 6.95 6.95 0 001.527.337.894.894 0 00.562-.157 2.156 2.156 0 00.472-.7zm17.479-6.154v6.761h4.807V67h-4.805v13.34a4.481 4.481 0 00.573 2.7 1.819 1.819 0 001.471.7 2.573 2.573 0 001.438-.46 2.961 2.961 0 001.078-1.359h.876a7.047 7.047 0 01-2.224 3.313 4.8 4.8 0 01-2.965 1.112 3.986 3.986 0 01-2.021-.573 3.463 3.463 0 01-1.46-1.64 8.608 8.608 0 01-.472-3.291V67h-3.257v-.741a8.528 8.528 0 002.527-1.673 13.3 13.3 0 002.3-2.8 25.156 25.156 0 001.438-3.122zM35.478 125.8H23.686l-2.066 4.807a7.61 7.61 0 00-.764 2.65 1.54 1.54 0 00.663 1.224 5.789 5.789 0 002.864.685V136h-9.591v-.831a5.168 5.168 0 002.471-.876 13.759 13.759 0 002.538-4.38l10.714-25.066h.786l10.6 25.336a11.549 11.549 0 002.325 3.964 4.739 4.739 0 002.909 1.022V136H35.119v-.831a4.505 4.505 0 002.459-.606 1.564 1.564 0 00.64-1.258 9.313 9.313 0 00-.9-3.122zm-.629-1.662l-5.166-12.309-5.3 12.309zm27.16-9.321v4.627q2.583-4.627 5.3-4.627a2.883 2.883 0 012.044.752 2.314 2.314 0 01.809 1.741 2.057 2.057 0 01-.584 1.482 1.867 1.867 0 01-1.393.606 2.967 2.967 0 01-1.763-.775 2.911 2.911 0 00-1.449-.775 1.337 1.337 0 00-.876.449 10.808 10.808 0 00-2.089 3.032v9.86a6.1 6.1 0 00.427 2.583 2.326 2.326 0 001.033 1.011 4.538 4.538 0 002.134.4V136H55.069v-.809a4.373 4.373 0 002.331-.491 1.918 1.918 0 00.786-1.146 11.553 11.553 0 00.112-2.179V123.4a33.135 33.135 0 00-.146-4.279 1.675 1.675 0 00-.539-1 1.514 1.514 0 00-.977-.314 4.441 4.441 0 00-1.572.337l-.225-.809 6.222-2.516zm22.173-6.154v6.761h4.807V117h-4.807v13.34a4.481 4.481 0 00.573 2.7 1.819 1.819 0 001.471.7 2.573 2.573 0 001.438-.46 2.961 2.961 0 001.078-1.359h.876a7.047 7.047 0 01-2.224 3.313 4.8 4.8 0 01-2.965 1.112 3.986 3.986 0 01-2.021-.573 3.462 3.462 0 01-1.46-1.64 8.608 8.608 0 01-.472-3.291V117H77.22v-.741a8.528 8.528 0 002.527-1.673 13.3 13.3 0 002.3-2.8 25.156 25.156 0 001.438-3.122zm18.939-4.6a2.187 2.187 0 011.606.663 2.187 2.187 0 01.663 1.606 2.224 2.224 0 01-.663 1.617 2.169 2.169 0 01-1.606.674 2.206 2.206 0 01-1.621-.677 2.269 2.269 0 011.617-3.886zm1.865 10.756v16.532a7.572 7.572 0 00.281 2.572 1.971 1.971 0 00.831.955 4.448 4.448 0 002.01.314V136h-10v-.809a4.653 4.653 0 002.026-.291 2 2 0 00.82-.966 7.26 7.26 0 00.3-2.583v-7.929a28.039 28.039 0 00-.2-4.335 1.762 1.762 0 00-.494-1 1.4 1.4 0 00-.921-.281 4.5 4.5 0 00-1.527.337l-.314-.809 6.202-2.515zm25.879 0v7.008h-.741a9.105 9.105 0 00-2.19-4.492 4.925 4.925 0 00-3.4-1.19 3.755 3.755 0 00-2.538.831 2.411 2.411 0 00-.966 1.842 3.345 3.345 0 00.719 2.156 7.993 7.993 0 002.83 1.954l3.279 1.595q4.56 2.224 4.56 5.862a5.538 5.538 0 01-2.123 4.526 7.36 7.36 0 01-4.75 1.718 16.339 16.339 0 01-4.312-.674 4.383 4.383 0 00-1.213-.225.894.894 0 00-.809.584h-.741v-7.344h.741a8.36 8.36 0 002.4 4.739 5.8 5.8 0 003.976 1.591 3.56 3.56 0 002.527-.91 2.886 2.886 0 00.977-2.19 3.484 3.484 0 00-1.091-2.6 19.027 19.027 0 00-4.346-2.673 12.877 12.877 0 01-4.268-2.92 5.059 5.059 0 01-1.011-3.234 5.705 5.705 0 011.741-4.245 6.159 6.159 0 014.5-1.707 10.584 10.584 0 012.942.517 6.95 6.95 0 001.527.337.894.894 0 00.562-.157 2.156 2.156 0 00.472-.7zm17.479-6.154v6.761h4.807V117h-4.807v13.34a4.481 4.481 0 00.573 2.7 1.819 1.819 0 001.471.7 2.573 2.573 0 001.438-.46 2.961 2.961 0 001.074-1.368h.876a7.047 7.047 0 01-2.224 3.313 4.8 4.8 0 01-2.965 1.112 3.986 3.986 0 01-2.021-.573 3.462 3.462 0 01-1.46-1.64 8.608 8.608 0 01-.472-3.291V117h-3.252v-.741a8.528 8.528 0 002.527-1.673 13.3 13.3 0 002.3-2.8 25.156 25.156 0 001.438-3.122zm17.165 14.51a10.567 10.567 0 002.224 7.188 6.781 6.781 0 005.278 2.605 5.724 5.724 0 003.515-1.112 8.206 8.206 0 002.5-3.807l.7.449a10.71 10.71 0 01-2.74 5.6 7.317 7.317 0 01-5.683 2.527 8.3 8.3 0 01-6.345-2.886 11.056 11.056 0 01-2.639-7.76q0-5.278 2.707-8.232a8.827 8.827 0 016.795-2.947 7.6 7.6 0 015.683 2.28 8.359 8.359 0 012.224 6.1zm0-1.3h9.523a8.8 8.8 0 00-.472-2.785 4.46 4.46 0 00-1.673-1.977 4.219 4.219 0 00-2.325-.719 4.633 4.633 0 00-3.335 1.449 6.286 6.286 0 00-1.718 4.029zm28.171 9.768a2.392 2.392 0 011.774.73 2.5 2.5 0 11-4.268 1.763 2.392 2.392 0 01.73-1.774 2.421 2.421 0 011.764-.719z" fill="#fff"/></g></g></svg>