<svg xmlns="http://www.w3.org/2000/svg" width="234.14" height="98.4"><path data-name="パス 89448" d="M1.38 17.38a3.341 3.341 0 00-.62-.31 4.67 4.67 0 00-.64-.21 17.24 17.24 0 001.05-2.02q.55-1.22 1.11-2.7t1.09-3.08q.53-1.6.95-3.12-1.24.14-2.38.18t-1.9 0L0 4.82a15.771 15.771 0 002.12.07q1.24-.03 2.52-.17.28-1.12.47-2.11T5.38.86l1.36.18q-.1.7-.3 1.6t-.46 1.9q1-.16 1.89-.37a11.666 11.666 0 001.51-.45l.28 1.22a11.823 11.823 0 01-1.71.46q-1.07.22-2.31.38-.44 1.58-.97 3.24t-1.1 3.24q-.57 1.58-1.13 2.9a23.712 23.712 0 01-1.06 2.22zm13.68-.94a16.644 16.644 0 01-3.93.16 9.1 9.1 0 01-3.05-.75 4.306 4.306 0 01-1.88-1.57l.84-.84a4.652 4.652 0 003.05 1.73 13.737 13.737 0 005.17-.09 3.2 3.2 0 00-.16.68 3.253 3.253 0 00-.04.68zm-.54-7.22a10.846 10.846 0 00-2.1-.48 23.412 23.412 0 00-2.34-.2 16.53 16.53 0 00-2.04.04l.16-1.3q.66-.04 1.55-.01t1.85.12q.96.09 1.85.22a11.439 11.439 0 011.51.31zm21.82 7.28q-1.7.3-3.34.43a19.506 19.506 0 01-3.05.02 8.855 8.855 0 01-2.48-.52 3.8 3.8 0 01-1.68-1.19 3.117 3.117 0 01-.61-1.98 3.089 3.089 0 01.59-1.83 6.185 6.185 0 011.64-1.53 14.818 14.818 0 012.41-1.28A8.772 8.772 0 0129 5.67a36.575 36.575 0 01-.2-4.57h1.44a18.523 18.523 0 00-.1 2.6 17.345 17.345 0 00.25 2.52 8.122 8.122 0 00.57 1.96q1-.36 2.07-.68t2.17-.58l.36 1.34a22.8 22.8 0 00-3.5.8 17 17 0 00-2.89 1.19 7.715 7.715 0 00-1.97 1.43 2.255 2.255 0 00-.72 1.54 1.917 1.917 0 00.82 1.65 4.924 4.924 0 002.24.78 14.745 14.745 0 003.23.03 30.113 30.113 0 003.81-.6 4.128 4.128 0 00-.17.71 4.583 4.583 0 00-.07.71zm11.94.84l-1.06-.8q.48-.48 1.26-1.37t1.72-2q.94-1.11 1.89-2.26t1.76-2.18q.81-1.03 1.33-1.71-.74.14-1.66.28t-1.84.26q-.92.12-1.69.21t-1.21.13l-.22-1.24q.44 0 1.18-.06t1.64-.16q.9-.1 1.84-.24T55 5.91q.84-.15 1.44-.31l.92.84a10.36 10.36 0 00-.74.81q-.52.61-1.18 1.43t-1.34 1.68a1.149 1.149 0 01.61-.05 1.991 1.991 0 01.63.17 1.742 1.742 0 01.8.85 4.586 4.586 0 01.2 1.93 6.522 6.522 0 00.14 1.9 1.052 1.052 0 00.63.76 3.56 3.56 0 001.17.16q.46 0 1.1-.05t1.29-.14q.65-.09 1.09-.19a3.211 3.211 0 00-.08.65 5.5 5.5 0 000 .67q-.92.14-1.9.23t-1.66.09a4.532 4.532 0 01-1.79-.3 1.763 1.763 0 01-.97-1.1 6.2 6.2 0 01-.2-2.28 6.221 6.221 0 00-.09-1.6 1 1 0 00-.59-.72 1.263 1.263 0 00-.79-.07 1.5 1.5 0 00-.83.59q-.94 1.14-1.84 2.22t-1.62 1.94q-.72.86-1.12 1.32zM56.5 3.8q-.38-.1-1.08-.35t-1.48-.55q-.78-.3-1.44-.59a6.772 6.772 0 01-.96-.49l.6-1.06a8.056 8.056 0 00.87.43q.61.27 1.36.56t1.44.53q.69.24 1.09.34zm20.54 13.04a3.157 3.157 0 01-2.09-.7 1.975 1.975 0 01-.71-1.56 1.877 1.877 0 01.38-1.11 2.669 2.669 0 011.13-.86 4.536 4.536 0 011.83-.33 9.664 9.664 0 011.86.18l-.1-2.42q-.06-1.44-.1-3.28-1.36.08-2.65.11t-2.17-.01l-.1-1.34a18.5 18.5 0 002.15.1q1.33 0 2.75-.08-.02-.88-.03-1.84t-.01-1.98h1.26q-.02.66-.01 1.3t.01 1.26v1.16q1.3-.1 2.38-.23a12.422 12.422 0 001.6-.27v1.3a16.326 16.326 0 01-1.62.23q-1.06.11-2.34.21.04 1.96.11 3.53t.11 2.59a14.532 14.532 0 014.34 2.38 1.685 1.685 0 00-.26.31q-.18.25-.34.49a2.275 2.275 0 00-.2.34 14.213 14.213 0 00-1.78-1.37 11.771 11.771 0 00-1.7-.91v.22a2.144 2.144 0 01-1.02 1.98 4.992 4.992 0 01-2.68.6zm-6.86.38a16.081 16.081 0 01-.22-1.91q-.08-1.19-.11-2.64t0-3.01q.03-1.56.11-3.04t.21-2.73a18.224 18.224 0 01.31-2.05l1.26.3a13.851 13.851 0 00-.34 1.92q-.14 1.18-.23 2.61t-.11 2.94q-.02 1.51.02 2.93t.13 2.58a17.192 17.192 0 00.23 1.88zm6.94-1.54a3.538 3.538 0 001.76-.36 1.24 1.24 0 00.62-1.16q0-.1-.01-.22t-.01-.3a6.9 6.9 0 00-.96-.17q-.48-.05-.98-.07a2.6 2.6 0 00-1.57.36 1.119 1.119 0 00-.55.84.931.931 0 00.43.76 2.111 2.111 0 001.27.32zm8.4-12.76a11.955 11.955 0 00-1.13-1.26A9.739 9.739 0 0083.12.58L83.8 0a6.638 6.638 0 01.82.67q.46.43.9.88a8.944 8.944 0 01.7.79zM83.98 4.4a11.793 11.793 0 00-1.08-1.3 9.025 9.025 0 00-1.24-1.12l.68-.56a8.943 8.943 0 01.79.7q.45.44.88.9t.69.8zM95.1 17.82a8.538 8.538 0 00-.99-1.31q-.65-.73-1.36-1.42a13.514 13.514 0 00-1.27-1.11l.88-.8a15.155 15.155 0 011.34 1.13q.74.69 1.41 1.4a12.483 12.483 0 011.03 1.21zm27.2.5V14.4h-3.94v-1.22h3.94V6.76a20.831 20.831 0 01-2.15 2.93 29.675 29.675 0 01-2.77 2.8 23.481 23.481 0 01-2.96 2.25 2.042 2.042 0 00-.25-.3q-.19-.2-.4-.39a2.363 2.363 0 00-.31-.25 16.857 16.857 0 002.42-1.64 24.977 24.977 0 002.33-2.13 29.313 29.313 0 002.03-2.33 18.536 18.536 0 001.52-2.24h-7.42v-1.2h7.96v-4h1.26v4h7.98v1.2h-7.42a18.286 18.286 0 001.6 2.34 23.356 23.356 0 002.06 2.26 27.071 27.071 0 002.32 2 19.861 19.861 0 002.38 1.58q-.08.06-.3.27t-.42.44q-.2.23-.28.33a26.035 26.035 0 01-3.06-2.32 26.541 26.541 0 01-2.72-2.76 23.085 23.085 0 01-2.14-2.94v6.52h4.06v1.22h-4.06v3.92zm24.98-1.78a2.829 2.829 0 00-.32-.64 3.409 3.409 0 00-.44-.58 7.809 7.809 0 003.02-1.06 6.118 6.118 0 002-1.96 5.072 5.072 0 00.78-2.48 5.854 5.854 0 00-.33-2.31 5.515 5.515 0 00-1.14-1.88 5.723 5.723 0 00-1.76-1.29 5.689 5.689 0 00-2.17-.54h-.28a24.82 24.82 0 01-.58 4.06 21.234 21.234 0 01-1.19 3.71 10.01 10.01 0 01-1.73 2.79 2.291 2.291 0 01-1.22.77 2.315 2.315 0 01-1.34-.15 3.2 3.2 0 01-1.24-.96 4.919 4.919 0 01-.87-1.65 5.87 5.87 0 01-.25-2.11 7.78 7.78 0 01.79-3.13 7.979 7.979 0 011.91-2.48 8.4 8.4 0 012.75-1.6 8.379 8.379 0 013.31-.45 6.811 6.811 0 012.56.62 7.334 7.334 0 012.17 1.52 6.58 6.58 0 011.46 2.27 6.92 6.92 0 01.43 2.89 6.436 6.436 0 01-1.77 4.22 8.691 8.691 0 01-4.55 2.42zm-6.32-2.82a1.323 1.323 0 00.6.11 1 1 0 00.68-.37 8.493 8.493 0 001.5-2.41 18.688 18.688 0 001.08-3.37 23.932 23.932 0 00.54-3.8 6.772 6.772 0 00-2.96 1.15 6.846 6.846 0 00-2.07 2.28 6.919 6.919 0 00-.87 3.01 4.224 4.224 0 00.41 2.17 2.717 2.717 0 001.09 1.23zm24.86 3.62a3.945 3.945 0 01-1.7-.4 2.579 2.579 0 01-1.02-.91 2.155 2.155 0 01-.34-1.15 2.113 2.113 0 01.45-1.23 3.048 3.048 0 011.27-.93 4.958 4.958 0 012.04-.34 8.508 8.508 0 01.92.05q.46.05.94.13-.06-1.26-.17-2.78t-.22-3.09q-.11-1.57-.18-2.96t-.07-2.35h1.34q-.02.8.01 1.87t.09 2.25q.78-.04 1.77-.17t1.96-.33a15.849 15.849 0 001.65-.42q0 .08.03.35l.06.54a3.42 3.42 0 00.05.35 16.343 16.343 0 01-1.68.38q-1 .18-2.02.3t-1.76.18q.1 1.68.22 3.32t.2 2.86a18.536 18.536 0 015.52 2.64 1.337 1.337 0 00-.29.31q-.19.25-.36.49a2.042 2.042 0 00-.21.34 14.024 14.024 0 00-2.23-1.52 14.474 14.474 0 00-2.37-1.04q0 .18.01.32t.01.26a2.406 2.406 0 01-.98 1.96 4.435 4.435 0 01-2.94.72zm.02-1.24a3.97 3.97 0 001.88-.32 1.193 1.193 0 00.74-1.14q0-.2-.01-.42t-.01-.48q-.52-.1-1.03-.16a8.638 8.638 0 00-1.01-.06 3.217 3.217 0 00-1.79.41 1.144 1.144 0 00-.61.93 1.008 1.008 0 00.44.82 2.329 2.329 0 001.4.42zm25.42 2.04a3.107 3.107 0 00-.58-.43 2.831 2.831 0 00-.66-.31 10.6 10.6 0 002.38-2.14 10.766 10.766 0 001.69-2.83 8.448 8.448 0 00.63-3.21 2.43 2.43 0 00-.67-1.9 2.33 2.33 0 00-1.61-.6 7.806 7.806 0 00-1.83.24 11.366 11.366 0 00-1.9.64 8.557 8.557 0 00-1.55.86 2.987 2.987 0 00-.34-.6 3.212 3.212 0 00-.46-.56 18.388 18.388 0 011.82-.84 16.35 16.35 0 012.16-.7 8.681 8.681 0 012.1-.28 3.757 3.757 0 011.79.43 3.277 3.277 0 011.3 1.26 3.972 3.972 0 01.49 2.05 9.832 9.832 0 01-.63 3.48 11.953 11.953 0 01-1.7 3.08 11.145 11.145 0 01-2.43 2.36zm3.08-14.7q-.38-.1-1.09-.33t-1.53-.53q-.82-.3-1.53-.6t-1.07-.5l.62-1.1a9.748 9.748 0 00.97.45q.65.27 1.43.56t1.49.52q.71.23 1.13.33zm13.98 13.26q-.12-.72-.2-1.83t-.1-2.45q-.02-1.34.01-2.77t.11-2.79q.08-1.36.22-2.52t.32-1.96l1.24.26a16 16 0 00-.32 1.84q-.14 1.12-.22 2.45t-.11 2.73q-.03 1.4-.01 2.7t.1 2.37a17.245 17.245 0 00.2 1.73zm7.26-1.26a4.4 4.4 0 01-1.71-.47 2.078 2.078 0 01-.95-1.05 3.6 3.6 0 01-.1-2.6l1.16.32a2.732 2.732 0 00-.13.96 1.893 1.893 0 00.21.76 2.14 2.14 0 001.74.8 12.456 12.456 0 002.08.03q1.16-.07 2.29-.25a12.208 12.208 0 001.91-.44 3.739 3.739 0 00-.04.39q-.02.29-.03.58t-.01.41a17.465 17.465 0 01-3.33.57 17.575 17.575 0 01-3.09-.01zm-2.2-9.7l-.1-1.32a16.086 16.086 0 001.74.08q1.02 0 2.15-.06t2.18-.17a14.542 14.542 0 001.81-.29l-.04 1.3q-.76.14-1.79.25t-2.12.17q-1.09.06-2.1.07t-1.73-.03zm19.72 12.08a8.538 8.538 0 00-.99-1.31q-.65-.73-1.36-1.42a13.515 13.515 0 00-1.27-1.11l.88-.8a15.155 15.155 0 011.34 1.13q.74.69 1.41 1.4a12.483 12.483 0 011.03 1.21zM65.62 57.64V47.12a16.448 16.448 0 01-1.48 2.1 2.543 2.543 0 00-.29-.23q-.21-.15-.42-.31a1.582 1.582 0 00-.31-.2 9.422 9.422 0 001.33-1.72 22.772 22.772 0 001.17-2.15q.54-1.13.93-2.19a15.106 15.106 0 00.57-1.86l1.24.38a17.851 17.851 0 01-.59 1.78q-.37.96-.83 1.92h2.54a12.666 12.666 0 00.57-1.3q.29-.76.54-1.5a10.378 10.378 0 00.35-1.24l1.26.3q-.12.48-.35 1.14t-.5 1.34q-.27.68-.55 1.26h3.24v1.14h-3.28v2.76h2.78v1.14h-2.78v2.78h2.78v1.14h-2.78v2.84h3.62v1.2zm-8.12.02v-5.5h5.68v5.5zm1.16-1.1h3.36v-3.3h-3.36zm-2.14-11.42v-1.1h7.46v1.1zm10.32 11.3h2.72V53.6h-2.72zm0-3.98h2.72v-2.78h-2.72zm0-3.92h2.72v-2.76h-2.72zm-9.36-.68v-1.08h5.56v1.08zm0 2.68v-1.06h5.56v1.06zm0-8.14v-1.06h5.56v1.06zM81.38 57a2.383 2.383 0 00-.28-.21q-.22-.15-.44-.29a1.14 1.14 0 00-.32-.16 14.215 14.215 0 001.64-2.27 28.48 28.48 0 001.56-3.03q.74-1.66 1.32-3.38-1.14.14-2.21.3t-1.71.3a1.672 1.672 0 00-.07-.36q-.07-.26-.14-.53a2.218 2.218 0 00-.11-.35q.76-.06 2.03-.21t2.57-.29q.4-1.36.66-2.63a16.293 16.293 0 00.32-2.37l1.26.2a18.5 18.5 0 01-.32 2.23q-.24 1.19-.62 2.45.52-.04.99-.07t.81-.03a2.742 2.742 0 011.64.46 2.3 2.3 0 01.8 1.65 10.9 10.9 0 01-.3 3.41 11.386 11.386 0 01-1.24 3.64A2.448 2.448 0 0187 56.64a4.316 4.316 0 01-1.07-.13 3.217 3.217 0 01-1.03-.49q.04-.28.06-.66a2.955 2.955 0 00-.02-.62 3.272 3.272 0 001.94.68 1.48 1.48 0 001.03-.37 3.032 3.032 0 00.72-1.21 18.37 18.37 0 00.63-2.28 13.23 13.23 0 00.33-2.21 2.907 2.907 0 00-.16-1.25.972.972 0 00-.54-.55 2.2 2.2 0 00-.77-.13q-.38 0-.88.03t-1.08.07a38.559 38.559 0 01-1.4 3.68 34.418 34.418 0 01-1.67 3.33A15.588 15.588 0 0181.38 57zm15.24-5.4a10.293 10.293 0 00-.91-1.24q-.57-.68-1.22-1.35t-1.29-1.23a9.864 9.864 0 00-1.14-.88l.9-.84a12.427 12.427 0 011.21.94q.67.58 1.33 1.25t1.22 1.32a11.974 11.974 0 01.88 1.13zm16.16 4.94a2.829 2.829 0 00-.32-.64 3.409 3.409 0 00-.44-.58 7.809 7.809 0 003.02-1.06 6.118 6.118 0 002-1.96 5.072 5.072 0 00.78-2.48 5.854 5.854 0 00-.33-2.31 5.515 5.515 0 00-1.14-1.88 5.723 5.723 0 00-1.76-1.29 5.689 5.689 0 00-2.17-.54h-.28a24.82 24.82 0 01-.58 4.06 21.234 21.234 0 01-1.19 3.71 10.01 10.01 0 01-1.73 2.79 2.291 2.291 0 01-1.22.77 2.315 2.315 0 01-1.34-.15 3.2 3.2 0 01-1.24-.96 4.919 4.919 0 01-.87-1.65 5.87 5.87 0 01-.25-2.11 7.78 7.78 0 01.79-3.13 7.979 7.979 0 011.91-2.48 8.4 8.4 0 012.75-1.6 8.379 8.379 0 013.31-.45 6.811 6.811 0 012.56.62 7.334 7.334 0 012.17 1.52 6.58 6.58 0 011.46 2.27 6.92 6.92 0 01.43 2.89 6.436 6.436 0 01-1.77 4.22 8.691 8.691 0 01-4.55 2.42zm-6.32-2.82a1.323 1.323 0 00.6.11 1 1 0 00.68-.37 8.493 8.493 0 001.5-2.41 18.688 18.688 0 001.08-3.37 23.932 23.932 0 00.54-3.8 6.772 6.772 0 00-2.96 1.15 6.846 6.846 0 00-2.07 2.28 6.919 6.919 0 00-.87 3.01 4.224 4.224 0 00.41 2.17 2.717 2.717 0 001.09 1.23zm30 4.7a3.491 3.491 0 00-.12-.65 5.457 5.457 0 00-.18-.57H138a.862.862 0 00.58-.16.693.693 0 00.18-.54v-1.84h-8.68v3.74h-1.26V48.38h11.2v8.4a1.665 1.665 0 01-.41 1.24 1.823 1.823 0 01-1.31.4zm.38-11.02a2.125 2.125 0 01-1.33-.31 1.275 1.275 0 01-.37-1.03v-5.9h1.22v2.9q.56-.16 1.29-.41t1.49-.55q.76-.3 1.43-.6a9.463 9.463 0 001.09-.56l.8.94q-.54.28-1.31.6t-1.65.63q-.88.31-1.7.57t-1.44.42v1.5a.642.642 0 00.15.47.888.888 0 00.61.15h3.5a2.4 2.4 0 00.93-.15 1.1 1.1 0 00.55-.66 5.938 5.938 0 00.28-1.61 2.708 2.708 0 00.57.26q.35.12.61.22a6.27 6.27 0 01-.47 2.03 1.671 1.671 0 01-.87.88 3.719 3.719 0 01-1.34.21zm-5.32.24v-1.62q-.48.12-1.24.29t-1.62.33q-.86.16-1.66.3t-1.4.24l-.26-1.2q.64-.08 1.49-.22l1.75-.29q.9-.15 1.68-.3t1.26-.25v-1.4h-5.66V42.4h5.66v-2.24h1.22v7.48zm-1.44 5.98h8.68v-1.58h-8.68zm0-2.6h8.68v-1.58h-8.68zm26.7 7.36v-6.92h-7.4v-7.02h7.4V40.2h1.32v4.24h7.42v7.02h-7.42v6.92zm1.32-8.18h6.1v-4.54h-6.1zm-7.38 0h6.06v-4.54h-6.06zm31.12 7.36a10.039 10.039 0 01-2.57-.3 4.162 4.162 0 01-1.79-.91 2.041 2.041 0 01-.66-1.57 2.452 2.452 0 01.59-1.57 6.311 6.311 0 011.58-1.35 14.957 14.957 0 012.19-1.12v-.26a2.248 2.248 0 00-.38-1.52 1.429 1.429 0 00-1.04-.42 5.65 5.65 0 00-2.3.39 5.284 5.284 0 00-2.04 1.35q-.38.42-.75.79t-.73.71l-.96-.96a14.2 14.2 0 002.73-2.65 17.439 17.439 0 002.05-3.21q-1.34.08-2.44.1t-1.62 0l-.06-1.28q.62.06 1.9.06t2.76-.08a10.475 10.475 0 00.47-1.5 6.185 6.185 0 00.17-1.38l1.32.08a8.438 8.438 0 01-.19 1.35q-.15.67-.37 1.37 1.6-.1 3.01-.26a14.762 14.762 0 002.13-.36l.12 1.22q-.56.12-1.48.23t-2.01.2q-1.09.09-2.23.17a14.6 14.6 0 01-.89 1.66q-.53.86-1.11 1.62a4.48 4.48 0 011.34-.54 6.038 6.038 0 011.38-.18q2.34 0 2.46 2.82 1.24-.46 2.48-.81t2.22-.57l.38 1.2a26.323 26.323 0 00-2.63.57 24.742 24.742 0 00-2.43.79v2.84h-1.26v-2.34a9.646 9.646 0 00-2.24 1.34 1.948 1.948 0 00-.86 1.4 1.327 1.327 0 001 1.24 7.3 7.3 0 002.66.4 14.323 14.323 0 002.03-.16 13.919 13.919 0 002.09-.46 1.359 1.359 0 00.01.36q.03.26.07.52.02.16.03.27t.01.17a17.713 17.713 0 01-2.1.4 15.9 15.9 0 01-2.04.14zM22.18 98.4v-6.96h-4.26V81.02h9.82v10.42H23.4v6.96zm-10.72-.08a4.808 4.808 0 00-.11-.66 2.779 2.779 0 00-.19-.6h1.56a.862.862 0 00.58-.16.693.693 0 00.18-.54V91.3q-.94.36-1.74.64l-1.08.38-.36-1.34q.46-.12 1.34-.41t1.84-.61V85.8h-3.04v-1.2h3.04v-4.4h1.24v4.4h2.38v1.2h-2.38v3.72q.8-.3 1.45-.56t.95-.4v1.24q-.26.14-.92.42t-1.48.6v5.86q0 1.64-1.78 1.64zm11.94-8.04h3.14V86.8H23.4zm0-4.64h3.14v-3.46H23.4zm-4.26 4.64h3.04V86.8h-3.04zm0-4.64h3.04v-3.46h-3.04zm19.9 12.16a3.3 3.3 0 00-.32-.49 3.415 3.415 0 00-.5-.53 8.356 8.356 0 003.54-1.94 4.858 4.858 0 001.44-2.94 2.659 2.659 0 01-.88.7 2.47 2.47 0 01-1.12.26 2.563 2.563 0 01-1.94-.75 2.642 2.642 0 01-.74-1.85 2.776 2.776 0 01.36-1.42 2.689 2.689 0 011-.99 2.864 2.864 0 011.46-.37 2.9 2.9 0 011.12.2q-.06-.6-.12-1.24t-.06-1.3q-1.64.06-3.21.17t-2.9.25q-1.33.14-2.25.32l-.24-1.26q.9-.08 2.25-.18t2.99-.19q1.64-.09 3.36-.17v-3.24h1.24v3.18q2.22-.1 4.24-.15t3.3-.01l-.08 1.28q-1.28-.12-3.27-.13t-4.19.07q.02.86.07 1.78t.09 1.76a3.641 3.641 0 01.56 1.14 5.02 5.02 0 01.2 1.46 6.094 6.094 0 01-1.44 4 8.465 8.465 0 01-3.96 2.58zm2.16-6.08a1.533 1.533 0 001.07-.39 1.324 1.324 0 00.43-1.03 10.322 10.322 0 00-.06-1.1 1.661 1.661 0 00-1.3-.56 1.62 1.62 0 00-1.15.44 1.491 1.491 0 00-.47 1.14 1.6 1.6 0 00.42 1.1 1.336 1.336 0 001.06.4zm23 4.24a6.056 6.056 0 01-3.08-.69 4.184 4.184 0 01-1.76-2.39l1.2-.54a2.8 2.8 0 001.18 1.72 4.388 4.388 0 002.46.6q1.34 0 2.66-.12t2.46-.34a13.558 13.558 0 001.88-.48q0 .12.02.43a5.684 5.684 0 00.07.6q.05.29.07.39a12.133 12.133 0 01-1.94.44q-1.16.18-2.51.28t-2.71.1zm-2.6-11.8l-.04-1.32a7.5 7.5 0 001.67.32 19.263 19.263 0 002.19.08q1.16-.02 2.2-.14a9.435 9.435 0 001.68-.32l.04 1.32a8.931 8.931 0 01-1.66.31q-1.02.11-2.16.13a21.025 21.025 0 01-2.18-.07 8.283 8.283 0 01-1.74-.31zM93.84 96.5q-1.7.3-3.34.43a19.506 19.506 0 01-3.05.02 8.855 8.855 0 01-2.48-.52 3.8 3.8 0 01-1.68-1.19 3.117 3.117 0 01-.61-1.98 3.089 3.089 0 01.59-1.83 6.185 6.185 0 011.64-1.53 14.819 14.819 0 012.41-1.28 8.772 8.772 0 01-.82-2.95 36.577 36.577 0 01-.2-4.57h1.44a18.522 18.522 0 00-.1 2.6 17.344 17.344 0 00.25 2.52 8.121 8.121 0 00.57 1.96q1-.36 2.07-.68t2.17-.58l.36 1.34a22.8 22.8 0 00-3.5.8 17 17 0 00-2.89 1.19 7.715 7.715 0 00-1.97 1.43 2.255 2.255 0 00-.72 1.54 1.917 1.917 0 00.82 1.65 4.924 4.924 0 002.24.78 14.745 14.745 0 003.23.03 30.113 30.113 0 003.81-.6 4.128 4.128 0 00-.17.71 4.583 4.583 0 00-.07.71zm10.54.5a2.383 2.383 0 00-.28-.21q-.22-.15-.44-.29a1.14 1.14 0 00-.32-.16 14.215 14.215 0 001.64-2.27 28.481 28.481 0 001.56-3.03q.74-1.66 1.32-3.38-1.14.14-2.21.3t-1.71.3a1.672 1.672 0 00-.07-.36q-.07-.26-.14-.53a2.219 2.219 0 00-.11-.35q.76-.06 2.03-.21t2.57-.29q.4-1.36.66-2.63a16.294 16.294 0 00.32-2.37l1.26.2a18.5 18.5 0 01-.32 2.23q-.24 1.19-.62 2.45.52-.04.99-.07t.81-.03a2.707 2.707 0 011.62.46 2.334 2.334 0 01.81 1.65 10.637 10.637 0 01-.29 3.41 11.2 11.2 0 01-1.25 3.64 2.453 2.453 0 01-2.21 1.18 4.316 4.316 0 01-1.07-.13 3.216 3.216 0 01-1.03-.49q.04-.28.06-.66a2.955 2.955 0 00-.02-.62 3.272 3.272 0 001.94.68 1.48 1.48 0 001.03-.37 3.032 3.032 0 00.72-1.21 18.369 18.369 0 00.63-2.28 13.23 13.23 0 00.33-2.21 2.907 2.907 0 00-.16-1.25.972.972 0 00-.54-.55 2.2 2.2 0 00-.77-.13q-.38 0-.88.03t-1.08.07a38.559 38.559 0 01-1.4 3.68 34.417 34.417 0 01-1.67 3.33 15.588 15.588 0 01-1.71 2.47zm15.24-5.4a10.292 10.292 0 00-.91-1.24q-.57-.68-1.22-1.35t-1.29-1.23a9.863 9.863 0 00-1.14-.88l.9-.84a12.427 12.427 0 011.21.94q.67.58 1.33 1.25t1.22 1.32a11.974 11.974 0 01.88 1.13zm.68-7.32a9.429 9.429 0 00-.94-.64q-.56-.34-1.15-.63a10.624 10.624 0 00-1.03-.45l.48-.74a7.247 7.247 0 011.03.46q.61.32 1.2.66a8.858 8.858 0 01.93.6zm-1.12 1.84a7.508 7.508 0 00-.92-.68q-.56-.36-1.13-.67a10.41 10.41 0 00-1.01-.49l.5-.72a8.626 8.626 0 011 .5q.6.34 1.19.7a8.606 8.606 0 01.91.62zm19.78 11.08a7.934 7.934 0 01-3.4-1.16 6.828 6.828 0 01-2.32-2.42 6.451 6.451 0 01-.84-3.24 6.927 6.927 0 01.38-2.17 8.355 8.355 0 011.17-2.25 7.4 7.4 0 012.03-1.9q-1.28.22-2.65.47l-2.64.48q-1.27.23-2.28.43t-1.57.34l-.34-1.38q.66-.08 1.77-.24t2.49-.37q1.38-.21 2.85-.47t2.84-.51q1.37-.25 2.48-.48t1.77-.39l.34 1.3-.65.1-.89.14a6.36 6.36 0 00-2.26.84 7.521 7.521 0 00-3.11 3.69 6.45 6.45 0 00-.45 2.37 4.817 4.817 0 00.82 2.82 5.708 5.708 0 002.18 1.86 9.1 9.1 0 002.98.88 2.947 2.947 0 00-.42.62 3.9 3.9 0 00-.28.64zm3.24-8.62a9.622 9.622 0 00-.72-.89q-.44-.49-.92-.94a9.746 9.746 0 00-.86-.73l.68-.58a10.423 10.423 0 01.84.74q.5.48.97.97a10.294 10.294 0 01.73.83zm-1.58 1.44a7.487 7.487 0 00-.69-.92q-.43-.5-.89-.96a7.587 7.587 0 00-.84-.74l.68-.56a7.631 7.631 0 01.82.76q.48.5.94 1.01a9.677 9.677 0 01.7.85zm19.94 7.68a22.58 22.58 0 01-2.97-.07 8.717 8.717 0 01-2.4-.54 3.715 3.715 0 01-1.61-1.16A3.064 3.064 0 01153 94a2.284 2.284 0 01.6-1.61 3.7 3.7 0 011.61-.98 7.835 7.835 0 012.25-.36 11.8 11.8 0 012.5.21 15.732 15.732 0 01-1.06-1.37q-.52-.75-1-1.57-1.34.24-2.67.42t-2.47.28q-1.14.1-1.9.1l-.3-1.16a16.525 16.525 0 001.78-.07q1.08-.09 2.37-.27t2.59-.4q-.32-.64-.62-1.29t-.56-1.27q-1.28.18-2.51.29t-2.15.13l-.26-1.16q.88 0 2.06-.1t2.44-.26q-.3-.82-.5-1.52a10.553 10.553 0 01-.28-1.2l1.3-.16a12.065 12.065 0 00.7 2.7q1.26-.2 2.35-.43a14.443 14.443 0 001.77-.47l.34 1.14a15.583 15.583 0 01-1.73.44q-1.07.22-2.31.42.26.62.56 1.25t.62 1.27q1.6-.3 2.91-.63a10.154 10.154 0 001.91-.63l.48 1.08a10.341 10.341 0 01-1.9.65q-1.26.33-2.78.63a22.191 22.191 0 001.45 2.11 11.224 11.224 0 001.57 1.67l-.74.92a9.882 9.882 0 00-2.61-.68 7.842 7.842 0 00-2.29.05 3.769 3.769 0 00-1.62.65 1.371 1.371 0 00-.6 1.12 1.846 1.846 0 00.53 1.38 3.314 3.314 0 001.45.78 9.968 9.968 0 002.12.33 24.707 24.707 0 002.54.01 2.493 2.493 0 00-.24.63q-.1.39-.14.63zm13.32-.32a3.341 3.341 0 00-.62-.31 4.67 4.67 0 00-.64-.21 17.24 17.24 0 001.05-2.02q.55-1.22 1.11-2.7t1.09-3.08q.53-1.6.95-3.12-1.24.14-2.38.18t-1.9 0l-.04-1.3a15.771 15.771 0 002.12.07q1.24-.03 2.52-.17.28-1.12.47-2.11t.27-1.75l1.36.18q-.1.7-.3 1.6t-.46 1.9q1-.16 1.89-.37a11.664 11.664 0 001.51-.45l.28 1.22a11.823 11.823 0 01-1.71.46q-1.07.22-2.31.38-.44 1.58-.97 3.24t-1.1 3.24q-.57 1.58-1.13 2.9a23.715 23.715 0 01-1.06 2.22zm13.68-.94a16.644 16.644 0 01-3.93.16 9.1 9.1 0 01-3.05-.75 4.306 4.306 0 01-1.88-1.57l.84-.84a4.652 4.652 0 003.05 1.73 13.737 13.737 0 005.17-.09 3.2 3.2 0 00-.16.68 3.253 3.253 0 00-.04.68zm-.54-7.22a10.846 10.846 0 00-2.1-.48 23.412 23.412 0 00-2.34-.2 16.531 16.531 0 00-2.04.04l.16-1.3q.66-.04 1.55-.01t1.85.12q.96.09 1.85.22a11.438 11.438 0 011.51.31zm15.06 8.16a3.77 3.77 0 00-.11-.37q-.09-.27-.21-.54a1.866 1.866 0 00-.2-.37 9.669 9.669 0 004.86-.95 2.988 2.988 0 001.66-2.69 1.953 1.953 0 00-.92-1.79 4.254 4.254 0 00-2.28-.57 7.074 7.074 0 00-2 .32 7.951 7.951 0 00-2.08.97 5.675 5.675 0 00-1.66 1.65l-1.12-.54a8.452 8.452 0 00.67-1.73 20.185 20.185 0 00.48-2.18q.19-1.15.27-2.17a12.542 12.542 0 00.04-1.68l1.36.14a15.811 15.811 0 01-.11 1.68q-.11 1-.32 2.11a21.029 21.029 0 01-.53 2.17 8.812 8.812 0 012.52-1.44 7.342 7.342 0 012.52-.5 5.122 5.122 0 013.3.98 3.168 3.168 0 011.22 2.6 4.019 4.019 0 01-1.82 3.46 10.5 10.5 0 01-5.54 1.44zm3.36-12.78a7.453 7.453 0 00-1.07-.7q-.65-.36-1.38-.7t-1.41-.59a8.127 8.127 0 00-1.18-.35l.64-1.16q.46.14 1.14.41t1.41.61q.73.34 1.4.68t1.11.62zm15.08 13.38a2.607 2.607 0 01-1.35-.36 2.761 2.761 0 01-.98-.98 2.7 2.7 0 01-.01-2.71 2.76 2.76 0 01.98-.98 2.6 2.6 0 011.36-.37 2.553 2.553 0 011.35.37 2.787 2.787 0 01.97.98 2.607 2.607 0 01.36 1.35 2.7 2.7 0 01-1.33 2.34 2.607 2.607 0 01-1.35.36zm0-.78a1.8 1.8 0 001.35-.57 1.932 1.932 0 000-2.7 1.8 1.8 0 00-1.35-.57 1.92 1.92 0 100 3.84z" fill="#4d2200"/></svg>