<svg xmlns="http://www.w3.org/2000/svg" width="339" height="50"><g data-name="グループ 26670"><g data-name="長方形 403" fill="#fff" stroke="#4d2200"><path d="M0 0h339v50H0z" stroke="none"/><path fill="none" d="M.5.5h338v49H.5z"/></g><g data-name="グループ 26583"><g data-name="グループ 39" fill="#4d2200"><g data-name="グループ 48" stroke="#4d2200" stroke-width=".4"><path data-name="パス 682" d="M115.018 11.64a.569.569 0 000 .42c.079.21.289.367.918.289 1-.131 1.076-.315.656-.63-.374-.263-1.419-.315-1.574-.079"/><path data-name="パス 683" d="M144.061 12.243a2.386 2.386 0 00-1.207 3.1c.525 1.154 1.391 1.154 2.493-.026 1.049-1.128 1.364-2.939.525-2.939a.569.569 0 01-.42-.157c-.21-.315-.761-.315-1.391.026m1.286.735c.289.341-.052 1.312-.708 1.915-.84.813-1.443.262-1.05-.971.289-.971 1.286-1.5 1.758-.945"/><path data-name="パス 684" d="M123.784 13.398c-.42.367-.42.367-.079.656.367.315.367.525.052 1.705a1.855 1.855 0 01-1 1.233 1.788 1.788 0 00-.971 1.181c-.184.761.026 1.574.42 1.653.446.079 1.391-.918 1.679-1.758.262-.761.315-.813 1.181-1a7.869 7.869 0 012.807-.341 9.054 9.054 0 01-.394 1.732c-.341 1.233-.394 1.653-.236 1.81.367.367.708-.236 1.181-2.047l.447-1.702.682.1c.63.1.682.079.682-.315 0-.446-.289-.656-.866-.656-.21 0-.315-.131-.289-.394.026-.6-.525-.6-.735 0-.157.472-.262.525-1.627.708-2.2.315-2.1.341-1.968-.735.236-1.705.184-2.125-.21-2.178a1.708 1.708 0 00-.761.341m-.84 4.959c-.1.21-.236.262-.289.262-.394 0-.079-.813.315-.656.079.026.1.157 0 .367z"/><path data-name="パス 685" d="M151.114 14.657a26.315 26.315 0 01-1.417 2.493 5.191 5.191 0 00-.813 1.6c0 .682.367.682.918 0 .656-.813 1.758-1.548 2.256-1.469.289.052.446.262.656.918.394 1.286.84 1.548 2.361 1.443a4.948 4.948 0 002.781-.761c.6-.6.026-.945-.84-.525a5.833 5.833 0 01-2.991.472c-.315-.131-.446-.341-.551-.892-.184-1.076-.84-1.627-1.784-1.5l-.708.1.682-1.181c.708-1.207.813-1.837.315-1.915-.184-.052-.42.315-.866 1.207"/><path data-name="パス 686" d="M139.983 14.391a.616.616 0 00-.131.42c0 .184-.21.394-.5.472-.813.289-1.207.682-.971.918.157.157.315.157.656 0 .525-.236.525-.131.21 1.286-.157.656-.289.892-.551.918-.892.131-1.076.236-1.286.656a2.674 2.674 0 00-.21.577 2.2 2.2 0 001.1 1.076c.315 0 1.181-.971 1.181-1.338 0-.184.262-.236 1.128-.236 1.023 0 1.128-.026 1.128-.341s-.131-.341-.971-.341c-1.1 0-1.128-.026-.656-1.627.236-.84.394-1.076.787-1.233.551-.21.656-.63.157-.63a.658.658 0 01-.525-.341c-.157-.341-.367-.42-.551-.236m-1.181 4.933a.762.762 0 01-.236.367c-.262.21-.551-.052-.367-.341.131-.21.6-.236.6-.026"/><path data-name="パス 687" d="M99.109 14.841c-.63.21-1.233.394-1.338.42a7.566 7.566 0 00-1.207.446c-.945.42-1 .472-.708.735.236.236.367.262.63.079a8.189 8.189 0 011.522-.551c.656-.184 1.338-.394 1.522-.472.289-.1.315-.079.21.367-.079.289-.21 1.181-.315 2.02-.289 2.361.1 2.939 1.863 2.676a3.819 3.819 0 001.394-.577c.341-.262.892-.656 1.233-.918a6.4 6.4 0 001.233-1.364 5.384 5.384 0 01.84-1.023 2.443 2.443 0 011.181.551c.971.63 1.259.682 1.338.236.052-.367-1.758-1.548-2.335-1.548-.63 0-.708.079-1.522 1.286a4.731 4.731 0 01-1.05 1.207 4.592 4.592 0 00-.813.6 3.4 3.4 0 01-1.915.84c-.131-.026-.367-.026-.472-.052-.289-.026-.289-1.705.026-3.149.315-1.417.315-2.02.026-2.152a4.278 4.278 0 00-1.338.341"/><path data-name="パス 688" d="M163.853 15.418c-1.286.6-1.889 1.522-1.627 2.493.236.918.577 1.128 1.207.813a5.727 5.727 0 001.732-2.257c.131-.472.708-.525 1.155-.1.289.289.341.472.289 1.1-.079.813.157 1.207.5.866a2.241 2.241 0 00.079-1.968 2.657 2.657 0 00-3.332-.945m.551.866c-.236.656-1.023 1.679-1.259 1.679-.472 0-.262-.735.367-1.338.656-.63 1.076-.787.892-.341"/><path data-name="パス 689" d="M112.928 15.286a13.933 13.933 0 00-.341 3.28c.131.42.551.446 1.05.079a2.906 2.906 0 012.6.079 1.088 1.088 0 01.289.577c0 .551-.551 1.574-.892 1.653-.394.1-.42.236-.131.525.472.472.945.131 1.443-1a3.21 3.21 0 00.157-2.02 1.885 1.885 0 00-.787-.63 2.581 2.581 0 00-1.81-.236l-1.128.131.1-1.233c.1-1.05.079-1.233-.184-1.338-.184-.026-.315 0-.367.131"/><path data-name="パス 690" d="M133.971 16.651a8.853 8.853 0 00-.5 2.965c.131.315.813.341.813.026v-.73a8.225 8.225 0 01.21-1.522 3.161 3.161 0 00.157-1.076c-.184-.21-.5-.079-.682.341"/></g><g data-name="グループ 26584"><path data-name="パス 681" d="M233.597 11.526c.026 0 .026 0 .052.026h.157a.092.092 0 01.052.026.026.026 0 01.026-.026h.1l.026.026h.052l.026.026c.026 0 .026 0 .052.026h.026a.736.736 0 01.131-.026l.026.026h.21c.026.052.052.026.052.026h.131c.053 0 .026 0 .053.026h.026c.026.026.026 0 .052.026.026 0 .026.026.052.026l.026.026a.081.081 0 00.052.026h.131a.264.264 0 01.079.026l.052.026h.026l.026.026h.131v.026l.026.026h.079c.052 0 .052.026.052.026h.026v.026l.026.026h.026v.026a.026.026 0 01.026.026v.026l.026.026v.026c.026.026.026 0 .026 0 .026 0 .026 0 .052.026l.026.026h.026l.053.052v.026a.092.092 0 00.026.052.026.026 0 01.026.026c.026 0 .026 0 .026.026h.026c.026 0 0 .026.026.026l.026.026v.026h.027l.026.026h.026c.026 0 0 0 .026.026.026 0 .026.026.052.026s0 0 0 .026a.026.026 0 00.026.026h.052l.026.026a.026.026 0 00.026.026l.026.026h.026c.026 0 .026.026.053.026l.052.052v.026h.026l.026.026v.026h.026a.026.026 0 00.026.026l.026.026v.026c0 .026.026.026.026.052v.052h.026l.026.026v.043c0 .026.052.079.052.079v.021h.026l.026.026v.026s.026.052.052.052h.026v.052l.026.026.026.026v.026c0 .026.052.052.052.079v.087h.026c0 .026.026.052.026.079l.026.026v.026s0-.026.026.026l.026.026a.092.092 0 00.026.052h.026v.079a.026.026 0 00.026.026v.026c.026 0 .052.052.052.079s0 .026.026.052v.026s0 .052.026.052l.026.026v.026a.026.026 0 01.026.026v.026l.026.026v.131l.026.052v.131a.026.026 0 01.026.026v.21l.026.026v.052h.026v.184c0 .026 0 .026.026.052a.092.092 0 00.026.052v.052l.026.026v.1h.026a.092.092 0 01.026.052h.026v.052c0 .026-.026.079 0 .131v.026l.026.026v.236s0 .052.026.052v.131c0 .026.026.052.026.079v.079c.026.052 0 .026 0 .052v.341a.036.036 0 010 .052v.21c-.026 0 0 0 0 .026s0 .052-.026.052v.052c0 .026.026.052 0 .079v.184l-.026.026a.262.262 0 00.026.079v.105a.026.026 0 00.026.026v.1c0 .026-.026.052-.026.079v.131l-.026.052v.026a.13.13 0 01-.026.079l-.026.026v.1l-.026.026v.052l-.026.026a.026.026 0 01-.026.026c-.026.052 0 .052 0 .052v.026a.594.594 0 00-.026.1v.1l-.026.026v.21l-.026.052v.052l-.026.026v.026h-.026l-.026.052v.026c0 .026 0 .026-.026.026v.131l-.026.026c-.026.026 0 .026 0 .052v.052a.026.026 0 01-.026.026c0 .026-.026.026-.052.052l-.026.026v.131a.323.323 0 00-.052.131c0 .052 0 .026-.026.026a.092.092 0 00-.026.052v.052a.026.026 0 01-.026.026v.026a.092.092 0 00-.026.052v.095a.026.026 0 01-.026.026h.001v.026l-.026.079v.026h-.026v.052h-.026v.026c-.026.026-.026.052-.053.052h-.026v.026h-.026v.026a.026.026 0 01-.026.026h-.026v.026a.026.026 0 01-.026.026l-.026.026v.026a.026.026 0 01-.026.026v.052a.026.026 0 01-.026.026v.027l-.026.026h-.035v.026c0 .026-.026.026-.052.026l-.026.026-.026.026c0 .026 0 .026-.026.026l-.026.026-.026.026v.026h-.053v.026a.081.081 0 01-.052.026h-.052a.081.081 0 01-.026.052l-.052.026a.026.026 0 01-.026-.026h-.1a.092.092 0 01-.053-.026l-.026-.026h-.026a.026.026 0 00-.026.026h-.052c-.026 0-.026-.052-.026-.052h-.1l-.026-.026a.265.265 0 00-.079-.026h-.043c-.026 0-.079 0-.079-.026a.092.092 0 00-.052-.026h-.026c-.026 0-.026-.026-.053-.026a.051.051 0 01-.052-.052c-.052-.026-.026 0-.052 0a.081.081 0 01-.052-.026.092.092 0 01-.026-.052h-.052a.026.026 0 00-.026-.026h-.026a.026.026 0 01-.026-.026v-.078h.026v-.026l.026-.026v-.1l.026-.026.026-.026v-.026l-.026-.026v-.079l.026-.026a.265.265 0 00.026-.079c0-.026 0-.026.026-.052v-.026a.129.129 0 01.026-.079v-.079l.026-.052c0-.026 0-.026.026-.026h.026v-.052c0-.052-.026-.026 0-.052a.264.264 0 01.026-.079v-.052a.026.026 0 01.026-.026v-.052s0-.052.026-.052l.026-.026v-.052a.265.265 0 01.026-.079v-.131c0-.026 0-.026.026-.052v-.079h.026c0-.026 0-.052.026-.052v-.42l.026-.026v-.078c-.026-.052 0-.052 0-.079.026-.026 0-.026 0-.026v-.052c-.026 0-.026-.026 0-.026v-.026a.092.092 0 01.026-.052v-.095l.026-.026v-.074c0-.026.026-.052.026-.079v-.026h-.026v-.026a.264.264 0 01.026-.079v-.052l-.026-.052v-.157c0-.026-.026-.131-.026-.157v-.157l-.026-.026v-.157a.092.092 0 01-.026-.052v-.341a.026.026 0 00-.026-.026v-.213h-.02l-.026-.026v-.026h-.026v-.131l-.026-.026s0-.052-.026-.052a.264.264 0 01-.026-.079v-.131c-.026-.026-.052-.052-.052-.079v-.026l-.026-.026v-.026l-.026-.026-.026-.026v-.026l-.026-.079a.081.081 0 00-.026-.052h-.026l-.026-.026-.026-.026c-.026 0 0 0-.026-.026-.052-.1-.026-.052-.052-.079l-.079-.079v-.027l-.026-.026h-.027c-.026 0-.053-.026-.079-.052l-.026-.026h-.026c-.026.026 0 0-.026 0h-.079s-.052-.052-.079-.052h-.052l-.026-.026a.026.026 0 01-.026-.026.092.092 0 01-.052-.026h-.131l-.026-.026a.026.026 0 00-.026-.026h-.026c-.1.026-.079 0-.079 0l-.026-.026h-.184l-.026-.026h-.236c-.026.026 0 0-.052 0h-.052l-.026-.026h-.157c-.052 0-.052-.026-.052-.026h-.052v.026h-.079c-.026 0-.052.026-.079.026h-.131l-.026.026h-.026l-.026.026a.092.092 0 00-.052.026c-.079.026-.052 0-.079.026l-.052.026c-.026 0-.026 0-.052.026a.092.092 0 01-.053.026.264.264 0 00-.079.026l-.026.026-.026.026c-.026 0-.026.052-.026.052l-.052.026-.026.026h-.026l-.026.026h-.036l-.052.026v.022l-.026.026h-.052a36.478 36.478 0 00-.052.052h-.026a.092.092 0 00-.052.026l-.026.026-.026.026a.026.026 0 00-.026.026v.026a.026.026 0 01-.026.027h-.036a.026.026 0 00-.026.026c-.026 0-.026-.026-.026 0v.026c0 .026-.026 0-.026.026l-.026.026v.026h-.026v.026h-.026v.1s0 .052-.026.052l-.026.026a111.959 111.959 0 01-.052.1l-.026.052v.131l-.026.026v.026l-.026.052v.1l-.026.026v.315a.026.026 0 01-.026.026v.026c0 .052 0 .026.026.052.026 0 0 .026 0 .026v.073c-.026.026 0 .026 0 .052v.131c.026-.026.026 0 .026.026l-.026.052c0 .026-.026.026-.026.052a.092.092 0 00.026.052v.367c0 .026.026.052.026.079v.157a.264.264 0 01.026.079c.026.079 0 .1 0 .1a.026.026 0 00.026.026v.026s.026.052 0 .079v.079a.081.081 0 00.026.052v.21l.026.026v.1c0 .026.026 0 .026.026v.1l.026.026a.026.026 0 00.026.026l.026.026v.052c-.026.052 0 .052 0 .052v.052a.092.092 0 01.026.052v.157a.026.026 0 00.026.026v.026l.026.026v.026l-.026.026v.052s.026.052 0 .079v.052c0 .026.052.052.052.079v.21l.026.026a.092.092 0 01.026.052v.131l.026.026v.049c0 .052-.026.052 0 .079a.026.026 0 01.026.026v.052h.026v.131l.026.026v.052h.026v.052l.026.026v.026c-.026.026 0 .026 0 .026v.079h-.026s-.052.026-.052.052h-.026c0 .026-.026.026-.052.026h-.026c-.026 0-.026 0-.026.026-.026.026-.026 0-.026 0h-.026c-.026.026 0 .026-.026.026h-.053a.026.026 0 00-.026-.026h-.052v.026l-.026.026h-.053s-.026-.026-.026 0l-.026.026h-.052v.052h-.026c-.026 0-.053.026-.079.026a.026.026 0 00-.026.026l-.026.026a.264.264 0 01-.079.026h-.026l-.026.026a.092.092 0 01-.052.026l-.026.026h-.026l-.052-.026v-.026h-.079l-.026-.026h-.026a.081.081 0 00-.026-.052s-.079-.026-.079-.052a25.531 25.531 0 01-.052-.052l-.026-.026-.026-.026-.026-.026a.026.026 0 01-.026-.026l-.026-.026a.026.026 0 00-.026-.026v-.021h-.026v-.052c-.026 0-.026 0-.026-.026a.092.092 0 00-.052-.026.026.026 0 00-.026-.026v-.1h-.026a.026.026 0 01-.026-.026.026.026 0 00-.026-.026h-.026v-.052c0-.026 0-.026-.026-.026v-.026a.081.081 0 01-.026-.052.13.13 0 00-.026-.079.092.092 0 01-.026-.052c-.026-.026-.026-.026-.052-.026v-.085a.092.092 0 00-.026-.052h-.052l-.026-.026-.026-.026v-.056a.049.049 0 010-.079v-.052l-.027-.026c-.026 0 0 0-.026-.026h-.026l-.026-.026-.026-.026-.026-.026v-.026a.081.081 0 01.026-.052c-.026-.026-.053-.026-.079-.079v-.026a.026.026 0 01-.026-.026v-.052a.081.081 0 00-.026-.052.026.026 0 01-.026-.026l-.026-.026v-.079l-.026-.026h-.052v-.109a.092.092 0 01-.026-.052v-.048c0-.026-.026-.026-.026-.052 0 0-.026-.026 0-.026s0-.026 0-.026v-.052c0-.026-.052-.079-.052-.079v-.052l-.026-.026-.026-.026c-.026-.026 0-.026-.026-.052l-.026-.052.026-.026v-.079l-.026-.026v-.1l-.026-.026v-.026h-.026v-.144a.026.026 0 00-.026-.026h-.026c-.026-.026 0 0 0-.026v-.158h-.052v-.052c0-.052.026-.026.026-.079a.026.026 0 00-.026-.026v-.263a.026.026 0 01.026-.026v-.131h.026s-.026 0 0-.052l.026-.026v-.026l-.026-.026v-.026a.092.092 0 01-.026-.052c0-.026.026-.026.026-.052v-.052a.026.026 0 01.026-.026v-.394h-.026c0-.026 0-.026.026-.026v-.157c0-.026 0-.052.026-.052.026-.026 0-.026 0-.026v-.026a.092.092 0 01-.026-.052c0-.079.026-.052.026-.052.026 0 .026-.026.026-.052a.092.092 0 00.026-.052v-.079a.158.158 0 01-.026-.1.264.264 0 00-.026-.079v-.026c0-.026 0 0 .026-.026a.2.2 0 00.052-.1.026.026 0 01.026-.026l.026-.026V15.4c0-.026 0 0 .026-.026v-.052a.026.026 0 00.026-.026v-.052c0-.052-.026-.026 0-.026v-.097c0-.026 0-.026.026-.026v-.052h.026v-.026l.026-.026v-.026s-.026-.026 0-.026v-.079c.026 0 0-.026 0-.052a.026.026 0 00.026-.026.092.092 0 00.026-.052h.026v-.262a.092.092 0 00.026-.052v-.026l.026-.026v-.1l.026-.052c0-.026.026 0 .026 0v-.026l.026-.026a.026.026 0 00.026-.026.026.026 0 01.026-.026h.026v-.052a.325.325 0 01.052-.079v-.026h.026c0-.026 0 0 .026 0v-.026c0-.026 0-.026.026-.026h.026v-.038a.092.092 0 01.026-.052l.026-.026v-.026a.081.081 0 01.026-.052h.026v-.026h.026v.026a.026.026 0 00.026-.026v-.028a.026.026 0 01.026-.026h.026v-.026c.026 0 0 0 .026-.026v-.022l.026-.026c0-.026 0-.026.026-.026a.081.081 0 01.026-.052h.026a.026.026 0 01.026-.026v-.026a.026.026 0 00.026-.026l.052-.052.026-.026.026-.026h.026v-.1l.026-.026c0-.026.052-.026.052-.026h.052a.026.026 0 00.026-.026l.026-.026v-.026a.051.051 0 01.052-.052c.026 0 .026-.026.052-.052l.026-.026c.026 0 0-.026 0-.026l.026-.026v-.026a.092.092 0 00.026-.052.026.026 0 00.026-.026v-.026l.026-.026.026-.026c.026 0 .052-.026.079-.026v-.026h.026v-.026h.026a.026.026 0 01.026-.026h.026a.026.026 0 00.026-.026l.026-.026.026-.026h.026v-.026h.1c0-.026.026-.026.026-.052h.026l.026-.026.079-.026.026-.026h.052c.052 0 .052-.026.052-.026s.079-.026.079-.052h.026v.026h.026v-.026h.026a.026.026 0 00.026-.026c.026 0 0-.026.026-.026h.052v.026c0-.026.052-.026.052-.026h.079l.026-.026h.079a.026.026 0 01.026-.026h.131a.026.026 0 00.026-.026c.026 0 0 0 .026-.026a.081.081 0 01.052-.026c.026 0 .079-.026.105-.026h.1a.092.092 0 01.053-.026h.052l.026.026h.1a.026.026 0 00.026-.026h.026l.026.026h.289c.184-.5.184-.5.21-.5m-.131.918l-.052.026h-.048a.026.026 0 00-.026.026.081.081 0 01-.052.026v.008l-.026.026a.026.026 0 01-.026.026v.026l-.026.026v.026a.082.082 0 00-.053.026l-.026.026h-.026a.026.026 0 00-.026.026l-.026.026a.026.026 0 01-.026.026v.026c-.026 0-.026.026-.026.052-.026.026-.026.026-.052.026h-.026l-.026.026s-.026 0-.052.052l-.026.052v.026a.026.026 0 00.026.026l.026.026h.026s0 .052.026.052c0 .026.052.052.052.052a.026.026 0 00.026.026v.1c0 .026.026.026.052.052v.052a.264.264 0 01.026.079l.026.026.026.026h.026a.026.026 0 00.026.026.026.026 0 01.026.026l.026.026v.052a.026.026 0 01.026.026.026.026 0 00.026.026.026.026 0 01.026.026v.026h.026a.026.026 0 00.026-.026l.026-.026h.052a.026.026 0 01.026-.026l.026-.026.026-.026h.026l.026-.026h.026l.052-.052a.026.026 0 00.026-.026.092.092 0 00.052-.026h.026l.026-.026h.052c.026 0 .026 0 .026-.026h.052l.026-.026a.026.026 0 01.026-.026h.026v-.017a.026.026 0 00.026-.026.026.026 0 01.026-.026h.052a.092.092 0 00.026-.052v-.052l-.026-.026v-.028h-.027v-.026s-.026-.079-.053-.079a.092.092 0 00-.052-.026v-.049a.026.026 0 01-.026-.026v-.026h-.053l-.052-.079-.026-.026s-.053-.052-.053-.079a.026.026 0 01-.026-.026v-.026a.026.026 0 01-.026-.026v-.026a.026.026 0 00-.026-.026c-.026-.026-.026 0-.052 0a.092.092 0 01-.026-.052h-.026l-.026-.026c-.026-.157-.026-.157-.052-.157m3.1 1.469a.265.265 0 01-.079.026c-.026 0 0 0-.026.026v.026h-.026l-.026.026v.026h-.052l-.026.026a.026.026 0 00-.026.026.026.026 0 01-.026.026h-.026a.026.026 0 01-.026.026.026.026 0 00-.026.026h-.06a.026.026 0 00-.026.026v.046h-.052v.026l-.079.079v.052h-.026a.026.026 0 00-.026.026v.026c0 .026-.026.026-.052.052l.026.052h.026l.026.026.026.052h.026l.026.026h.026l.026.026.026.026h.026l.026.026h.026v.026a.026.026 0 01.026.026v.052l.026.026v.026l.052.052.026.026h.026a.081.081 0 01.052.026.026.026 0 01.026.026v.026l.026.026h.026v.026h.026s0 .026.026 0a.026.026 0 01.026-.026h.026a.056.056 0 00.052-.052l.026-.026.052-.026v-.026a.026.026 0 00.026-.026v-.017h.026v-.026h.026v-.026a.092.092 0 00.026-.052h.053v-.026h.026a50.951 50.951 0 00.052-.052c.026 0 0-.026.026-.026h.026c.026 0 .026 0 .026-.026l.026-.026a.026.026 0 01.026-.026h.026l.026-.026c.026 0 .026-.026.026-.052a.026.026 0 00-.026-.026.092.092 0 00-.026-.052h-.026v-.026a.026.026 0 01-.026-.026v-.052h-.01v-.026l-.026-.026h-.053v-.032l-.026-.026a.026.026 0 01-.026-.026v-.026l-.026-.026v-.026h-.053l-.052-.052v-.028h-.026v-.026a.026.026 0 01-.026-.026v-.026h-.052l-.026-.026h-.052l-.026-.026c.026 0 .026-.026 0-.026m-5.615.656c-.026 0-.026 0-.052.026l-.026.052c-.026 0-.026 0-.053.026h-.052a127.55 127.55 0 01-.052.052l-.026.052c-.026.026-.053.026-.079.052h-.026v.026h-.026v.026a.081.081 0 00-.053.026v.052h-.026v.026l-.026.026h-.026c-.026 0-.026 0-.052.026v.026s-.052 0-.052.026l-.026.026a.092.092 0 00.026.052.026.026 0 01.026.026v.026a.026.026 0 01.026.026v.1l.052.079.026.026a.092.092 0 00.052.026h.026v.026a.026.026 0 00.026.026c0 .026 0 .026.026.026l.026.026.026.026a.026.026 0 01.026.026v.026h.026l.026.026.052-.026h.026l.026-.026s.026.026.026 0c.026-.026 0-.026.026-.026h.026c.026 0 .026-.026.052-.026h.052a.092.092 0 00.026-.052h.026a.026.026 0 01.026-.026l.026-.026h.052v-.026a.092.092 0 01.026-.052h.026v-.026c0-.026.026-.052.026-.079.026-.026 0-.026.053-.026l.026-.026v-.052a.026.026 0 00-.026-.026l-.026-.026v-.018h-.025c0-.026 0-.026-.026-.052 0 0-.026-.026 0-.026 0-.026 0-.026-.026-.052v-.026l-.026-.026v-.028h-.026a.374.374 0 00-.052-.1c-.052-.052-.026-.026-.052-.079v-.031h-.026l-.052-.052a.026.026 0 01-.026-.026v-.026c.052-.026.026-.026.026-.026m6.3 2.676h-.052a.026.026 0 01-.026.026h-.052a.026.026 0 00-.026.026h-.026l-.026.026a.026.026 0 00-.026.026h-.026a.115.115 0 00-.079.026.081.081 0 01-.052.026c-.026 0 0 0-.026.026a.026.026 0 00-.026.026v.026h-.052s-.052 0-.052.026h-.079a.081.081 0 01-.026.052.026.026 0 00-.026.026v.052a.026.026 0 01.026.026.115.115 0 01.026.079v.079a.384.384 0 01.052.1v.052c0 .026 0 .026.026.052a.092.092 0 00.026.052v.026s.052.079.026.1v.026c0 .026.026 0 .026.026v.026l.026.026c0 .026 0 .026.026.026h.131a.026.026 0 00.026-.026l.026-.026h.052a.026.026 0 01.026-.026h.131a.026.026 0 00.026-.026c.026-.026.026 0 .052-.026h.105l.052-.026h.026s0 .026.026 0h.026l.026-.026h-.026v-.026l-.026-.026c.026 0 0-.079-.026-.1v-.131l-.026-.052v-.131c0-.026 0-.026-.026-.026l-.026-.026v-.026l-.026-.052a.036.036 0 000-.052v-.1h-.026c-.052-.184-.079-.157-.1-.157m-6.717.289a.2.2 0 01-.105.052v.079c0 .026-.052.026-.052.052a.026.026 0 00-.026.026v.026a.092.092 0 01-.053.026v.055a.026.026 0 00-.026.026v.026a.026.026 0 00-.026.026l-.026.052v.052l-.052.052v.026l-.026.026a.026.026 0 01-.026.026v.052a.026.026 0 00-.026.026l-.026.052.026.026v.032a.092.092 0 00.026.052.026.026 0 01.026.026.026.026 0 00.026.026h.026l.079.079h.026a.026.026 0 00.026.026h.026a.092.092 0 00.052.026h.026l.026.026h.026l.026.026a.026.026 0 01.026.026h.026c.026 0 .026.026.052.026a.081.081 0 00.026.052h.1v.026a.026.026 0 10.052 0l.026-.026c.026 0 .026-.026.053-.026a.026.026 0 01.026-.026l.026-.026c.026-.026.026 0 .026-.026v-.026l.026-.026c0-.026 0-.026.053-.026l.026-.026v-.083a.092.092 0 01.052-.026v-.1h.026v-.134a.036.036 0 000-.052c-.026 0-.026.026-.026 0v-.052a.026.026 0 01-.026-.026l-.026-.052a.026.026 0 01-.026-.026.026.026 0 00-.033-.032h-.079v-.026a.1.1 0 00-.105-.052c-.026-.026 0-.026-.026-.026v-.026a.091.091 0 00-.052-.026l-.026-.026a.026.026 0 01-.026-.026l-.026-.026h-.026v-.026c-.079-.1-.079-.131-.1-.157.026 0 .026.026 0 0" fill-rule="evenodd"/><g data-name="グループ 44" stroke="#4d2200" stroke-width=".4"><path data-name="パス 691" d="M189.172 10.069a7.543 7.543 0 00-1.312 1.784c0 .1.131.236.289.289.289.1 1.627-1.233 1.627-1.627 0-.262-.42-.577-.6-.446"/><path data-name="パス 696" d="M188.91 12.824c0 .341-.708.6-1.679.6-.813 0-.945.157-.525.577.184.184.5.236 1.076.157l.813-.1-.131.761c-.157 1.076-1.286 1.994-1.548 1.286-.184-.472-.525-.157-.656.551-.052.367-.157.945-.236 1.259-.1.446-.052.6.157.682.446.157.813-.262.813-.971 0-.577.052-.63.525-.656.6-.052.708.21.184.367-.42.131-.446.315-.131.787.184.315.184.394-.1.6a.5.5 0 00-.21.63c.079.236.052.42-.1.525-.184.131-.184.21-.026.5.341.551.289.813-.21 1.076-.42.21-.551.787-.184.787a15.68 15.68 0 003.044-1.522c0-.079-.367-.131-.813-.131-.682 0-.761-.026-.42-.184.472-.184.5-.315.079-.6-.394-.289-.262-.394.761-.656.472-.1.866-.289.866-.394a4.165 4.165 0 01.367-.866c.525-1 .682-2.23.315-2.6-.236-.236-.367-.236-1.076 0l-.813.236.1-.42c.289-1.128.446-1.338.971-1.338.341 0 .577-.1.656-.289.131-.341-.236-.577-.708-.472a.461.461 0 01-.525-.21c-.184-.341-.63-.341-.63.026m1.207 4.172c-.184.446-.21.472-.5.21a.716.716 0 00-.6-.184c-.184.052-.289.026-.289-.131 0-.394.236-.6.866-.787.708-.184.866.052.525.892m-.446.813a.391.391 0 00.1.42c.184.21.131.262-.315.262a3.228 3.228 0 00-.813.1c-.394.157-.341-.21.079-.63.367-.367 1.181-.5.945-.157"/><path data-name="パス 699" d="M193.726 15.5c-.026.079-.1.341-.184.6a1.1 1.1 0 01-.446.656c-.262.131-.315.289-.236.682.079.42-.052.708-.787 1.679-.892 1.181-.971 1.5-.367 1.5.315 0 1.076-1.023 2.02-2.729.42-.761.971-1.286 1.364-1.286.1 0 0 .551-.367 1.889-.21.787-.315.918-.577.866-.446-.1-.446.262-.026.63.446.394.63.367.866-.184a7.036 7.036 0 00.813-3.568c-.079-.262-.236-.315-.761-.236-.551.079-.682.026-.761-.236-.1-.42-.394-.525-.551-.262"/></g><g data-name="グループ 45" stroke="#4d2200" stroke-width=".4"><path data-name="パス 692" d="M174.142 10.829c-.446.184-.525.656-.1.813.367.131 1.5-.42 1.417-.708-.1-.262-.813-.341-1.312-.1"/><path data-name="パス 695" d="M179.482 12.772a7.434 7.434 0 01-1.259 1.023c-.315.157-.551.367-.551.472 0 .367 1.023.184 1.705-.315.761-.551 1.443-.682 1.443-.289a2.11 2.11 0 01-.341.735 1.2 1.2 0 01-1.1.6c-.813.1-1.05.577-.341.656.5.079.525.315.052.42a.481.481 0 00-.079.892c.42.157.656-.026 1.364-1 .892-1.233 1.522-2.493 1.391-2.834a.6.6 0 00-.525-.262c-.341 0-.42-.079-.42-.446-.026-.63-.5-.5-1.338.341"/><path data-name="パス 697" d="M174.615 13.401c0 .6-.052.682-.577.866a4.477 4.477 0 01-1.128.21c-.6 0-.761.315-.341.656.157.131.472.1 1-.079a3.75 3.75 0 01.813-.21 7.431 7.431 0 01-.157 1.417l-.21 1.364-1.05.735c-.577.394-1.05.84-1.05.971 0 .394.577.42 1.233.026l.6-.367-.052 1.469c-.052 1.548.026 1.784.472 1.627.184-.079.262-.367.262-1.1a12.752 12.752 0 01.131-1.81l.131-.787h1a2.723 2.723 0 001.207-.21c.184-.184.1-.236-1.469-.472-.6-.1-.656-.157-.577-.577.052-.262.131-.813.184-1.259.184-1.259.236-1.364.866-1.469 1.05-.21 1.05-.708-.026-.656-.394.026-.577-.026-.5-.157a.632.632 0 00-.446-.866c-.262 0-.315.131-.315.682"/><path data-name="パス 703" d="M179.535 18.308a5.259 5.259 0 00-1.046 1.286c.262.262.761.1 1.391-.446a2.228 2.228 0 011.05-.577 1.2 1.2 0 01.42.026 4.912 4.912 0 01-.262.656c-.289.682-.525.813-1.417.813-.394 0-.6.079-.6.262 0 .315.5.6.866.5.131-.052-.026.21-.394.551-.761.708-.866 1.154-.289 1.154.708 0 2.519-2.493 2.7-3.726.1-.682.052-.761-.341-.971-.236-.1-.446-.289-.446-.367 0-.525-.6-.21-1.627.84"/></g><g data-name="グループ 41" stroke="#4d2200" stroke-width=".4"><path data-name="パス 693" d="M203.435 11.906c-.577.184-1 .446-1 .577 0 .289.5.315 1.1.079.551-.21.656-.131.5.472-.1.394-.315.525-1.154.787a5.509 5.509 0 00-1.259.5.392.392 0 01-.394.079c-.236-.157-.446.394-.735 1.784l-.21 1.1.551.5c.656.6.63.682-.656 1.837-.761.708-.866 1.128-.262 1.128a4.364 4.364 0 001.312-1.076c.892-.918 1.023-1.128.945-1.548-.079-.446-.053-.5.63-.682 1-.262 1.364-.577 1.443-1.286.052-.315.236-1.391.42-2.361.394-2.152.394-1.915.026-2.1a2.81 2.81 0 00-1.259.21m.341 2.676a1.78 1.78 0 00-.1.446c0 .079-.472.157-1.05.157-1.128 0-1.391-.236-.5-.446.315-.079.787-.21 1.023-.262.682-.21.735-.184.63.1m-.315 1.705c.052.367 0 .42-.236.341a2.543 2.543 0 00-1.154.289 2.5 2.5 0 01-.945.315 1.583 1.583 0 01.1-.761l.184-.682 1 .026c.945.026 1 .052 1.05.472"/><path data-name="パス 698" d="M207.742 13.898c-1.155.472-1.364.63-1.417 1.023a9.154 9.154 0 01-1.233 2.912c-.446.682-.551.918-.367 1.05a1.177 1.177 0 00.341.157c.21 0 .918-.971 1.259-1.758 1.076-2.545 1.1-2.6 1.627-2.729.971-.21 1.705-.577 1.758-.84.1-.42-.708-.341-1.968.184"/><path data-name="パス 700" d="M208.765 16.156c-.971.5-1.05.6-.656.945.184.157.341.157.656-.079.682-.472.708-.315.131.446-.682.866-.971 1-1.391.6-.341-.315-.708-.236-.708.157a.675.675 0 00.262.446c.236.184.236.262-.131.63-.367.394-.367.42-.1.708s.315.289.63 0c.42-.367.577-.367 1.338.079a7.543 7.543 0 003.2.6c.21-.21-.341-.63-.813-.63a5.714 5.714 0 01-2.44-.813c-.236-.21-.184-.341.341-.892a8.063 8.063 0 001.548-1.889c.21-.394.21-.472-.026-.63-.394-.236-.866-.157-1.837.315"/><path data-name="パス 704" d="M202.78 19.095c0 .315.341.551 1 .708.735.157.735-.131-.026-.577-.656-.446-.971-.472-.971-.131"/></g><g data-name="グループ 43" stroke="#4d2200" stroke-width=".4"><path data-name="パス 694" d="M218.562 12.22c-.079.236-.367.394-1.155.551-.866.184-1.049.262-1.049.551 0 .315.079.341.945.236l.945-.1-.079.551a.787.787 0 01-.577.735c-.315.1-.5.315-.5.525 0 .315.079.315.735.21.42-.079 1.128-.184 1.627-.236.63-.079.892-.21.918-.42.052-.262-.079-.315-.735-.315h-.787l.21-.656a1.816 1.816 0 011.81-1.076c.289 0 .394-.131.394-.367 0-.341-.079-.341-.945-.236-.6.079-.971.052-1.05-.079-.184-.341-.577-.236-.708.131"/><g data-name="グループ 42"><path data-name="パス 701" d="M220.473 16.393c-1.338.341-2.7.735-3.044.84a4.5 4.5 0 01-1.1.21c-.394 0-.5.052-.42.289a3.352 3.352 0 01.1.341c0 .262.971.026 5.51-1.259.5-.131.945-.262 1.023-.262.236 0-.026 1.522-.341 2.02-.341.525-.236.682.341.551.761-.184 1.364-2.886.708-3.2a8.066 8.066 0 00-2.781.472"/><path data-name="パス 702" d="M215.047 17.207a3.593 3.593 0 01-.446.787c-.446.63-.42 1.181.052 1.181.262 0 .446-.21.682-.787a6.433 6.433 0 00.394-1.1c.079-.394-.525-.472-.682-.079"/><path data-name="パス 705" d="M217.434 19.856a6.049 6.049 0 01-.866 1.1c-.971 1.076-1 1.154-.63 1.286.315.131 1.207-.6 1.863-1.522.6-.84.6-.971.052-.971-.236-.026-.42.026-.42.1"/><path data-name="パス 706" d="M219.455 19.882a7.529 7.529 0 001.522 2.755 2.614 2.614 0 00.813.472c.761.184 3.673-.551 3.673-.918 0-.315-.656-.315-1.706 0a8.511 8.511 0 01-1.548.341c-.6 0-1.233-.656-1.679-1.81-.262-.682-.5-1-.708-1a.44.44 0 00-.367.157"/></g></g></g><g data-name="グループ 46"><path data-name="パス 707" d="M150.584 25.067a3.446 3.446 0 00-.478.551 1.025 1.025 0 01-.163.303 2.847 2.847 0 00-.391 1.224c.003.187-.052.263-.256.36a5.409 5.409 0 01-1.527.494l-.356.044.05-.394c.031-.319.03-.394-.083-.467-.113-.054-.151-.035-.279.173a.785.785 0 01-.517.365c-.522.177-.691.142-.751-.1a2.73 2.73 0 00-.08-.316c-.04-.13-.246-.108-.3.024a1.625 1.625 0 01-1.255 1.107c-.243.004-.304-.22-.2-.727.07-.282.144-.414.55-.777.609-.535.917-1.083.818-1.414-.118-.354-.326-.426-.659-.195a2.241 2.241 0 00-.48.457 3.226 3.226 0 00-.466 1.187.558.558 0 01-.07.283 2.736 2.736 0 01-1.04.541c-.316.062-.354.062-.546-.177a.508.508 0 00-.453-.236c-.28.005-.372.1-.386.419-.014.3.12.466.365.499.15.016.132.054-.221.229-.501.233-.597.178-.454-.274.142-.47.141-.526.01-.562-.076-.018-.168.059-.24.172a1.143 1.143 0 01-.444.364 2.51 2.51 0 01-.969.297 1.431 1.431 0 01-.044-.411c-.009-.505-.124-.71-.33-.65a.59.59 0 00-.24.117 4.853 4.853 0 01-.741.48 1.046 1.046 0 01-.007-.374c.015-.262-.006-.393-.082-.43-.151-.072-.598.105-1.024.374a3.788 3.788 0 01-.408.25c-.056.001-.157-.428-.16-.652-.006-.3-.083-.392-.536-.647-.682-.404-1.353-.225-2.2.574-.48.441-.499.48-.513.835a.956.956 0 00.371.874c.17.053.654-.086.67-.199 0-.056-.112-.073-.3-.05-.243.023-.318.005-.414-.124-.21-.315-.14-.616.264-1.037a1.964 1.964 0 011.388-.733c.6-.01.904.19 1.004.676a1.861 1.861 0 01-.24 1.334c-.144.302-.193.714-.1.712s.296-.305.403-.587c.125-.339.272-.51.845-.914.463-.326.761-.425.765-.238a3.3 3.3 0 01-.122.526c-.142.508-.143.47-.01.524.075.036.205-.04.37-.193a6.43 6.43 0 01.61-.516c.425-.325.5-.27.491.273-.008.6.161.635.96.284l.54-.252.003.206c-.014.318.082.41.419.386a2.368 2.368 0 001.19-.564 1.191 1.191 0 01.464-.25 4.192 4.192 0 00.67-.274 1.471 1.471 0 01.374-.17.667.667 0 01.005.3.5.5 0 00.159.502.435.435 0 00.508.16c.167-.022.317-.062.335-.118a.154.154 0 01.11-.077 1.151 1.151 0 00.407-.307c.296-.267.332-.287.465-.177.134.129.828.192.826.08 0-.037.13-.096.298-.136.26-.06.299-.061.433.104.21.278.548.291 1.238.091a6.62 6.62 0 00.874-.315l.26-.116.25.408c.347.556.573.627 1.393.388a.455.455 0 01.395.125c.208.146.284.164.695.138a4.284 4.284 0 001.494-.4c-.002-.094-.282-.07-.786.033-.952.203-1.61.046-1.052-.264a1.31 1.31 0 00.563-.983c.05-.338-.12-.447-.416-.255a1.45 1.45 0 00-.587.796 1.03 1.03 0 01-.831.651c-.205.06-.68-.344-.741-.642-.04-.187-.005-.262.199-.416a3.27 3.27 0 001.33-2.05c.05-.281.03-.393-.065-.503a.351.351 0 00-.247-.146 5.288 5.288 0 00-.571.515m.676.138a2.531 2.531 0 01-.837 1.46 3.211 3.211 0 00-.35.324c-.185.171-.225.079-.118-.316a3.614 3.614 0 01.912-1.416c.33-.362.462-.382.392-.044m-6.116.358c.208.147-.266.905-.765 1.268-.13.096-.24.154-.26.135a2.932 2.932 0 01.524-1.132c.257-.322.33-.38.5-.27m6.84 2.149c-.111.096-.13.096-.113.002-.002-.15.182-.321.222-.21a.288.288 0 01-.109.208m-10.098.06c.153.147.099.279-.089.282a.213.213 0 01-.211-.314c.054-.076.205-.06.3.031"/><path data-name="パス 708" d="M147.516 26.392c.002.094.097.149.209.147.15-.003.182-.265.05-.32-.094-.036-.261.023-.26.136z"/><path data-name="パス 709" d="M159.137 24.846a2.51 2.51 0 00-.63.423c-.35.324-.387.325-.464.214a2.15 2.15 0 00-.306-.332c-.17-.147-.245-.183-.3-.126-.074.058-.055.113.079.242a.964.964 0 01.218.483c.042.28.026.374-.246.922a2.84 2.84 0 00-.34.98 1.54 1.54 0 01-.103.489.544.544 0 00.085.617c.076.073.171.128.227.108a3.223 3.223 0 00.42-.645 2.63 2.63 0 00.425-1.355c.065-.638.099-.788.283-1.035a1.51 1.51 0 011.255-.789c.3-.042.336-.025.414.105a.806.806 0 01-.323.867.634.634 0 01-.615.16l-.375-.03.023.205c.022.187.04.206.265.183.28-.024.337.013.585.308a.793.793 0 01.072.935 1.247 1.247 0 01-.985.41.35.35 0 01-.227-.09c0-.036-.076-.054-.15-.053a.422.422 0 01-.265-.145c-.115-.148-.115-.148-.093.057.063.43.347.595 1.112.712.732.1.938.078 1.29-.19.203-.154.314-.193.315-.137.002.094.153.166.377.162a1.11 1.11 0 00.42-.175c.278-.155.296-.174.522-.084.264.108.47.067.878-.109.316-.136.79-.576.788-.707 0-.075.055-.113.186-.115.262-.004.316-.117.09-.226-.208-.109-.395-.069-.317.08.02.056-.108.208-.35.38-.462.326-.666.443-.892.446-.15.003-.169-.034-.174-.334-.008-.468-.14-.578-.552-.515a1.77 1.77 0 00-.91.465.36.36 0 00-.051.226c.004.281-.793.725-1.113.62-.095-.036-.039-.094.182-.266a.89.89 0 00.375-1.093 1.588 1.588 0 00-.252-.5l-.152-.148.258-.21c.406-.364.547-.89.318-1.148a.426.426 0 01-.115-.222c-.001-.076-.096-.099-.45-.093a2.528 2.528 0 00-.71.068m-1.38 2.368c-.05.357-.212.79-.305.792-.019 0-.02-.112-.004-.281a2.34 2.34 0 01.322-.867.766.766 0 01-.013.356m4.2.23a.567.567 0 01-.422.606.876.876 0 01-.372.1c-.057-.054.03-.412.122-.525.165-.172.669-.312.671-.18"/><path data-name="パス 710" d="M180.536 24.484c-.455.757-.527.909-.488.963.019.019.02.037-.037.038a1.6 1.6 0 00-.291.51 1.6 1.6 0 01-.292.51c-.037 0-.076-.074-.152-.11a1.846 1.846 0 00-1.441-.03.431.431 0 00-.065.638.862.862 0 00.66.27l.805-.05-.03.413c-.048.506.048.673.25.483.111-.096.147-.246.16-.546l.012-.412.429-.12c.28-.08.428-.157.427-.213-.001-.075-.095-.092-.413-.087-.3.024-.412.007-.414-.068a11.85 11.85 0 011.107-2.1c.147-.19.255-.38.236-.415-.059-.15-.244-.033-.463.326m-1.251 2.339c.114.129-.635.16-.973.11-.263-.047-.34-.16-.211-.33a1.514 1.514 0 011.068.076z"/><path data-name="パス 711" d="M190.959 25.337q.036.167.176.165t.165-.171c.017-.132-.021-.169-.171-.166-.15.021-.186.04-.17.172"/><path data-name="パス 712" d="M176.168 25.288c-.129.133-.129.152.058.15a.765.765 0 01.783.847 3.042 3.042 0 01-.571 1.695c-.222.23-.257.305-.181.377.133.13.207.053.498-.42a2.5 2.5 0 00.379-.83 2.156 2.156 0 00.03-1.536.967.967 0 00-.718-.422.39.39 0 00-.278.14"/><path data-name="パス 713" d="M181.675 25.4c-.13.078-.031.32.118.28.15-.022.22-.346.07-.344-.039-.013-.131.027-.188.064"/><path data-name="パス 714" d="M193.575 25.89a2.29 2.29 0 00-.774.707l-.128.189.032-.3c.034-.206.013-.317-.062-.374-.075-.073-.15-.04-.297.174a3.21 3.21 0 01-1.24.827c-.261.06-.262.023-.12-.447a1.077 1.077 0 00.068-.396c-.097-.148-.245-.069-.371.194a1.457 1.457 0 01-.869.689c-.167.022-.187.003-.172-.278.014-.263-.006-.3-.137-.298a1.11 1.11 0 00-.409.176 1.732 1.732 0 01-.427.213c-.13.04-.15.022-.114-.129.051-.263-.118-.295-.527-.103-.186.078-.354.156-.354.156-.018 0-.057-.093-.097-.223-.099-.298-.266-.277-.616.1-.386.4-.516.477-.892.483-.3.005-.3.005-.247-.202a1.558 1.558 0 00.055-.409l.01-.225-.392.026a.793.793 0 00-.633.254c-.28.267-.33.455-.23.713.078.224.21.24.525.085.204-.098.223-.098.356.015.114.092.208.108.563.065a1.227 1.227 0 00.781-.331 2.862 2.862 0 01.388-.288c.02 0 .002.131-.032.3-.086.434.009.488.34.182a3.955 3.955 0 01.444-.344c.166-.097.167-.078.133.147-.067.433.027.468.527.141a3.28 3.28 0 01.5-.29c.037 0 .077.094.079.206.021.167.078.204.285.257.244.052.301.05.598-.16a1.56 1.56 0 01.389-.232c.037 0 .095.073.134.185a.3.3 0 00.228.183 3.906 3.906 0 001.207-.6c.11-.078.185-.116.205-.06a5.867 5.867 0 01-.337 1.185 1.636 1.636 0 00-.09.244c-.034.132-.237.36-.312.362-.112.002-.126.264-.013.318a.26.26 0 00.224-.079c.11-.096.109-.152.052-.188q-.113-.054 0-.056c.167-.003.259-.154.51-.814l.232-.64.19.183a.6.6 0 00.356.18c.4-.007.84-.424 1.13-1.028.198-.435.215-.528.063-.676-.134-.166-.377-.143-.711.031m.496.348a1.666 1.666 0 01-.659.912c-.314.21-.427.194-.3-.07.053-.095.07-.208.032-.244-.058-.111.29-.585.44-.588.053-.003.087-.022.086-.06-.001-.074.204-.153.316-.117.059-.025.083.075.085.167m-8.57.576a1.7 1.7 0 01-.572.515c-.131.002-.059-.15.144-.377.182-.19.425-.27.427-.138"/><path data-name="パス 715" d="M201.382 25.777c.004.206-.328.492-1.032.917-.76.463-.984.504-1.268.322-.152-.11-.172-.147-.123-.635.049-.527.049-.527-.142-.58a.858.858 0 00-.782.276c-.296.23-.407.25-.541.084-.077-.11-.096-.11-.167.115-.054.132-.109.208-.147.19a1.921 1.921 0 00-.597.215c-.762.37-.874.333-.639-.12.181-.359.085-.544-.31-.595-.335-.049-.354-.049-.61.256-.277.323-.457.719-.379.907.059.149.32.125.58-.03l.222-.153.098.204c.058.111.134.204.172.203a6.874 6.874 0 00.725-.33 7.485 7.485 0 01.705-.332c.037 0 .02.056-.017.15a.266.266 0 00-.014.263c.057.093.095.092.241-.08a3.245 3.245 0 01.74-.648 3.228 3.228 0 01.5-.328c.056 0 .04.167-.065.563a.745.745 0 00.838.828 6.75 6.75 0 001.798-1.022c.277-.267.441-.532.383-.662-.039-.112-.17-.128-.168.022m-5.98.813c-.258.229-.37.23-.225.003a.413.413 0 01.279-.172c.13-.003.13.015-.054.169"/><path data-name="パス 716" d="M182.893 26.521a1.215 1.215 0 01-.515.552c-.463.289-.798.426-.895.333a1.345 1.345 0 01.119-.844c.107-.189.09-.227-.079-.224-.094.002-.185.098-.276.305-.252.585-.116 1.05.336 1.062a2.64 2.64 0 001.336-.734c.203-.21.314-.287.483-.29.262-.004.338.107.25.445a.794.794 0 00.106.673c.077.11.114.129.319.07.299-.08.37-.25.108-.246-.243.005-.303-.162-.197-.558.106-.433.024-.544-.498-.722l-.434-.143z"/><path data-name="パス 717" d="M163.944 26.675c-.216.49-.573 1.526-.702 1.698s-.127.227.041.224.389-.269.734-.93a1.952 1.952 0 01.696-.892c.407-.307.726-.237.582.102-.054.151-.185.134-.3.005-.134-.165-.208-.09-.276.323-.137.77.305 1.38 1.237 1.14a.655.655 0 00.315-.192c.11-.077.167-.022.243-.004a1.86 1.86 0 001.013.114.946.946 0 00.685-.48c.293-.436 1.055-.711 1.15-.62.038.037.003.168-.088.32a.9.9 0 00-.144.376c.003.17.082.373.213.409.169.034.264.107.432.012.036-.02.11-.058.298-.137.315-.136.296-.192.43-.082.19.165.245.164.6-.01.445-.214.483-.176.303.22-.09.207-.09.263-.145.264-.187.004-.647.499-.698.78-.05.338-.013.394.343.388.3-.005.3-.005.536-.44.218-.397.104-.451.33-.455a3.3 3.3 0 001.04-.392c.372-.156.742-.48.74-.63s-.1-.3-.173-.26a.2.2 0 00-.072.151c.004.243-.831.689-1.261.752-.467.064-.377-.162.335-1.242a4.092 4.092 0 00.364-.606c0-.037-.096-.074-.208-.072-.187.003-.242.06-.46.44a2.8 2.8 0 01-.422.568 2.44 2.44 0 01-.836.333c-.094.001.013-.338.177-.546s.198-.509.048-.506-.334.192-.496.551a1.057 1.057 0 01-.758.593c-.354.118-.412-.012-.213-.39.146-.264.163-.32.067-.506-.116-.223-.285-.238-.863-.116-.187.04-.243.023-.244-.052-.003-.13-.21-.183-.395-.105a.4.4 0 00-.121.582c.096.149.058.15-.051.32a.766.766 0 01-.725.311c-.337.006-.414-.105-.433-.123s.072-.17.22-.304c.295-.305.328-.493.1-.676s-.434-.162-.56.066a1.682 1.682 0 00-.195.696c.02.019-.017.094-.072.17a1.291 1.291 0 01-.97.278c-.225-.033-.365-.556-.293-.725a.373.373 0 01.222-.172.5.5 0 00.213-.715c-.114-.129-.17-.147-.395-.105l-.28.042.164-.228a3.325 3.325 0 00.31-.512c.253-.472.022-.842-.406-.686a.716.716 0 00-.203.153 6.354 6.354 0 00-.723 1.53m1.255-1.238a1.355 1.355 0 01-.291.51c-.128.189-.311.417-.384.53-.238.341-.224.06.03-.393.36-.699.747-1.1.645-.647m1.83 1.769c.003.15-.125.32-.182.265-.076-.055.03-.375.106-.376.037 0 .076.055.077.11m4 2.159c-.054.094-.073.095-.093.02-.002-.112.253-.547.31-.492a4.845 4.845 0 01-.217.472"/></g></g></g><path data-name="パス 89444" d="M135.318 34.806c.261 0 .27 0 .27 1.422 0 .153-.018.279-.279.279h-1.152a1.072 1.072 0 01-.423-.072 1.362 1.362 0 00-.441-.126c-.036 0-.036.018-.036.162 0 .036.045 1.395.045 1.656 0 .54 0 .6-.252.6-.207 0-1.1-.063-1.278-.063-.018 0-.036 0-.036.018s0 .018.045.063l.171.207c.027.036.045.054.081.054s.162-.018.189-.018c.315-.026.918-.026 1.134-.026h1.944c.126 0 .27 0 .27.27 0 .225-.018 1.017-.027 1.3-.009.144-.063.756-.063.882a.3.3 0 00.279.279.8.8 0 00.477-.216c.081-.063.09-.153.09-.306 0-.18-.054-.963-.054-1.125v-.794c0-.2.045-.288.27-.288h2.763c.4 0 .477-.027.477-.108a2.9 2.9 0 00-.927-.72c-.09 0-.117.036-.351.369-.153.225-.189.225-.5.225h-1.467c-.279 0-.279-.162-.279-.279 0-.342 0-1.044-.009-1.377 0-.306.072-.333.324-.333h1.638c.369 0 .486 0 .486-.117s-.792-.6-.837-.6c-.108 0-.423.414-.5.459a1.682 1.682 0 01-.441.027h-.342c-.216 0-.324-.018-.324-.3v-1.188c.018-.2.144-.216.27-.216h2.016c.306 0 .486 0 .486-.126s-.873-.648-.909-.648c-.09 0-.306.387-.36.45s-.1.081-.513.081h-2.637c-.225 0-.243 0-.243-.063a.735.735 0 01.216-.324c.045-.045.3-.207.3-.27 0-.126-.729-.441-.891-.5-.027 0-.09.189-.1.234a7.376 7.376 0 01-1.674 2.7 2.13 2.13 0 00-.288.324c0 .027.027.027.036.027a5.772 5.772 0 001.881-1.557c.252-.3.27-.324.549-.324zm-.009 1.935c.3 0 .3.027.3.918 0 1.071-.018 1.071-.306 1.071h-1.053c-.288 0-.306 0-.306-1.179 0-.774.027-.81.288-.81zm6.732-2.718c-.126 0-.153-.009-.387-.135a1.339 1.339 0 00-.423-.162c-.036 0-.036.054-.036.09 0 .009.045.756.054.828.009.117.009 1.467.009 2.016 0 .99 0 1.584-.09 4.257 0 .117-.009.333-.009.36 0 .063 0 .315.234.315.468 0 .468-.486.468-.648 0-.216-.027-1.17-.036-1.368-.009-.342-.009-1.863-.009-2.277a4.325 4.325 0 01.027-.639c.045-.117.189-.117.333-.117h1.116c.171 0 .27 0 .3.189.018.144.045.315.261.315.126 0 .378-.09.378-.585 0-.261-.045-1.4-.045-1.638s0-.315.063-.4c.027-.036.171-.171.171-.216 0-.126-.45-.459-.549-.459-.081 0-.153.072-.243.171a.28.28 0 01-.252.1zm1.332.243c.18 0 .261 0 .261.18v.486c0 .234-.054.234-.261.234h-1.287c-.18 0-.261 0-.261-.189v-.486c0-.225.054-.225.261-.225zm-.023 1.134c.2 0 .27.009.27.207v.513c0 .18-.09.18-.27.18h-1.269c-.2 0-.27 0-.27-.2v-.522c0-.18.09-.18.27-.18zm2.637-1.395a.388.388 0 01-.234-.054 1.241 1.241 0 00-.423-.144c-.081 0-.1.108-.1.153 0 .153.045.819.045.954s0 1.908.009 1.962a.2.2 0 00.216.171c.162 0 .387-.09.414-.288.027-.144.054-.189.261-.189h1.17c.225 0 .351 0 .351.279 0 1.287-.018 3.546-.027 3.636-.027.252-.117.3-.7.324-.09 0-.423.018-.423.063 0 .081.378.18.441.216a.623.623 0 01.252.261c.09.153.153.243.252.243a1.5 1.5 0 00.423-.144c.315-.162.36-.378.36-.738 0-.927-.018-5.013-.018-5.841 0-.324 0-.351.144-.477.054-.045.1-.09.1-.144 0-.171-.513-.459-.585-.459-.054 0-.09.027-.2.144a.2.2 0 01-.189.072zm.135 1.116c-.126 0-.225 0-.243-.135-.009-.036-.009-.405-.009-.54 0-.207.1-.207.252-.207h1.328c.144 0 .225 0 .252.135v.549c0 .2-.09.2-.252.2zm.018 1.215c-.189 0-.261 0-.261-.2v-.594c0-.18.081-.18.261-.18h1.31c.18 0 .252 0 .252.189v.594c0 .189-.081.189-.252.189zm-2.187 1.314c-.108 0-.567-.216-.666-.216-.045 0-.081.009-.081.081 0 .045.027.243.027.279.027.324.027 1.188.027 1.233 0 .378-.009.648-.036 1.116a6.13 6.13 0 00-.018.387c0 .279.09.324.207.324.225 0 .378-.153.414-.423.018-.171.063-.207.27-.207h1.116c.18 0 .3 0 .3.216 0 .135 0 .324.2.324a.575.575 0 00.378-.2c.081-.1.081-.216.081-.459 0-.216-.027-1.638 0-1.872a.4.4 0 01.126-.271.2.2 0 00.054-.117c0-.162-.441-.459-.531-.459s-.18.1-.252.18a.215.215 0 01-.207.081zm1.368.243c.171 0 .234 0 .234.225v.513c-.027.126-.1.126-.234.126h-1.269c-.135 0-.207 0-.234-.126v-.45c0-.27.018-.288.234-.288zM145.303 39c.18 0 .216 0 .243.126.009.045.009.54.009.621 0 .234-.054.234-.252.234h-1.233c-.162 0-.252 0-.252-.171v-.621c0-.189.081-.189.252-.189zm9.207-3.168a9.814 9.814 0 01-3.388 4.176 2.777 2.777 0 00-.414.333c0 .054.045.054.063.054a2.211 2.211 0 00.558-.207 9.042 9.042 0 002.4-1.926c.2-.225.225-.252.315-.252a4.13 4.13 0 011.611 1.773c.315.558.351.621.558.621a.389.389 0 00.369-.4c0-.819-1.611-1.728-2.016-1.962-.378-.207-.4-.225-.4-.306a.3.3 0 01.072-.18c.144-.207.855-1.26 1.035-1.476.054-.063.387-.306.387-.387 0-.225-.549-.684-.765-.684a3.436 3.436 0 00-.5.279 12.454 12.454 0 01-2.466.333 1.6 1.6 0 01-.477-.09 4.863 4.863 0 00-.234-.063c-.045 0-.054.027-.054.072a1.836 1.836 0 00.216.522 1.878 1.878 0 00.612.324 3.887 3.887 0 00.405-.171c.045-.018 1.935-.459 2-.459a.1.1 0 01.118.076zm6.948-1.377c-.018 0-.126 0-.126.063a1 1 0 00.068.144 1.378 1.378 0 01.063.423 3.8 3.8 0 01-.864 2.043c-.153.2-1.008 1.233-1.008 1.26s.009.054.045.054a4.44 4.44 0 001.764-1.6c.036-.045.081-.126.153-.126.036 0 .045.009.162.126a.259.259 0 00.171.108c.054 0 .315-.09.369-.1a2.68 2.68 0 01.351-.045c.279 0 .324.315.324.5a3.86 3.86 0 01-.657 1.737 9.121 9.121 0 01-1.566 1.713c-.117.1-.126.117-.126.153 0 .054.036.054.054.054a5.183 5.183 0 002.763-2.916c.045-.09.2-.558.243-.666a1.6 1.6 0 00.153-.27c0-.054-.162-.252-.162-.306 0-.126.6-.135.693-.135.225 0 .459.027.648.045.081.009.477.072.576.072a.281.281 0 00.3-.243c0-.4-.846-.54-.891-.54-.108 0-.612.171-.729.2a15.207 15.207 0 01-2.016.216c-.3 0-.414-.063-.414-.171a2.55 2.55 0 01.5-.756c.135-.144.162-.18.162-.234 0-.072-.144-.225-.288-.387-.287-.317-.377-.416-.71-.416zm8.132 2.187c-.054 0-.63 0-.63.135 0 .036.063.072.09.09a2.333 2.333 0 01.819.738c.135.225.18.279.315.279.216 0 .342-.261.342-.45 0-.441-.549-.792-.936-.792zm1.5-1.665a1.239 1.239 0 00-.459-.09c-.27 0-.684.09-.684.189 0 .036.009.036.135.081a1.522 1.522 0 01.783.486c.315.369.351.414.45.414.144 0 .3-.189.3-.423a.786.786 0 00-.522-.657zm-1.149 5.814c.1 0 .135-.027.468-.288.072-.054.108-.081.657-.423 3.528-2.223 3.978-3.618 3.978-3.636a.057.057 0 00-.054-.054c-.027 0-.549.531-.648.63a13.559 13.559 0 01-4.518 2.8c-.09 0-.5-.144-.522-.144a.066.066 0 00-.072.072.367.367 0 00.045.162c.018.045.162.234.189.288.18.386.286.593.477.593zm4.464-7.065c-.162 0-.342 0-.342.081 0 .018.018.063.1.108a2.258 2.258 0 01.729.585c.126.207.252.4.441.4a.265.265 0 00.243-.288c-.001-.625-.937-.886-1.171-.886zm-1.035.576c-.054 0-.162.009-.162.063 0 .036.081.117.117.144a2.8 2.8 0 01.576.6c.225.351.306.45.441.45.171 0 .288-.234.288-.342 0-.474-.738-.915-1.26-.915zm5.58 3.132c-.054 0-.081.009-.081.063 0 .171.324.594.531.594a2.3 2.3 0 00.315-.129 14.444 14.444 0 011.485-.378c.045 0 .117 0 .117.135 0 .018-.2 1.44-.216 1.611-.027.2-.045.3-.144.342s-2.16.2-2.385.2a2.546 2.546 0 01-.648-.108 2.1 2.1 0 00-.225-.063c-.045 0-.063.018-.063.063 0 .486.666.8.747.8a3.3 3.3 0 00.4-.117 18 18 0 013.393-.378 3.773 3.773 0 01.918.1 4.42 4.42 0 00.495.108c.171 0 .2-.135.2-.225 0-.333-.567-.612-.936-.612-.144 0-.855.171-1.017.171-.126 0-.144-.054-.144-.126a6.842 6.842 0 01.309-1.723c.027-.045.225-.252.225-.315a1 1 0 00-.7-.495 2.071 2.071 0 00-.288.135 11.35 11.35 0 01-1.845.369 39.163 39.163 0 00-.443-.022zm8.757-.1a4.9 4.9 0 01-1.1-.081c-.045-.009-.261-.108-.306-.108s-.072.054-.072.108c0 .306.414.864.8.864.108 0 .594-.144.7-.162.216-.045 2.277-.162 3.519-.162.18 0 1.08.018 1.287.018.378 0 .747-.027.747-.279 0-.063-.081-.4-.63-.4-.045 0-.144.009-.2.009-1.302.077-4.448.194-4.745.194zm10.035-.981c0-.459-.954-.765-1.017-.765-.036 0-.045.018-.045.045a.668.668 0 00.036.162 1.974 1.974 0 01.153.774 4.766 4.766 0 01-1.089 2.638 2.549 2.549 0 00-.36.477.042.042 0 00.045.045 3.134 3.134 0 001.665-1.71c.153-.342.612-1.638.612-1.665zm1.584 3.24c.063-.009.144-.072.3-.243a5 5 0 01.621-.576 7.562 7.562 0 002.1-2.574.039.039 0 00-.036-.036c-.036 0-.8.81-.954.963a5.358 5.358 0 01-1.962 1.467c-.162 0-.171-.18-.171-.3 0-.3.036-1.386.072-1.629.018-.1.144-.567.144-.675 0-.468-.945-.63-.99-.63-.018 0-.054.009-.054.045a2.339 2.339 0 00.117.324 5.518 5.518 0 01.171 1.692c0 .225-.009.936-.036 1.107a4.053 4.053 0 00-.054.324c-.006.256.471.787.732.742z" fill="#4d2200" stroke="#4d2200" stroke-width=".3"/></g></svg>