<svg data-name="グループ 122" xmlns="http://www.w3.org/2000/svg" width="12" height="12"><defs><clipPath id="a"><path data-name="長方形 107" fill="#fff" d="M0 0h12v12H0z"/></clipPath></defs><g data-name="グループ 103" clip-path="url(#a)"><path data-name="パス 913" d="M10.643 0H1.357A1.357 1.357 0 000 1.357v9.286A1.357 1.357 0 001.357 12h9.286A1.357 1.357 0 0012 10.643V1.357A1.357 1.357 0 0010.643 0M9.461 5.775a.48.48 0 11-.961 0V3.993L3.094 9.845a.48.48 0 11-.705-.652l5.4-5.848L5.9 3.5h-.04a.48.48 0 01-.039-.959l3.12-.257a.452.452 0 01.059 0h.02a.458.458 0 01.128.029h.007l.011.007a.485.485 0 01.1.06l.014.01a.483.483 0 01.084.091l.017.025a.482.482 0 01.05.1l.005.012a.485.485 0 01.02.1v.04z" fill="#fff"/></g></svg>