<svg xmlns="http://www.w3.org/2000/svg" width="35" height="35"><path d="M25.538 0H9.462A9.508 9.508 0 000 9.462v16.076A9.508 9.508 0 009.462 35h16.076A9.508 9.508 0 0035 25.538V9.462A9.508 9.508 0 0025.538 0zm6.247 25.538a6.253 6.253 0 01-6.247 6.247h-2.526V20.348h4.915v-3.675h-4.915v-.919a3.925 3.925 0 01.551-2.48 2.807 2.807 0 012.159-.643 7.817 7.817 0 012.572.459V9.278a15.6 15.6 0 00-3.858-.505c-2.388 0-4.088.551-5.19 1.654s-1.654 2.894-1.654 5.282v.873h-3.629v3.675h3.629v11.436h-8.13a6.253 6.253 0 01-6.247-6.247V9.462a6.253 6.253 0 016.247-6.247h16.076a6.253 6.253 0 016.247 6.247z" fill="#5f4b35"/></svg>