<svg xmlns="http://www.w3.org/2000/svg" width="40" height="40"><defs><clipPath id="a"><path data-name="長方形 139" fill="#fff" d="M0 0h40v40H0z"/></clipPath><clipPath id="b"><path data-name="長方形 34" fill="none" d="M0 0h35.668v38.14H0z"/></clipPath></defs><g data-name="マスクグループ 10" clip-path="url(#a)"><g data-name="グループ 17" clip-path="url(#b)" transform="translate(1.878 1)"><path data-name="パス 680" d="M35.638 21.041h.03v-.12c0-.03-.03 0 0-.06h-.03c0-.06-.03-.12-.03-.18v-.24a.029.029 0 01.03-.03.51.51 0 00.03-.21l-.03-.03a.029.029 0 01.03-.03 1.3 1.3 0 00-.03-.15.11.11 0 01-.03-.09h.03v-.12c0-.06.03-.18.03-.21s-.03-.06-.03-.12c0-.03.03-.03 0-.06a1.3 1.3 0 00-.03-.15c0-.06.03-.03-.03-.18 0-.03-.03-.03-.03-.06 0-.06.03-.12.03-.18 0-.03-.06-.21-.06-.27 0-.03-.06-.03-.06-.06 0-.06.03-.12.03-.21v-.15c0-.03-.06-.21-.06-.24v-.12c0-.03.03-.06.03-.09v-.03c.03-.09 0-.12 0-.24v-.03c0-.03-.03-.06-.03-.09v-.12l-.03-.03v-.15c.03-.06.06-.09.03-.09 0-.06-.06-.09-.06-.12v-.09a.657.657 0 010-.48c0-.03-.03-.03-.03-.06s.03-.03.03-.06v-.03a.145.145 0 000-.12l-.06-.03v-.03a.342.342 0 00-.09-.18v-.03l-.06-.03s-.03-.15-.03-.18.03-.09.03-.12a.27.27 0 00-.03-.15c-.03-.06-.09-.06-.09-.12 0 0 .03-.03 0-.03 0-.03-.03-.03-.03-.06s.03-.03.03-.06c0-.09-.09-.18-.12-.27-.03-.06-.03-.12-.06-.18a.029.029 0 00-.03-.03V14.2c0-.03.03-.03.03-.06a.27.27 0 00-.03-.15v-.03a.029.029 0 01.03-.03c0-.03-.03-.03-.03-.06s.06-.06.03-.09c-.03 0-.03-.03-.06-.03a.1.1 0 01-.03-.06 1.3 1.3 0 01-.03-.15c0-.03-.06-.06-.06-.09-.03-.03 0-.09-.03-.15-.03-.03-.06-.06-.06-.09a.61.61 0 00.03-.15v-.12c0-.03.03-.03 0-.06l-.03-.03c-.03-.06 0-.12-.03-.18a.029.029 0 01-.03-.03c0-.03 0-.03-.03-.06s-.06-.03-.09-.06a.11.11 0 01-.03-.09.1.1 0 00-.03-.06.093.093 0 01-.06-.03 1.3 1.3 0 01-.03-.15c-.03-.03-.06-.06-.06-.09s.03-.03 0-.09l-.03-.03a1.413 1.413 0 00-.09-.27.029.029 0 01-.03-.03v-.09c0-.03-.03-.03-.03-.06v-.09c0-.06.03 0 0-.12v-.09a1.412 1.412 0 00-.06-.15.029.029 0 01-.03-.03.11.11 0 00-.03-.09c0-.03-.06-.03-.06-.06a.11.11 0 01-.03-.09c0-.03-.03-.03-.06-.06a.556.556 0 00-.06-.21c0-.03-.03-.03-.03-.06s.03-.03.03-.06a.029.029 0 00-.03-.03c-.03-.09-.03-.15-.06-.24a.729.729 0 00-.21-.27.057.057 0 01-.03-.09.065.065 0 01-.06-.06v-.15a.029.029 0 01-.03-.03s.03-.09 0-.09c0 0-.06 0-.03-.03a.1.1 0 01.03-.06l-.03-.03a.093.093 0 00-.03-.06l-.06-.03.03-.03c-.03-.06-.06-.15-.09-.21 0-.03-.06-.09-.06-.09-.09-.15-.09-.12-.12-.09v-.06c-.03-.03-.06-.03-.09-.06a2.379 2.379 0 01-.12-.27c0-.03-.03-.03-.06-.03v-.09a.432.432 0 00-.06-.09c-.03-.03 0-.06-.06-.09h-.03v-.03a2.182 2.182 0 01-.24-.27c-.03-.03 0-.06-.03-.09s-.03-.09-.09-.12a.44.44 0 00-.12-.06s-.03-.09-.06-.09c0-.03 0-.06-.03-.06h-.06a2.105 2.105 0 01-.18-.27h-.03v-.09a.029.029 0 01-.03-.03.4.4 0 00-.09-.15.029.029 0 01-.03-.03.029.029 0 00-.03-.03c-.03 0-.06 0-.06-.03-.03-.03 0-.06-.03-.09-.03-.06-.21-.3-.24-.36a.11.11 0 00-.03-.09h-.06a1.2 1.2 0 00-.09-.12c-.06-.03-.03-.03-.12 0a.18.18 0 00-.03-.12h-.03v-.06c-.03-.06-.09-.12-.12-.18a.11.11 0 00-.03-.09c0-.03-.06-.03-.06-.06-.06-.06-.03-.15-.09-.15h-.03l-.03-.03c-.03 0-.06-.03-.09-.03a.029.029 0 00-.03-.03c-.06-.06-.09 0-.03-.09h-.03c.03.06-.12-.09-.15-.12a.11.11 0 00-.09-.03c-.03 0-.03-.03-.03-.06h-.03a1.386 1.386 0 01-.21-.21c-.06-.03-.09-.12-.18-.09v-.03c-.03 0-.06-.03-.09-.03l-.15-.15a.029.029 0 01-.03-.03.1.1 0 01-.03-.06.029.029 0 01-.03-.03c-.03-.03-.03-.09-.06-.12l-.12-.12c-.03-.03 0-.03-.03-.03h-.207c-.03 0-.06-.06-.09-.09s0-.06-.06-.06h-.03L28.588 4c-.06-.03-.15-.03-.21-.06-.03-.03-.03-.06-.09-.06-.03 0-.06.03-.09 0 0 0-.09-.09-.09-.12a.093.093 0 00-.03-.06c-.03 0-.06 0-.06-.03 0 0 0-.12-.03-.15 0-.03-.03-.03-.06-.06s0-.06-.06-.09c-.03-.03-.06 0-.09-.03 0 0 .03-.09-.12-.06v-.03h-.03c-.06 0-.09-.03-.15-.06-.03-.03-.03-.09-.09-.18h-.03v-.06a.508.508 0 00-.18-.21c-.03-.03-.06 0-.09-.03a.427.427 0 00-.12-.06.029.029 0 00-.03-.03 1.457 1.457 0 00-.21-.09s-.06.06-.12-.03v-.06c-.03-.03-.09-.06-.09-.09-.03-.03 0-.06-.03-.09s-.06-.03-.09-.06a.093.093 0 00-.03-.06c-.03-.03-.06-.03-.09-.06s-.03-.06-.06-.06c-.06-.03-.03-.03-.03-.09a.091.091 0 01-.12 0c-.06-.03-.06-.09-.24-.09-.03 0-.03.03-.06 0h-.12v-.03a.4.4 0 01-.15-.03c-.03 0-.06-.06-.09-.06a.1.1 0 01-.06.03h-.03c0-.03.03-.06 0-.09a.673.673 0 00-.12-.03c-.03 0-.06.03-.09.03s0-.03-.03-.06c-.03 0-.06-.03-.09-.03h-.03a.029.029 0 01-.03-.03c-.03-.03-.06-.03-.12-.03l-.03-.03c-.03 0-.06 0-.06-.03h-.06a.414.414 0 01-.12-.09.18.18 0 00-.12-.03c-.03-.03-.18-.09-.21-.12v-.03a.7.7 0 00-.3-.12c-.03 0-.06.03-.09.03h-.09c-.03 0-.15-.03-.18-.03h-.147a.4.4 0 01-.24-.06.963.963 0 01-.15-.09.3.3 0 00-.18-.12c-.12-.03-.15 0-.24-.06a.029.029 0 00-.03-.03.092.092 0 00-.06-.03s.06-.09-.15-.06c-.03 0-.03.03-.06.03a.059.059 0 01-.06-.06.961.961 0 00-.21.03c-.03 0-.03.03-.06.03s0-.03-.09-.03l-.03.03h-.03c-.03 0-.09.03-.18-.12V.493h-.03a.228.228 0 01-.12-.06 1.21 1.21 0 00-.33 0c-.03 0-.03-.03-.06-.03h-.03c-.03 0-.03-.03-.06-.03-.06 0-.12.03-.18.03a.029.029 0 00-.03.03c-.03 0-.03-.03-.06-.03h-.03c-.03 0-.12-.06-.15-.06-.09-.03-.12-.09-.57.06a.029.029 0 01-.03.03c-.03 0 .03 0-.12-.03v.03c-.03 0-.03-.03-.03-.06-.06-.03-.15-.03-.21-.06a.155.155 0 00-.12-.06c-.06-.03-.12 0-.21-.03-.03 0-.03-.06-.06-.06-.06-.03-.12 0-.18-.03a.029.029 0 01-.03-.03 1.3 1.3 0 00-.15.03.18.18 0 00-.12.03c-.03.03 0 .03-.03.03a.176.176 0 00-.15.06c0-.03-.09-.06-.18-.06h-.06c-.03 0-.03-.03-.06-.03s-.15-.03-.18-.03-.18-.03-.21-.03c-.06-.03-.03-.06-.18-.09h-.03c-.03 0-.03-.03-.06 0a.029.029 0 00-.03.03.746.746 0 00-.24.03c-.03 0 0 .06-.12.03l-.03-.03-.03.03c-.15.06-.18.06-.24.03s-.06 0-.15.03c0 0-.03-.03-.03 0-.03 0-.03.03-.06.03h-.06c-.03 0-.15.03-.18.03s-.06.06-.06.06c-.03 0-.06-.06-.09-.09-.03 0-.06 0-.06.03a.431.431 0 01-.09.06c-.03 0-.03-.03-.06-.03h-.21c-.03 0-.03.03-.06.03s-.06.03-.12.03c-.03 0-.03-.03-.03 0a.029.029 0 00-.03.03c-.03 0-.12-.06-.15-.06h-.09a.1.1 0 00-.06.03h-.03l-.03.03c-.06.03-.09.03-.15.06-.03 0-.12.09-.18.09h-.03a.507.507 0 00-.15.06 1.21 1.21 0 00-.33 0c-.09.03-.33.09-.39.12a.2.2 0 00-.18.09c-.06.06 0 .06-.09.09v-.03c-.06 0-.09.03-.15.06-.03 0 0-.03-.12-.03h-.24l-.03.03h-.09c-.03 0-.06.06-.09.06s-.03-.03-.06-.03-.03.03-.06.03-.09-.03-.12-.03l-.09.03a.029.029 0 00-.03.03h-.09c-.03 0-.12.06-.15.06h-.03c-.03 0-.03.03-.06.03s-.03 0-.09.06c-.03.03-.03.06-.06.06a.3.3 0 00-.12.03.029.029 0 01-.03.03s-.15.03-.18.09a.093.093 0 00-.03-.06h-.03c-.03 0-.03-.03-.06-.03a.225.225 0 00-.15.03c-.03.03 0 .09-.06.09h-.06c-.06 0-.06.06-.12.09-.03 0-.09 0-.09.03-.03.03 0 .06 0 .09s-.06.03-.06.03 0-.06-.03-.06l-.03.03h-.09l-.36.18a.316.316 0 01-.24.15h-.06c-.03 0-.03.03-.06.03a.029.029 0 01-.03-.03c-.03-.03-.09-.03-.09 0l-.09.09c-.06.03-.27.09-.33.12-.03.03-.09.06-.12.09-.03 0-.06 0-.06.03l-.09.18c0 .03-.03.03-.06.03h-.03a.029.029 0 00-.03.03.11.11 0 01-.09.03c-.09.06-.18.06-.18.03-.03-.06.03-.03-.03-.03l-.03.03s.03.03 0 .03c0 0-.09 0-.12.03v.12a.11.11 0 00-.09.03l-.06.09c-.03-.03-.09.06-.09.06 0 .03.03.09-.06.09-.03 0-.06-.03-.09 0s-.06.06-.06.09 0 .06-.03.03l-.03-.03c-.03-.03-.12 0-.12 0a.041.041 0 000 .06l-.03.03a.029.029 0 01-.03.03h-.03a.029.029 0 00-.03.03c-.03.03-.06.03-.12.06-.03 0-.03.06-.06.06-.03.03-.24.12-.27.15s-.09.09-.09.12.03 0-.03.06a.1.1 0 00-.06-.03v.03c0 .03-.09.09-.09.09 0 .03 0 .06-.03.06 0 0-.03-.03-.03 0-.03 0-.06.03-.09.06s-.06.15-.09.18c-.03 0 0-.03-.03 0a.029.029 0 01-.03.03c-.03.03-.03.06-.06.09s-.06.03-.06.06.06.09 0 .09a.194.194 0 00-.15.09.353.353 0 01-.15.18c-.03 0-.3.03-.24.27 0 0-.06 0-.06.03 0 0 .03.03-.03.06h-.03v.06a.029.029 0 00-.03.03l-.06.06c-.03.03-.06.06-.09.06h.03a.148.148 0 00-.09.03v.03a.029.029 0 00-.03.03v.03h-.06a.352.352 0 00-.18.15c-.03.03-.15.12-.15.15-.03.03 0 .09-.03.21 0 .06-.03.12-.06.12s-.03 0-.06.03c0 .03 0 .06-.03.06 0 0-.12 0-.15.03-.03 0-.03.03-.06.06 0 0-.09.06-.09.09a2.045 2.045 0 00-.21.15.029.029 0 01-.03.03l-.09.09s.03.03 0 .03c0 .03-.03.03-.03.06-.03.03-.03.06-.06.09a.093.093 0 01-.06.03.43.43 0 01-.06.18c-.03.06-.03 0-.06.12V7l-.09.09v.06h-.03c-.03.06 0 .09-.09.12h-.03v.06c0 .03-.06.03-.09.03 0 0 .03.03 0 .03h-.03c-.06 0-.09.12-.09.15s.03.03 0 .06a.126.126 0 01-.12.12v-.06l-.06.03a.093.093 0 01-.03.06c0 .03-.03 0-.06.03a.029.029 0 01-.03.03.029.029 0 00-.03.03.306.306 0 00-.15.27c.03.06.06.03.03.12.03 0 .03 0 .06.03h-.06c-.03 0-.09.06-.09.06a1.354 1.354 0 01-.15.24s-.03-.03-.03 0v.09c0 .03-.03 0-.06 0a.441.441 0 00-.06.12v.06h-.06a.029.029 0 01-.03.03c-.03.03-.06-.03-.06.06h-.06v.06c-.03.03-.12.03-.18.3a.029.029 0 01-.03.03v.03a.313.313 0 00-.03.12.686.686 0 01.03.12h-.06c-.03.03-.03.06-.06.09s-.06.03-.09.06a.317.317 0 00-.06.15.11.11 0 01-.03.09s-.03-.03-.06.03c-.03.03-.06.18-.09.21h-.03s-.03.15-.03.18h-.03a.093.093 0 01-.03.06.148.148 0 01-.03.09l-.06.06v.09c-.03.03-.03 0-.03.03 0 .06.03.03 0 .06s-.09.15-.12.18-.03.06-.06.09-.06.03-.06.06v.03c0 .03-.03.03-.03.06s.03.03 0 .06a.029.029 0 00-.03.03c0 .03-.03.06-.03.09s.03.03.03.06v.12c0 .03-.03.03-.03.06 0 0 .03.03 0 .03 0 .03-.03.03-.03.06a.042.042 0 010 .06.029.029 0 00-.03.03.092.092 0 00-.03.06h-.03a.681.681 0 00-.03.12c-.03.03-.06.03-.06.06-.06.03-.12.18-.15.21s-.09.03-.09.06c-.03.06 0 .18-.06.18a.03.03 0 00-.03.03c-.03.06-.03.15-.06.21s-.06 0-.03.09c-.09 0-.03.09-.03.12h-.03c-.03 0 0 .12 0 .15a.44.44 0 01-.06.12c0 .03.03.06.03.09s-.03.03-.03.06v.03c0 .03 0 .03-.03.06h-.06s0 .18-.03.21c-.03.06-.06 0-.06.15 0 .06.03.15 0 .18s-.03.03-.06.03v.06c-.06.09 0 0 0 .15v.09l-.03.03c0 .03-.03.21-.03.24a.029.029 0 01-.03.03c-.03.06.03.09-.09.12 0 0 .03.06 0 .09 0 .03-.03.03-.03.06v.06a.029.029 0 01-.03.03c-.06.03-.06-.03-.06.06v.03a1.3 1.3 0 00-.03.15c0 .03.03.03.03.06s-.03.06-.03.12c0 .03.03.06.03.09a.77.77 0 00-.06.15.029.029 0 00-.03.03c-.03.03-.03.09-.06.15-.03.03-.12.3-.18.39-.03.03-.03 0-.06.09 0 .03-.03.06-.03.09 0 .06.09.3.09.36a.029.029 0 01-.03.03.68.68 0 00.09.36c0 .03.06.03.06.09v.06c0 .03.03.09.03.12.03.03.03.03.03.06a.962.962 0 01-.09.15c-.03.06 0 .18-.09.21 0 0-.03-.09-.06.21a.434.434 0 00.06.21h.03c0 .03-.03.12 0 .15.03.06.09.03-.03.12H.27v.03a.7.7 0 00-.06.24c0 .03.03.03 0 .06h.03s.03.12 0 .15a.156.156 0 01-.06.12v.12l-.03.03c0 .03.03.06.03.09a.029.029 0 01-.03.03c-.03.03-.12.06-.06.12H.06s.06 0 .06.03-.03.06-.03.09.03.03.03.06-.03.06-.03.09a.029.029 0 00.03.03c0 .03-.03.03 0 .06a.763.763 0 01.06.21c0 .03.03.06.06.12 0 .03-.03.03-.03.06 0 0 .03.06 0 .06H.18c-.03.03-.03.21-.06.24a.029.029 0 00-.03.03v.12h.03v.06c0 .03.06.06.06.09a.029.029 0 01-.03.03s.03.06 0 .06c0 .03-.09.06-.09.12a.029.029 0 00.03.03c0 .03-.03.09-.03.12s.03.03 0 .06c0 .06-.06.15-.06.21a.426.426 0 00.06.18c.03.06.03 0 .06.06a.156.156 0 01.06.12v.06c0 .03.03.03.03.06s-.06.09-.06.09h.03a.029.029 0 00-.03.03l-.03.03c-.09.12-.03.15 0 .18l-.06.03c0 .03.03.03.03.06s-.03.03 0 .03c0 .03.03.06.06.09h.03c0 .03.03.09 0 .12 0 .06-.06.09-.03.15a.155.155 0 00.06.12v.03c0 .03-.06.06-.06.12 0 .03.03.03.03.06a.254.254 0 00.06.18c.03.03.06 0 .03.09a.1.1 0 01-.03.06.029.029 0 00.03.03.029.029 0 01-.03.03c0 .03.03.06 0 .09 0 .03-.03.03-.06.09v.21c0 .03 0 .06.06.09.03.03.09.03.12.15.03.18-.06.18-.09.33 0 0 .03.03 0 .03 0 .03-.03.03-.06.03 0 .03-.03.03-.03.06 0 .06 0 .09.03.12 0 .03.06 0 .06.03.03 0 0 .03.03.06a.11.11 0 00.09.03.322.322 0 01.06.18c0 .06-.03.12 0 .15s0-.03.03.03c-.03 0-.03.15-.03.21 0 .03.03.03.03.06a.029.029 0 01-.03.03c0 .03 0 .03.03.03.03.09-.03.06.06.15a.093.093 0 00.06.03.667.667 0 00.09.15c0 .03-.03.06-.06.12a.041.041 0 010 .06l.03.03a.03.03 0 00-.03.03v.18c.03.06.06 0 .03.06h.06a.3.3 0 01.03.09c.03.03.06.03.06.09.03.06 0 .12.03.18 0 0 .03 0 .03.06 0 .09-.06.12-.03.15 0 .03.06.09.06.09l-.03.03c0 .03.03.03.03.06s.03.06.03.09.03.03.03.06-.09.12-.09.15l.03.03a.917.917 0 00.06.24c.03.09 0 .09.06.21 0 .03.06.12.06.15a.065.065 0 00.06.06.11.11 0 00.03.09s.03-.03.06.06v.03s-.03.03 0 .03c0 .03.15.24.15.3v.09a.1.1 0 00-.03.06s.03.09-.03.06a.186.186 0 00.06.12.092.092 0 01.06.03l.09.18v.03c0 .03.03.03.03.06s-.03.06-.03.12a.2.2 0 00.06.21v.03h.03s0 .06.03.06l.03-.03h.03l-.03.03c0 .03.03 0 .03 0v.03a.03.03 0 00-.03.03c0 .03.03.03 0 .03a.029.029 0 01-.03.03v.06c0 .09-.03.18 0 .21a.427.427 0 01.12.06l.03.03a.11.11 0 01.09.03c.03 0 .09.09.09.09 0 .03-.03.06-.03.09s.03.06.03.09-.03.06-.03.09c0 .06.09.12.12.12a.1.1 0 01.03.06c.03.03.09.03.12.06a.351.351 0 01.15.18c0 .03-.03.06-.03.09 0 0 .03.03 0 .03 0 .03-.03.03-.03.06a.111.111 0 00.03.09c.03.03.06.03.06.06a.326.326 0 01.03.15.029.029 0 00.03.03h.03v.03c.03.15.15.21.27.3a.314.314 0 00-.06.15c0 .03.03.06.03.09a.3.3 0 00.06.15 1.2 1.2 0 00.09.12.44.44 0 01.06.12.093.093 0 01.06.03c.03.06 0 .03.06.09l.12.12h.03v.12c0 .03.03.06.03.09a.029.029 0 01-.03.03.3.3 0 00.03.27h.03v.06a.029.029 0 01.03.03v.06c0 .03.09.06.09.09.03.03 0 .06.06.06 0 0 .06-.03.06 0v.06a.11.11 0 01.09.03v.03a.752.752 0 00.12.21v.03a1.522 1.522 0 00.06.27c.03.09.09.09.18.15.03.03.12.15.15.18a.093.093 0 01.06.03.554.554 0 01.12.3.315.315 0 00.06.24.029.029 0 01.03.03s0 .09.03.12h.03c.06.06.03.03.09.15v.09a.03.03 0 01.03.03c.03.03.03.12.03.15h.06s.03.09.06.09a.093.093 0 01.06.03v.03c.06.09.09.06.12.09v.03c.03.03.06 0 .09.03a.31.31 0 00-.03.12.423.423 0 00.06.18.111.111 0 00.03.09c0 .03.06.06.06.09v.03a.622.622 0 01.18.06c.03.03.06.09.12.09a.093.093 0 00.03.06h.03v.09a.041.041 0 00.06 0v.03c0 .03.03.06.03.09 0 0 .06.06.06.09a1.18 1.18 0 00.09.12c.03.03.09.03.12.06.03 0 .09.06.12.06v.03c.03.03.15.09.15.12l.09.09c.03.03.03.06.09.12.03.03.06.03.09.06.06.06.3.15.33.21.03.03.03.12.06.15h.06c.03 0 .12.09.15.09h.27c.03 0 0 .03 0 .06a.927.927 0 00.18.12h.15v-.03c.03-.06.06-.06.09-.12.03-.03.15-.09.15-.12s.06-.09.09-.12c0 0 .06.03.06 0 .03-.03.24-.09.27-.12 0 0 .06-.06.06-.09a.092.092 0 00.06-.03c.03-.03-.03-.09.09-.09.06 0 .21-.06.3-.06a.03.03 0 00.03-.03c.03 0 .06.03.09 0 .03 0 .03-.03.03-.06l.03-.03a.059.059 0 01.06-.06h.031a.029.029 0 00.03-.03.148.148 0 00.09-.03v-.03a.326.326 0 00.15-.03.319.319 0 00.15-.09v-.03a.226.226 0 01.12.06c.03 0 .03 0 .06-.03h.06v-.06a.433.433 0 00.09-.06c.03-.06 0-.09.03-.09h.03a.607.607 0 01.15-.03s.03-.03.03 0l.03.03h.06c.03 0 .03.06.06.06s.06-.03.12-.03.12 0 .15-.06a.256.256 0 00.09-.15c0-.03 0-.03.03-.06h.06c.03 0 .06.06.12-.03s.09-.06.15-.09v.03a.1.1 0 01.06-.03h.09c.03 0 0 0 0 .03.06.06.18 0 .21-.09 0 0 .06-.03.06-.06a1.059 1.059 0 01.24-.15.029.029 0 01.03-.03c.03 0 .09.03.09 0a.528.528 0 01.03-.18.083.083 0 000-.12c-.03-.06-.09 0 0-.12 0-.03-.03 0-.06-.03v-.09a.226.226 0 01-.06-.12v-.09c0-.03-.03-.06-.06-.09a.093.093 0 01-.06-.03c0-.03 0-.03-.03-.06a.029.029 0 01-.03-.03.11.11 0 00-.03-.09.029.029 0 01-.03-.03l-.03-.03-.12-.12v-.15s-.03-.03 0-.03c0-.03.03-.09.03-.12s.06-.06 0-.18a.029.029 0 01-.03-.03c-.03-.06.03-.12-.03-.12a.11.11 0 01-.09-.03.029.029 0 01-.03-.03h-.03v-.06a.03.03 0 00.03-.03.52.52 0 00-.03-.15v-.06a.18.18 0 00-.03-.12c0-.03-.06-.06-.09-.06-.09-.09-.06-.15-.03-.36v-.06c0-.03.03-.03.03-.06s-.12-.12-.12-.12a1.311 1.311 0 01-.03-.15h-.03v-.06a.3.3 0 01-.03-.24c0-.03.03-.03.03-.06a.6.6 0 00-.06-.18s-.09-.06-.09-.09a.11.11 0 00-.03-.09c-.03-.03-.06-.03 0-.06h.03v-.09c0-.03-.03-.03-.03-.06a.38.38 0 00-.03-.18l-.03-.03v-.09s-.06-.06-.06-.09l.03-.03c0-.03-.18-.21-.18-.27v-.15l.03-.03a1.033 1.033 0 00-.03-.33c-.03-.03-.06-.03-.06-.06 0-.06.03 0 0-.06 0 0 .15-.03.09-.09a.03.03 0 01-.03-.03.11.11 0 00-.03-.09c0-.03-.09-.06-.09-.12a.686.686 0 00.03-.12c0-.03-.06-.12-.06-.15h-.03a.11.11 0 00-.03-.09c-.06-.09 0-.12 0-.21l-.03-.03c0-.03 0-.03-.03-.06s-.03 0-.03-.06.03-.06 0-.12a.92.92 0 01-.12-.18l-.03-.03c0-.03.03-.12 0-.15 0-.03-.06-.03 0-.21a.03.03 0 00.03-.03.591.591 0 00.03-.21.064.064 0 00-.06-.06c0-.03-.06-.09-.06-.12s-.06-.06-.09-.12c0-.03.03 0 0-.06-.03-.03-.06-.12 0-.15a.029.029 0 01-.03-.03c0-.03 0-.06-.03-.06h-.03V28s-.09.03-.09-.06a.27.27 0 01-.03-.15v-.09l-.03-.03c0-.03.03-.03 0-.06 0-.03-.03-.06-.03-.09v-.12c0-.03-.06-.06-.06-.09 0 0 .03-.03 0-.03a.029.029 0 00-.03-.03v-.06c0-.03-.03-.06-.03-.09s.03-.09.03-.12-.03-.06 0-.09.03-.03.03-.06-.03-.06-.03-.09.03-.03.03-.06v-.03c0-.03.06-.18.06-.21l-.03-.03v-.06l-.03-.03c-.06-.06-.06-.18-.09-.21-.03-.12-.06-.12-.03-.15 0 0 .03 0 .03-.06 0-.03-.03-.03 0-.06a.105.105 0 01.03-.06v-.03a.257.257 0 00-.03-.27.03.03 0 01-.03-.03v-.06a.507.507 0 01-.06-.15s.15-.09 0-.39h.03c0-.06-.15-.24-.15-.27 0-.06.03-.12.03-.18 0-.03-.03-.06 0-.12 0-.03.03-.03.03-.06s-.03-.03-.03-.06.03-.06.03-.12l-.03-.03.03-.03c-.03-.06-.06-.21-.09-.3-.06-.12 0-.09-.03-.15 0-.06-.03-.09-.03-.15 0-.03 0-.15.03-.18a.029.029 0 00.03-.03v-.06c0-.03.03-.03.03-.06s-.03-.03-.03-.06v-.06c0-.03-.03-.03 0-.06 0-.03.03-.06.03-.12 0-.03-.03-.06-.03-.09a2.25 2.25 0 000-.45.042.042 0 010-.06.029.029 0 00.03-.03l.03-.03c0-.03-.12-.21-.12-.27a.426.426 0 01.06-.18.636.636 0 00.09-.21c0-.03-.03-.15-.15-.06v-.06c0-.06.03-.33.03-.36.03-.06.03 0 .03-.06 0-.09-.09-.09.03-.24a.029.029 0 00.03-.03 1.288 1.288 0 00.03-.15c0-.09-.03.03 0-.09h-.03c.03 0 .06-.03 0-.06-.12-.03-.09.03-.06-.18h.03v-.09s.06-.03.06-.15v-.09l.03-.03c0-.03-.03-.15-.03-.18s.03-.06.03-.09v-.24c0-.06.03-.3.03-.33s-.03-.03-.03-.06a.029.029 0 01.03-.03v-.03c0-.03.03-.03.03-.06v-.06c0-.03.09-.12.09-.15v-.03c0-.03.03-.06.03-.09a.18.18 0 01.03-.12c0-.03 0-.12.03-.15v-.06a2.434 2.434 0 01.12-.27v-.03a.1.1 0 00.03-.06.029.029 0 01-.03-.03v-.09c0-.03.06-.12.06-.15l.03-.03c0-.03-.03-.06-.03-.09a.029.029 0 01.03-.03.029.029 0 00.03-.03v-.15c0-.03.03-.03.03-.06v-.09c0-.03.06-.15.06-.18.03-.06.09-.21.09-.21 0-.03.06-.12.06-.18 0-.03.03-.03.06-.03 0 0-.03-.03 0-.03 0-.03.09-.09.09-.12a.722.722 0 00.06-.27.029.029 0 00.03-.03c.09-.06.06-.18.06-.21h.03v-.03c0-.06.06-.09 0-.15a.057.057 0 010-.09c.03-.03.09-.03.12-.06.03 0 0-.03.03-.06s.06 0 .09-.03.03-.09.06-.15h.03v-.03h.03a.211.211 0 00.12-.15c0-.03-.03 0 0-.03.06-.06.12-.03.12-.12s-.03-.09-.03-.15c.06-.12.06-.09.12-.03a.164.164 0 01.15-.12c.03 0 .03 0 .09-.03l.03.03c0-.03.09-.03.09-.09l-.03-.03a.029.029 0 01.03-.03.093.093 0 01.03-.06c.03-.03.09-.06.12-.09 0 0 .06-.06.09-.06.03-.03.12-.12.12-.15a2.024 2.024 0 01.21-.15.093.093 0 00.06-.03v-.03a.18.18 0 00.12-.03c.03-.03 0-.09.12-.12h.03c.06 0 .06-.03.15-.09a.327.327 0 01.15-.03.11.11 0 00.09-.03l.09-.09v-.03a.029.029 0 01.03-.03h.03a.179.179 0 01.03-.12s.18-.03.21-.09c0 0 .06-.03.06-.06.03-.03.06-.03.06-.06a.11.11 0 00.09-.03 1.2 1.2 0 01.09-.12 1.089 1.089 0 00.21-.09s.06-.18.12-.21a.4.4 0 01.15-.09l.12-.12a3.519 3.519 0 01.33-.15c.03-.03.15-.09.18-.12.06-.03.15-.03.21-.06a1.769 1.769 0 00.24-.12c.09-.06 0-.06.33-.12h.06s.03.03.03 0a1.223 1.223 0 00.21-.06c.03 0 .03-.03.06-.06s.09 0 .12-.03a.962.962 0 00.15-.09v-.03h.12a.029.029 0 00.03-.03c.03 0 .06.03.09.03a.18.18 0 00.12-.03c.03 0 .03-.03.06-.03s.06.06.09.06a1.412 1.412 0 00.27-.09h.06c.03 0 .03-.03.06-.03h.03s.06.03.09 0v-.06c.03 0 .12 0 .15-.03 0 0 .03.09.18.09h.15s.03.03.03 0c.03 0 .06-.03.09-.03h.3l.03-.03a.77.77 0 00.15.06h.03c.03 0 .09.03.12 0a.364.364 0 01.15-.03c.15 0 .09.03.21-.03.06-.03.09-.09.18-.06l.03.03c.03 0 .18.03.21.03h.03a.1.1 0 01.06.03c.03 0 .03-.03.06-.03h.09l.09-.03h.03c.03 0 .03-.03.06-.03s.06.06.12.06h.09a.227.227 0 01.12.06h.18a1.11 1.11 0 00.27-.06c.03 0 .03.03.06.03 0 0 .03-.03.03 0a.23.23 0 01.15.06c0 .03-.03.09.36.03l.03-.03c.03 0 .03.03.06.03s.06-.03.09 0a.029.029 0 00.03.03c.03.03.12.03.09.12a.4.4 0 01.15.09.688.688 0 00.12.03l.03.03c.03 0 .03-.03.06-.03s.09.03.12.03c.03.03.03.06.12.03h.09c-.03.03.18.09.21.15.03 0 .03.06.09.09 0 0 .03-.03.03 0 .03 0 .12.06.15.06h.18c.09.03.3.24.33.24s.06 0 .06.03c.03 0 .03.03.06.03s.03 0 .06.03c.06.03 0 .06.09 0 .03-.03.06-.06.09-.03s.09.12.12.15a.03.03 0 01.03.03 2.587 2.587 0 00.3.18v.03c.03 0 .06 0 .06.03v.03c.03.03.09.06.09.09V13l.03.03c0 .03 0 .03.03.06a.029.029 0 00.03.03 1.017 1.017 0 00.36.36c.15.12.03-.03.21.36a.029.029 0 01.03.03c.06.09.03.12.09.06 0 .06.09.12.12.12a.107.107 0 00.06.09c.03.03.09.03.15.06a.822.822 0 01.12.21c0 .03.09.3.12.3a.029.029 0 00.03.03v.06c0 .03.09.09.12.12a.4.4 0 01.09.15c0 .03 0 .03.03.06.03.06.09.03.06.06a1.3 1.3 0 00.03.15c0 .03.03.03.06.03.03.03.15.24.18.27h.03v.06c0 .03.06.03.06.06.03.09 0 .18.03.24s0 0 0 .12a1.063 1.063 0 00.09.33.029.029 0 01.03.03.765.765 0 01.06.21c.03 0 .06.09.09.12a.094.094 0 01.06.03.029.029 0 00.03.03.093.093 0 01.06.03c.03.03-.03.18-.03.33a.029.029 0 01.03.03l-.03.03.03.03v.06l.03.06a.106.106 0 01.06-.03v.09l.06.06c0 .03.03.03.03.06.03 0 .06 0 .06.03.03.03 0 .06 0 .09l.03.03-.03.03v.12c0 .03.03.18.03.21s-.03.06-.03.12c0 .03.03.06.03.09v.12a.18.18 0 00.03.12c.03.06.03 0 .03.03.03.03.06.06.06.09v.09a.029.029 0 00.03.03v.06c0 .03.03.03.03.06s-.03.06-.03.09a.51.51 0 00.03.21v.15c0 .06.03.12.03.18l.03.03c.03.03.03.15.03.18s.03.12.03.18a.77.77 0 00.06.15c0 .06.03.15.03.21-.03.18-.06.12 0 .24l.03.03v.12c0 .03.03.03.03.06v.03c.03.03.06.06.06.09a.268.268 0 01.03.15v.09c0 .03-.03.06-.03.09a.03.03 0 00.03.03c0 .03-.03.09-.03.12v.21c0 .06.12.45.12.6 0 .06-.03.27-.03.3s.03.03.03.06v.03c0 .03.03.06.03.09v.06l.03.03v.15c.03.03.09.18.06.21h.03v.09c0 .03-.03.18-.03.21a1.979 1.979 0 00-.12.33s.03.09 0 .12h.06v.03a.029.029 0 01.03.03c.03.03 0 .06-.03.15v.03c-.03.09-.06.18-.09.3v.18a.3.3 0 01.03.09.77.77 0 00-.06.15v.03a.029.029 0 01-.03.03v.03c0 .03-.03.09-.03.12a.675.675 0 01.03.12c0 .03.03.06.03.09s-.09.15-.06.21a.227.227 0 01-.03.12c-.06.06-.09.12.03.12a.61.61 0 00-.03.15v.15c0 .03.03.03 0 .09s-.12.03-.06.27h-.03v.09h.06s-.06 0-.06.03c-.03.06-.03.12-.06.18 0 .03-.03.03-.06.06v.03l-.03.03a.561.561 0 00-.06.24h.03v.03a.03.03 0 00.03.03c.03.06-.03.27-.03.3 0 0 .03.03 0 .03 0 .03-.03.03-.03.06s.03.06.03.09l.03.03a1.067 1.067 0 01-.06.3v.03a.225.225 0 01-.03.15c-.03.03-.03 0-.03.03v.03l-.03.03a.105.105 0 01.03.06.029.029 0 01-.03.03s.03.03 0 .03c0 .03-.03.03-.03.06a.643.643 0 01-.03.18.029.029 0 01-.03.03.093.093 0 01-.03.06c0 .03-.09.09-.06.21a.148.148 0 00-.09.03 1.07 1.07 0 01-.03.18c0 .03.03 0 .06.03v.09a.5.5 0 00-.06.15.042.042 0 010 .06l-.03.03v.18c0 .03-.03.18-.03.24v.03c0 .06-.06.27-.06.33v.03c0 .03-.03.03-.03.06s.03.03.03.06-.03.06-.03.09.03.09.03.12-.06.09-.06.12a.763.763 0 00-.06.21c0 .03.03.03 0 .09h-.03a.182.182 0 01-.03.12.134.134 0 00-.09.12l.03.03a.174.174 0 010 .21c0 .03-.12.21-.15.3-.06.21-.03.06 0 .27v.24c0 .03-.03 0-.06 0a.208.208 0 00-.09.15.029.029 0 00-.03.03 1.721 1.721 0 01-.12.21l-.03.03v.21c0 .03-.03.06-.06.09a1.1 1.1 0 00-.06.27v.12a.029.029 0 00-.03.03c-.03.06-.03.12-.06.18a2.431 2.431 0 01-.12.27c0 .03-.06.03-.06.06v.09c0 .09-.06.06-.03.12l-.03.03v.03l-.03.03a.111.111 0 00-.03.09l-.03.03v.03c0 .03-.03.03-.03.06s.09.09.09.12a.3.3 0 01-.03.12 1.19 1.19 0 00-.12.09c-.03.06-.09.06-.09.09s.03.06 0 .06v.09h-.06a.111.111 0 00-.03.09v.03a.111.111 0 00.03.09c.03.03.06 0 .06.03a.1.1 0 00-.03.06c0 .03.03.03.03.06s-.03.03-.06.06v.06h-.03a.685.685 0 01-.12.03v.03a.105.105 0 00-.03.06v.09c0 .03.03.03.03.06s0 .12.06.15h.03v.03l.09.09h.09l.06.06h.03c.06 0 .09.03.15.03a.042.042 0 01.06 0 .669.669 0 00.15.15h.03l.03.03c.06.03.12.03.15.06.06 0-.03-.06.18.03h.03a.236.236 0 00.21.21.977.977 0 01.18.09h.09l.03.03c.03 0 .03-.03.03 0l.18.09a.093.093 0 00.03.06.412.412 0 00.33.12c.03 0 .12.03.15.03a1.07 1.07 0 01.3.06c.03.03.09.12.12.12s.15.03.18.03h.06c.03 0 .06-.03.09 0a.3.3 0 00.06.18h.06c.03 0 .03.03.06.03.06 0 .09-.06.15-.06h.09l.09.09a.6.6 0 00.24.12 1.258 1.258 0 00.18.06c.03 0 .06-.03.12 0l.03.03c.03 0 .06 0 .06.03v.03a.369.369 0 00.15.06 1.1 1.1 0 00.21-.09c.06-.06.06-.12.09-.18a.11.11 0 01.09-.03c.03 0 .06-.03.09-.03s.03.03.06.03a.283.283 0 00.21-.12.1.1 0 01.03-.06h.06l.03-.03a.111.111 0 00.09-.03v-.06c0-.03.03-.03.06-.06a.4.4 0 01.09-.15c.03-.06.06-.03.09-.12v-.06c.03-.03.06-.09.09-.12h.03c.03-.03.03-.06.06-.06 0 0 .12 0 .15-.09v-.06a.041.041 0 01.06 0c.03 0 .03-.03.06-.06h.03l.03-.03c.06-.03.06 0 .03-.06.03 0 .12-.03.12-.09 0-.03.03-.03.06-.06 0-.03 0-.06.03-.06a.131.131 0 00.12-.09v-.09l.09-.09v-.03s.03 0 .09-.06a.11.11 0 01.03-.09c0-.03.06-.03.06-.03a.656.656 0 01.09-.15c.03-.03.09-.03.03-.09h.06a.18.18 0 01.03-.12c.03-.03.06 0 .09-.03.06-.03.09-.12.15-.21a.029.029 0 00.03-.03.18.18 0 00.03-.12c0-.03.03 0 .06-.03a.111.111 0 00.03-.09l.03-.03c.03-.03.03-.09.06-.12 0-.03.03-.03.06-.03l.03-.09c.03-.06.12-.27.15-.33v-.06h.06a.155.155 0 00.06-.12c0-.03-.03-.06-.03-.09a.227.227 0 01.06-.12c.03-.06.15-.18.15-.21s0-.06.03-.06a.422.422 0 01.06-.12c.06-.09 0-.09.03-.18a.507.507 0 01.09-.18c.06-.03.06.03.06-.15v-.06c.03-.12.21-.45.21-.51 0-.03-.03-.06 0-.09 0-.03.03 0 .06 0v-.06c.03-.06.03.03.03-.12 0-.09.03-.15.03-.24 0 0-.03 0 0-.06a.4.4 0 00.09-.15c.06-.15.18-.21.18-.27 0 0-.03-.03 0-.03 0-.03.06-.06.06-.09v-.03c0-.03.03-.03.03-.06s-.03-.06-.03-.09v-.03c0-.06-.06-.06 0-.18 0-.03.06-.09.06-.09a.221.221 0 00.06-.18h.03v-.03l-.03-.03.03-.03c0-.03-.03-.06 0-.12h.03v-.15c0-.03.03-.03.03-.06.09-.15.06-.12.06-.15.03 0 .06-.09.06-.12v-.06a1.9 1.9 0 00.06-.21c0-.03-.03-.03-.03-.06s0-.03.03-.06c0-.03.06-.03.06-.06a.11.11 0 01.03-.09.029.029 0 01.03-.03c.03-.03 0-.06.12-.12 0 0-.06 0-.03-.03 0-.03.03-.03.03-.06s-.03-.03-.03-.06a.029.029 0 01.03-.03v-.09c0-.03.09-.15.09-.21v-.03a.1.1 0 01.03-.06v-.15c0-.03.03-.03.03-.06v-.06h.03a.093.093 0 01.03-.06.029.029 0 01.03-.03.746.746 0 01.03-.24c0-.03.06-.03.06-.06a.18.18 0 00.03-.12c0-.03.03-.03.06-.06v-.15c0-.03.03-.12.03-.15v-.03a1.507 1.507 0 01.15-.39c0-.03.03-.06.03-.09 0-.06-.06-.03-.03-.24a.029.029 0 01.03-.03c0-.03.06-.09.06-.12s.06-.09.06-.12v-.06c0-.03.03-.03.03-.06v-.03c0-.03.06-.06.09-.12.06-.09.03-.09 0-.18h.03c0-.03-.03-.18-.03-.24s.06-.09.06-.12a1.521 1.521 0 00.06-.27.1.1 0 00-.03-.06.911.911 0 01.15-.21v-.15c0-.03.03-.03.03-.06s-.03-.06-.03-.12v-.09c0-.03-.03-.03-.03-.06a1.066 1.066 0 01.06-.3c0-.03.03-.03.03-.09v-.27c0-.03-.06-.06-.06-.09a.029.029 0 00.03-.03c0-.03-.03-.03-.03-.06a.029.029 0 01.03-.03.18.18 0 01.03-.12.3.3 0 00.03-.09c0-.03.03-.03.03-.06v-.06c0-.03-.15-.24-.12-.3a.427.427 0 01.06-.12h.03c0-.03.03-.24.03-.24-.03-.06-.06-.03-.03-.12-.03 0-.03-.03 0-.06 0 0-.03 0 0-.03l.03-.03c0-.03 0-.06.03-.06a.029.029 0 00.03-.03v-.09c0-.03.03-.03.03-.06.03-.09 0-.12-.06-.27v-.03l-.03-.03c0-.03-.03-.06-.03-.09-.03-.03-.03-.03-.03-.09 0-.09.06-.18.06-.24 0-.03-.03-.03 0-.06h.03a1.3 1.3 0 00.03-.15 1.7 1.7 0 010-.39c0-.03.03-.03.03-.06 0 0-.03-.03 0-.03 0-.03.03-.03.03-.06v-.06c.51.42.51.42.51.39M7.59 26.231v.03l.03.03c0 .03-.03.06-.03.09a.029.029 0 01.03.03c0 .03-.03.03-.03.06s.03.09.03.12-.03.03-.03.06c-.03.12 0 .15-.03.18h-.03s.03.03 0 .03c0 .03-.06.03-.06.03a.029.029 0 01-.03.03h-.03c-.03 0 0 .03 0 .06 0 .12-.03.09-.03.15 0 .03 0 .03-.03.06a.029.029 0 00-.03.03v.03a.029.029 0 00-.03.03v.06h-.03c-.03.03-.15.12-.15.12a.18.18 0 00-.03.12.844.844 0 00-.03.24c0 .03-.09.12-.09.15V28c-.21 0-.15 0-.18.09a.44.44 0 01-.06.12c0 .03-.03.03-.06.03v.06s-.03-.03-.03 0c0 .09-.03.06-.12.12l-.12.12c-.03.03-.03.06-.06.09a.752.752 0 01-.21.12l-.06.06-.03.03v.03l-.029.03v.03c-.09.12-.12.06-.15.06h-.03c-.09 0-.12-.03-.12-.06v-.06h-.09c-.03 0-.03-.03-.06-.03h-.06a.029.029 0 01-.03.03.029.029 0 00-.03-.03h-.06a.21.21 0 01-.15-.18 1 1 0 00-.18-.09.029.029 0 00-.03-.03h-.09a.029.029 0 00-.03-.03c-.03-.03-.09-.03-.12-.09-.03-.03-.06-.12-.09-.12h-.06c-.03 0-.12-.06-.15-.06s-.12-.03-.15-.03h-.03a.029.029 0 00-.03-.03.986.986 0 00-.18-.09.1.1 0 01-.06-.03.029.029 0 01-.03.03q-.09-.044-.09-.09a.11.11 0 00-.09-.03.029.029 0 00-.03-.03c-.06-.06-.27-.24-.3-.27a.11.11 0 01-.09-.03.224.224 0 01-.09-.09.12.12 0 00-.12-.06.157.157 0 01-.09-.18c0-.03.03-.06.03-.09s-.06-.06-.06-.09.06-.18.09-.18h.03c.03 0 .03-.03.06-.03.03-.03.09-.03.09-.06.06-.06.03-.18.03-.21l.03-.03v-.03c0-.03.06-.09.06-.12s.03-.06.06-.09c0-.03 0-.06.03-.06.03-.06.12-.21.18-.21.03 0 .03 0 .06.03a.38.38 0 00.03-.18l.03-.03a1.235 1.235 0 01.09-.24l.09-.09a.148.148 0 00.03-.09.112.112 0 01.12-.09c.03-.03 0-.06 0-.09a.029.029 0 01.03-.03c0-.03 0-.06.03-.06.06-.06.12-.09.15-.12.03 0 0-.03.03-.06s.06-.03.06-.06a.029.029 0 01.03-.03c.06-.06.21-.12.24-.18a.11.11 0 01.03-.09c0-.06.03-.12 0-.15.06-.03.03-.03.03-.06.03-.06.27-.15.3-.18v-.06c.03-.06.06 0 .06.03h.06c.03.03.03.15.06.18a.065.065 0 00.06.06c.03.03 0 0 .03 0a.029.029 0 01.03.03h.09a.029.029 0 00.03.03c.03 0 .03 0 .06.03a.1.1 0 01.03.06c.03.03.12.06.12.09a.029.029 0 00.03.03c.03 0 .09.06.09.06a.44.44 0 01.12.06l.03.03c.03.03.15.06.18.09.09.09.06.09.03.09.09 0 .03.03.12.09.06.06.3.09.39.27 0 .03 0 .06.03.06a.093.093 0 01.06.03l.03.03h.09l.03.03h.06c.03 0 .03.03.06.06s.06.03.09.06v.06c.03.03.12.18.15.21a.427.427 0 00.12.06c-.03.03 0 0-.03 0v.06h.03c.03.03 0 .03.03.06 0 .03 0 0 .09-.03.06-.03.03 0 .03.03h.03c.03-.06-.06 0-.03.03M8.43 15.1c-.15 0-.09 0-.15.12a2.176 2.176 0 00-.15.27c0 .03 0 .03-.03.06 0 .03-.03.03-.06.03a.042.042 0 00-.06 0c-.09.03-.09.15-.15.24a.3.3 0 01-.03.09c-.03.03-.06.03-.12.03-.03 0-.06-.06-.12-.06a.227.227 0 00-.12.06c-.03.03-.03.06-.06.09h-.03v.03h-.06c-.03 0-.09.15-.12.18a.191.191 0 01-.21.03c-.12 0-.12.06-.21.09a.11.11 0 00-.09.03c-.06.03-.03.06-.09.12s-.09 0-.12 0c0 0-.15.09-.12.12-.06-.03-.06-.03-.06 0-.03 0-.03.03-.06.06 0 0-.03-.03-.03 0a1.769 1.769 0 00-.24.12c-.03 0-.03-.06-.09-.09a.18.18 0 00-.12-.03c-.03 0-.03-.09-.03-.12-.03-.09-.12-.06-.15-.06a.161.161 0 01-.09-.12l-.12-.12a.029.029 0 01-.03-.03.093.093 0 00-.03-.06h-.06c-.06 0-.03-.09-.06-.15 0 0-.06-.06-.06-.09v-.12l-.03-.03c-.03 0 0 0 0-.03s-.03 0-.06 0-.15-.12-.18-.12h-.029a.4.4 0 00-.09-.15c-.06-.06-.21-.33-.24-.36 0-.03-.03-.09-.06-.09h-.03a.148.148 0 01-.03-.09c0-.03-.03-.03-.03-.06h.03a.3.3 0 01-.03-.09c0-.03.03-.03.03-.06s-.06-.03-.06-.06a.11.11 0 00-.03-.09.234.234 0 00-.12-.09.409.409 0 01-.15-.27 1.2 1.2 0 01.09-.12c.03-.03.18-.03.21-.06.03 0 .03-.03.03-.06.15-.15.15-.09.24-.12.03 0 .03-.03.06-.03v-.06h.03c.03-.03.09-.09.12-.09a.11.11 0 01.03-.09c0-.03.06 0 .06 0v-.15h.03l.03-.03c.06-.03.15-.03.15-.06v-.06c.03-.06.06-.03.09-.03s.03-.09.03-.09a.431.431 0 00.09-.06.029.029 0 01.03-.03c.06-.03.24-.06.3-.18v-.03h.03c.06-.18.09-.18.12-.18-.03-.12.03-.06.06-.09a.029.029 0 01.03-.03c.03 0 .09-.06.09-.06h.03a.029.029 0 00.03-.03h.24c.06-.06.03-.06.15-.09.06 0 .12-.18.15-.18.06-.09.12-.03.15-.03h.03a.029.029 0 01.03-.03.191.191 0 01.18 0c.03.03 0 .12.03.12.03.03.09.03.12.09a2.305 2.305 0 01.18.21.029.029 0 01-.03.03c0 .03.03.03.06.06a.11.11 0 00.03.09c.09.18 0 .12.21.33a2.061 2.061 0 01.18.39h.06c.03 0 0 .03.03.06s.15.12.15.12v.03h.03a.093.093 0 01.03.06.029.029 0 01.03.03.22.22 0 01.06.18.156.156 0 00.06.12c.03.06.03.15.06.18a.093.093 0 01.06.03c.06.03.03.09.03.12s.06.09.09.15c0 .03.06.09.06.09a.66.66 0 00.03.24l.03.03c0 .03-.06.09-.06.12-.06.03-.03.06-.03.06m11.038-8.428c0 .06-.06.18-.09.18a.029.029 0 01-.03-.03c-.03 0-.03.03-.06.03s-.06-.03-.09-.03-.03.03-.06.06-.06.03-.09.06 0 .06 0 .09a.11.11 0 01-.09.03.029.029 0 01-.03.03s-.03-.03-.03 0c-.06.03-.06.06-.09.09 0 .03-.06.06-.06.09-.06.06-.12 0-.15 0a.065.065 0 00-.06.06c-.09.09-.03.09-.15.12h-.12c-.03 0-.06.12-.09.12a.11.11 0 01-.09.03.325.325 0 01-.18.12h-.03c0 .06 0 .06-.06.12h-.03a1.311 1.311 0 01-.24.21c-.03 0-.06.03-.09.03a.029.029 0 01-.03.03l-.03-.03c-.06 0-.09.03-.15.06a.18.18 0 01-.12.03c-.03.03-.09.12-.12.15a.093.093 0 00-.06.03.44.44 0 00-.12.06c-.03.03-.06.12-.09.15h-.18l-.03-.03c-.03 0-.06.03-.09.03a.029.029 0 01-.03.03.44.44 0 00-.12.06c-.03.03-.06.06-.09.06a.11.11 0 01-.09-.03c-.03-.03 0-.06-.03-.09-.03-.09-.09-.06-.12-.09-.06-.03-.06-.12-.09-.12 0-.03-.09-.06-.09-.06a.11.11 0 01-.03-.09V8.2l-.03-.03v-.06c0-.03-.03-.03-.06-.06v-.03c-.03-.03-.09-.06-.12-.09l-.09-.09a.093.093 0 00-.06-.03l-.03-.03s-.03.03-.03 0c-.03 0-.03-.03-.06-.06a1.2 1.2 0 01-.09-.12c-.03-.03-.09-.24-.12-.27 0-.03-.03-.03-.06-.06a.148.148 0 01-.03-.09l-.03.03c-.12-.09-.21-.12-.24-.18v-.06h-.03a.11.11 0 01-.03-.09.029.029 0 01-.03-.03V6.7c0-.06-.03-.09-.06-.15-.03-.03-.21-.12-.24-.18a2.067 2.067 0 00-.09-.24c-.03 0-.03 0-.06-.03-.03 0-.12-.06-.12-.09a.12.12 0 01-.06-.12c0-.03-.03-.03-.03-.06a.029.029 0 01.03-.03v-.03a1.674 1.674 0 00.15-.24c.06-.18.15-.18.15-.18.03 0 .06-.06.09-.06.03-.03 0 0 0-.03s.09-.03.09-.03c.03 0 .06-.03.18-.15.06-.06.06-.18.15-.18h.03a.11.11 0 01.03-.09c.03-.03.06-.06.06-.09.03-.03.06-.09.12-.12a.229.229 0 01.15-.06l.03.03c.03 0 .03-.03.06-.03h.03c.03-.03.06-.09.09-.09.03-.06.15-.06.18-.06a.029.029 0 01.03-.03h.06c.03 0 .03-.06.06-.06 0-.03.09-.06.09-.09a.093.093 0 01.03-.06.029.029 0 00.03-.03v-.03a.029.029 0 00.03-.03c.03-.06.03-.09.09-.12h.03a.093.093 0 01.03-.06c.06-.06.06-.03.09-.06.03 0 .03-.03.06-.06a.337.337 0 00.24-.09.093.093 0 01.03-.06c.03-.03.09-.03.12-.06a.029.029 0 00.03-.03s.03.03.03 0c.03 0 .06-.03.09-.03h.09a.1.1 0 01.06.03c.06.03.21-.03.21-.03a.029.029 0 00.03-.03l.03.03c.03 0 .06 0 .06.03.03 0 .09.06.12.09a.029.029 0 00.03.03c.03.03.09.03.12.06.06.03.15.15.12.18a.184.184 0 01.18.06l.06.06s-.03.03 0 .03a.029.029 0 01.03.03.11.11 0 00.03.09.131.131 0 00.12.09.093.093 0 00.03.06c.03.03.09.03.15.06a.029.029 0 00.03.03c.06.06.21.27.24.3s.09.06.12.09c.06.06.18.3.24.36.03 0 .03 0 .06.03a.029.029 0 00.03.03c.03 0 .06 0 .06.03v.06c.03.03.06.06.06.09a.11.11 0 00.03.09c0 .03.03.03.03.06v.06a.3.3 0 01.15.12v.03h.03a.81.81 0 01.15.33v.15c0 .03.06 0 .09.03s0 .06.03.09c.03-.03.09.03.09.09s-.03.09-.03.15c-.18.03-.15.06-.15.09m9.569 7.83a.148.148 0 00-.03-.09c0-.03-.06 0-.06 0-.03 0-.12-.09-.12-.09s.03-.03 0-.03a.029.029 0 00-.03-.03c0-.03-.03-.06-.03-.09h-.03c-.03-.09-.12-.09-.12-.06a.426.426 0 01-.18-.06c-.03 0-.03 0-.06-.03l-.09-.09v-.03c-.03-.06-.18-.15-.21-.18 0-.03 0-.03-.03-.06s-.06-.06-.09-.06c-.03-.03 0-.06 0-.09s-.03-.03-.06-.03c-.03-.03-.03-.03-.03-.06v-.03c0-.03-.06-.03-.06-.06a.111.111 0 00-.03-.09.042.042 0 00-.06 0c-.03 0-.06-.03-.09-.06a.1.1 0 01-.06-.03.029.029 0 00-.03-.03c-.03 0-.06-.09-.09-.12 0-.03 0-.06-.03-.06v-.03c-.03 0-.12-.15-.15-.15h-.06c-.03-.03-.12-.12-.15-.12-.03-.03-.06-.03-.09-.06-.03-.06-.12-.21-.12-.21 0-.03-.06-.06-.09-.09a.092.092 0 00-.06-.03 1.283 1.283 0 01-.12-.21.03.03 0 01-.03-.03v-.03h-.03v-.03s.03-.03 0-.03c0-.03-.03-.03-.03-.06.06-.09.18-.15.15-.21h.03a.4.4 0 01.03-.15c.03-.03.06-.06.09-.06s.03 0 .06-.03c.03 0 .03-.03.03-.06h.03v-.06a2.824 2.824 0 01.3-.3v-.06h.06c.03 0 .03-.03.03-.06h.09v-.06c0-.03.03-.03.03-.06h.03v-.03a.156.156 0 01.12-.06c.06-.03.15 0 .18-.03v-.03s.06-.03.06-.06c.03-.03.03-.09.06-.12a.424.424 0 00.09-.06c.03-.03.03-.06.06-.09a.418.418 0 01.12-.09l.09-.09c.03-.03.06 0 .12 0h.03c.03 0 .03.03.06.03a667.171 667.171 0 00.06-.06c.03-.03 0-.06.03-.09 0-.03.09-.06.12-.06a.093.093 0 01.03-.06.3.3 0 01.09-.03V9.7h.03c.12-.06.09-.12.15-.09a1.979 1.979 0 00.33-.12c.03 0 .03.03.06.03l.03-.03c.06 0 .06.03.09.06l.09.09a.1.1 0 01.06.03.029.029 0 00.03.03c.03 0 .06 0 .06.03.03 0 .09.09.12.09h.06v.03c.03 0 .03.03.06.03a.093.093 0 00.03.06c.03.03.09.03.12.06s0 .06.03.06a.11.11 0 00.09.03c.03 0 .03.06.03.06.03.03.15.18.18.18.03.03.12.03.12.03v.06c.03.03.09.03.12.06.03 0 0 .03.03.06s.06.03.06.06v.06c.03.03.06.03.06.06s.06.09.09.12a.1.1 0 00.06.03v.06a.057.057 0 01.09.03c0 .03-.03.03-.03.06 0 0 0 .06.03.06 0 0 .03-.03.03 0l.03.03v.03c0 .03.03.03.06.03a.266.266 0 01.12.15v.06h.06a.507.507 0 00.06.15v.06c0 .09.06.09.12.12l.03.03h.03v.06a.3.3 0 01.09-.03 1.083 1.083 0 01.12.15c.03.06.09.06.09.12 0 .03-.03.03-.03.06a.318.318 0 01-.12.18c-.03.03-.06 0-.09.03v.03c0 .03.03 0 .06.03.06.03-.06.12-.09.15-.06.06-.06.06-.09.06-.03.03-.03.09-.06.12s-.03.06-.09.06h-.03c0 .09.03.03-.09.09-.03 0-.03.03-.06.03h-.06c-.06 0-.03.03-.09.06.03.09 0 .09-.06.15-.03.03-.03.09-.06.12h-.06s.03.06 0 .06c0 .03-.03 0-.06.03l-.03.03c-.03 0-.09.03-.12.03v.03c-.03.03-.15.15-.15.18v.06c0 .03-.06 0-.06.03-.03.03 0 .06-.03.09s-.06 0-.06.03c-.03.03 0 .06-.03.09a.427.427 0 01-.12.06c-.03 0 0 .03-.03.06s-.21.09-.24.12-.12.15-.15.15a.029.029 0 01-.03.03.653.653 0 01-.24.15h-.117c-.03 0-.03.06-.06.06-.09.09-.06.03-.09.03-.12 0-.21 0-.21-.03m4.38 11.849h-.06c-.12 0-.12-.03-.15-.03h-.03c-.03 0-.06.03-.09.06a.752.752 0 00-.21.12h-.09l-.03.03h-.15c-.03 0-.03.03-.06.03h-.24a.029.029 0 00-.03.03h-.03a.029.029 0 00-.03.03c-.12.03-.12 0-.21.09-.03.03-.09.03-.15.06h-.03c-.03 0 0 .03-.03.06a.446.446 0 01-.21 0l-.03-.03c-.03 0-.06.03-.09.03-.06 0-.18-.03-.21.03-.03.03-.03.06-.06.09-.06.06-.15.03-.18.03s-.06.03-.09.06c-.03 0-.06.06-.09.06-.03.03-.03.03-.06.03a.1.1 0 01-.06.03l-.03.03a2.25 2.25 0 01-.36.03.093.093 0 00-.03-.06c-.09.03-.03 0-.06-.06 0-.09-.06-.09-.12-.15-.06-.09-.03-.06-.03-.12s-.03-.03-.06-.12v-.09a1.767 1.767 0 00-.15-.39l.03-.03c0-.03-.03-.06-.06-.09 0 0 .03-.03 0-.03a.706.706 0 00-.06-.24.029.029 0 00-.03-.03.426.426 0 01-.06-.18v-.09c0-.03-.03-.06-.03-.09a1.8 1.8 0 00-.21-.42.81.81 0 010-.27V24.7a.282.282 0 00-.09-.27c-.03-.03 0-.06-.09-.12h-.03a.586.586 0 01.03-.21l.09-.09c.06-.09.06-.12.09-.15a.3.3 0 01.12-.03.11.11 0 00.09-.03.029.029 0 00.03-.03.11.11 0 01.09-.03.927.927 0 01.24-.06h.03c.03 0 .06.03.09.03s.03-.03.06-.03.12-.03.15-.03 0-.03.03-.06.09-.03.12-.06c.09-.06.06-.06.12-.06.03 0 .18.03.24-.06a.39.39 0 01.33-.09c.03 0 .06.03.09.03a.507.507 0 00.15-.06c.03-.03.06-.09.12-.12.03-.03.09 0 .12 0a.065.065 0 01.06-.06c.03 0 .03.03.06.03h.06s.03.03.03 0l.03-.03h.03c.03 0 .03-.03.06-.06s.06 0 .09 0h.06c.06 0 .06 0 .09-.03.03 0 .18-.06.24 0a.029.029 0 00.03.03c.03.03.03 0 .06 0 .06-.03.12.03.15.03h.03v.03c0 .03.03.03.03.06 0 0-.03.03 0 .03a.317.317 0 00.06.15s.06.06.06.09v.06a.029.029 0 00.03.03c.06.12 0 .18 0 .24 0 .03.06.18.06.24 0 0-.03.03 0 .03a.029.029 0 01.03.03c0 .03 0 .03.03.06a.4.4 0 00.09.15c.03.03.06.03.06.09v.03c0 .03.03.06.03.09s-.03.03-.03.06.03.03.03.06v.15c0 .06.03.06.06.09s.12.18.15.21h-.03c0 .03 0 .03.03.09.06.12.03.06.03.12 0 .03.03.06.03.09.03.18-.03.12 0 .18a.029.029 0 01.03.03c.03.12.15.51.06.45 0 .03.06.12.06.15a.029.029 0 00-.03.03c0 .03.03.12.03.15s-.03.03 0 .03a.1.1 0 01.06.03.315.315 0 00-.3-.06" fill="#4d2200"/></g></g></svg>