<svg xmlns="http://www.w3.org/2000/svg" width="35" height="35"><path data-name="パス 766" d="M17.5 3.178c4.7 0 5.25 0 7.092.092a10.749 10.749 0 013.27.6 5.854 5.854 0 012.026 1.289 4.935 4.935 0 011.289 2.026 10.435 10.435 0 01.6 3.27c.092 1.842.092 2.395.092 7.092s0 5.25-.092 7.092a10.749 10.749 0 01-.6 3.27 5.854 5.854 0 01-1.289 2.026 4.935 4.935 0 01-2.026 1.289 10.435 10.435 0 01-3.27.6c-1.842.092-2.395.092-7.092.092s-5.25 0-7.092-.092a10.749 10.749 0 01-3.27-.6 5.854 5.854 0 01-2.026-1.289 4.935 4.935 0 01-1.289-2.026 10.435 10.435 0 01-.6-3.27c-.092-1.842-.092-2.395-.092-7.092s0-5.25.092-7.092a10.749 10.749 0 01.6-3.27 5.854 5.854 0 011.289-2.027 4.935 4.935 0 012.026-1.289 10.435 10.435 0 013.27-.6c1.842-.091 2.392-.091 7.092-.091M17.5 0c-4.743 0-5.342 0-7.23.092a12.057 12.057 0 00-4.237.829A9.1 9.1 0 00.921 6.033a13.478 13.478 0 00-.829 4.237C0 12.158 0 12.757 0 17.5s0 5.342.092 7.23a12.057 12.057 0 00.829 4.237 9.1 9.1 0 005.112 5.112 13.478 13.478 0 004.237.829C12.158 35 12.757 35 17.5 35s5.342 0 7.23-.092a12.057 12.057 0 004.237-.829 9.1 9.1 0 005.112-5.112 13.478 13.478 0 00.829-4.237C35 22.842 35 22.243 35 17.5s0-5.342-.092-7.23a12.057 12.057 0 00-.829-4.237A9.1 9.1 0 0028.967.921 13.478 13.478 0 0024.73.092C22.842.046 22.243 0 17.5 0z" fill="#5f4b35"/><path data-name="パス 767" d="M17.5 8.598a8.948 8.948 0 108.952 8.948A8.963 8.963 0 0017.5 8.598zm0 14.747a5.8 5.8 0 115.8-5.8 5.806 5.806 0 01-5.8 5.8z" fill="#5f4b35"/><circle data-name="楕円形 1" cx="2.138" cy="2.138" transform="translate(24.699 6.071)" fill="#5f4b35" r="2.138"/></svg>