<svg xmlns="http://www.w3.org/2000/svg" width="339" height="50" viewBox="0 0 339 50">
  <g id="グループ_26670" data-name="グループ 26670" transform="translate(-18 -718)">
    <g id="長方形_403" data-name="長方形 403" transform="translate(18 718)" fill="#fff" stroke="#4d2200" stroke-width="1">
      <rect width="339" height="50" stroke="none"/>
      <rect x="0.5" y="0.5" width="338" height="49" fill="none"/>
    </g>
    <g id="グループ_26583" data-name="グループ 26583" transform="translate(144.216 722.03)">
      <g id="グループ_39" data-name="グループ 39" transform="translate(0 0)">
        <g id="グループ_48" data-name="グループ 48" transform="translate(-30.515 7.459)">
          <path id="パス_682" data-name="パス 682" d="M93.8.151a.569.569,0,0,0,0,.42c.079.21.289.367.918.289,1-.131,1.076-.315.656-.63C95-.033,93.955-.085,93.8.151" transform="translate(-74.483 0)" fill="#4d2200" stroke="#4d2200" stroke-width="0.4"/>
          <path id="パス_683" data-name="パス 683" d="M245.044,2.146a2.386,2.386,0,0,0-1.207,3.1c.525,1.154,1.391,1.154,2.493-.026,1.049-1.128,1.364-2.939.525-2.939a.569.569,0,0,1-.42-.157c-.21-.315-.761-.315-1.391.026m1.286.735c.289.341-.052,1.312-.708,1.915-.84.813-1.443.262-1.05-.971.289-.971,1.286-1.5,1.758-.945" transform="translate(-196.684 -1.392)" fill="#4d2200" stroke="#4d2200" stroke-width="0.4"/>
          <path id="パス_684" data-name="パス 684" d="M134.913,6.316c-.42.367-.42.367-.079.656.367.315.367.525.052,1.705a1.855,1.855,0,0,1-1,1.233,1.788,1.788,0,0,0-.971,1.181c-.184.761.026,1.574.42,1.653.446.079,1.391-.918,1.679-1.758.262-.761.315-.813,1.181-1a7.869,7.869,0,0,1,2.807-.341,9.054,9.054,0,0,1-.394,1.732c-.341,1.233-.394,1.653-.236,1.81.367.367.708-.236,1.181-2.047L140,9.438l.682.1c.63.1.682.079.682-.315,0-.446-.289-.656-.866-.656-.21,0-.315-.131-.289-.394.026-.6-.525-.6-.735,0-.157.472-.262.525-1.627.708-2.2.315-2.1.341-1.968-.735.236-1.705.184-2.125-.21-2.178a1.708,1.708,0,0,0-.761.341m-.84,4.959c-.1.21-.236.262-.289.262-.394,0-.079-.813.315-.656.079.026.1.157,0,.367Z" transform="translate(-106.83 -4.407)" fill="#4d2200" stroke="#4d2200" stroke-width="0.4"/>
          <path id="パス_685" data-name="パス 685" d="M275.438,8.668a26.315,26.315,0,0,1-1.417,2.493,5.191,5.191,0,0,0-.813,1.6c0,.682.367.682.918,0,.656-.813,1.758-1.548,2.256-1.469.289.052.446.262.656.918.394,1.286.84,1.548,2.361,1.443a4.948,4.948,0,0,0,2.781-.761c.6-.6.026-.945-.84-.525a5.833,5.833,0,0,1-2.991.472c-.315-.131-.446-.341-.551-.892-.184-1.076-.84-1.627-1.784-1.5l-.708.1.682-1.181c.708-1.207.813-1.837.315-1.915-.184-.052-.42.315-.866,1.207" transform="translate(-220.025 -5.5)" fill="#4d2200" stroke="#4d2200" stroke-width="0.4"/>
          <path id="パス_686" data-name="パス 686" d="M215.989,10.8a.616.616,0,0,0-.131.42c0,.184-.21.394-.5.472-.813.289-1.207.682-.971.918.157.157.315.157.656,0,.525-.236.525-.131.21,1.286-.157.656-.289.892-.551.918-.892.131-1.076.236-1.286.656a2.674,2.674,0,0,0-.21.577,2.2,2.2,0,0,0,1.1,1.076c.315,0,1.181-.971,1.181-1.338,0-.184.262-.236,1.128-.236,1.023,0,1.128-.026,1.128-.341s-.131-.341-.971-.341c-1.1,0-1.128-.026-.656-1.627.236-.84.394-1.076.787-1.233.551-.21.656-.63.157-.63a.658.658,0,0,1-.525-.341c-.157-.341-.367-.42-.551-.236m-1.181,4.933a.762.762,0,0,1-.236.367c-.262.21-.551-.052-.367-.341.131-.21.6-.236.6-.026" transform="translate(-171.707 -7.898)" fill="#4d2200" stroke="#4d2200" stroke-width="0.4"/>
          <path id="パス_687" data-name="パス 687" d="M6.227,11.807c-.63.21-1.233.394-1.338.42a7.566,7.566,0,0,0-1.207.446c-.945.42-1,.472-.708.735.236.236.367.262.63.079a8.189,8.189,0,0,1,1.522-.551c.656-.184,1.338-.394,1.522-.472.289-.1.315-.079.21.367-.079.289-.21,1.181-.315,2.02-.289,2.361.1,2.939,1.863,2.676A3.819,3.819,0,0,0,9.8,16.95c.341-.262.892-.656,1.233-.918a6.4,6.4,0,0,0,1.233-1.364,5.384,5.384,0,0,1,.84-1.023,2.443,2.443,0,0,1,1.181.551c.971.63,1.259.682,1.338.236.052-.367-1.758-1.548-2.335-1.548-.63,0-.708.079-1.522,1.286a4.731,4.731,0,0,1-1.05,1.207,4.592,4.592,0,0,0-.813.6,3.4,3.4,0,0,1-1.915.84c-.131-.026-.367-.026-.472-.052-.289-.026-.289-1.705.026-3.149.315-1.417.315-2.02.026-2.152a4.278,4.278,0,0,0-1.338.341" transform="translate(-2.819 -8.455)" fill="#4d2200" stroke="#4d2200" stroke-width="0.4"/>
          <path id="パス_688" data-name="パス 688" d="M341.265,14.28c-1.286.6-1.889,1.522-1.627,2.493.236.918.577,1.128,1.207.813a5.727,5.727,0,0,0,1.732-2.257c.131-.472.708-.525,1.155-.1.289.289.341.472.289,1.1-.079.813.157,1.207.5.866a2.241,2.241,0,0,0,.079-1.968,2.657,2.657,0,0,0-3.332-.945m.551.866c-.236.656-1.023,1.679-1.259,1.679-.472,0-.262-.735.367-1.338.656-.63,1.076-.787.892-.341" transform="translate(-273.113 -10.351)" fill="#4d2200" stroke="#4d2200" stroke-width="0.4"/>
          <path id="パス_689" data-name="パス 689" d="M81.582,14.08a13.933,13.933,0,0,0-.341,3.28c.131.42.551.446,1.05.079a2.906,2.906,0,0,1,2.6.079,1.088,1.088,0,0,1,.289.577c0,.551-.551,1.574-.892,1.653-.394.1-.42.236-.131.525.472.472.945.131,1.443-1a3.21,3.21,0,0,0,.157-2.02,1.885,1.885,0,0,0-.787-.63,2.581,2.581,0,0,0-1.81-.236l-1.128.131.1-1.233c.1-1.05.079-1.233-.184-1.338-.184-.026-.315,0-.367.131" transform="translate(-64.355 -10.283)" fill="#4d2200" stroke="#4d2200" stroke-width="0.4"/>
          <path id="パス_690" data-name="パス 690" d="M194.029,18.439a8.853,8.853,0,0,0-.5,2.965c.131.315.813.341.813.026V20.7a8.225,8.225,0,0,1,.21-1.522,3.161,3.161,0,0,0,.157-1.076c-.184-.21-.5-.079-.682.341" transform="translate(-155.759 -13.277)" fill="#4d2200" stroke="#4d2200" stroke-width="0.4"/>
        </g>
        <g id="グループ_26584" data-name="グループ 26584" transform="translate(45.696 6.008)">
          <path id="パス_681" data-name="パス 681" d="M320.758,84.575c.026,0,.026,0,.052.026h.157a.092.092,0,0,1,.052.026.026.026,0,0,1,.026-.026h.1l.026.026h.052l.026.026c.026,0,.026,0,.052.026h.026a.736.736,0,0,1,.131-.026l.026.026h.21c.026.052.052.026.052.026h.131c.053,0,.026,0,.053.026h.026c.026.026.026,0,.052.026.026,0,.026.026.052.026l.026.026a.081.081,0,0,0,.052.026h.131a.264.264,0,0,1,.079.026l.052.026h.026l.026.026h.131v.026l.026.026h.079c.052,0,.052.026.052.026h.026v.026l.026.026h.026v.026a.026.026,0,0,1,.026.026v.026l.026.026v.026c.026.026.026,0,.026,0,.026,0,.026,0,.052.026l.026.026h.026l.053.052v.026a.092.092,0,0,0,.026.052.026.026,0,0,1,.026.026c.026,0,.026,0,.026.026h.026c.026,0,0,.026.026.026l.026.026v.026h.027l.026.026h.026c.026,0,0,0,.026.026.026,0,.026.026.052.026s0,0,0,.026a.026.026,0,0,0,.026.026h.052l.026.026a.026.026,0,0,0,.026.026l.026.026h.026c.026,0,.026.026.053.026l.052.052v.026h.026l.026.026v.026h.026a.026.026,0,0,0,.026.026l.026.026v.026c0,.026.026.026.026.052v.052h.026l.026.026V86.1c0,.026.052.079.052.079V86.2h.026l.026.026v.026s.026.052.052.052h.026v.052l.026.026.026.026v.026c0,.026.052.052.052.079V86.6h.026c0,.026.026.052.026.079l.026.026v.026s0-.026.026.026l.026.026a.092.092,0,0,0,.026.052h.026v.079a.026.026,0,0,0,.026.026v.026c.026,0,.052.052.052.079s0,.026.026.052v.026s0,.052.026.052l.026.026v.026a.026.026,0,0,1,.026.026v.026l.026.026v.131l.026.052v.131a.026.026,0,0,1,.026.026v.21l.026.026v.052h.026v.184c0,.026,0,.026.026.052a.092.092,0,0,0,.026.052v.052l.026.026v.1h.026a.092.092,0,0,1,.026.052h.026v.052c0,.026-.026.079,0,.131v.026l.026.026v.236s0,.052.026.052v.131c0,.026.026.052.026.079v.079c.026.052,0,.026,0,.052v.341a.036.036,0,0,1,0,.052v.21c-.026,0,0,0,0,.026s0,.052-.026.052v.052c0,.026.026.052,0,.079v.184l-.026.026a.262.262,0,0,0,.026.079v.105a.026.026,0,0,0,.026.026v.1c0,.026-.026.052-.026.079v.131l-.026.052v.026a.13.13,0,0,1-.026.079l-.026.026v.1l-.026.026v.052l-.026.026a.026.026,0,0,1-.026.026c-.026.052,0,.052,0,.052v.026a.594.594,0,0,0-.026.1v.1l-.026.026v.21l-.026.052v.052l-.026.026v.026h-.026l-.026.052v.026c0,.026,0,.026-.026.026v.131l-.026.026c-.026.026,0,.026,0,.052v.052a.026.026,0,0,1-.026.026c0,.026-.026.026-.052.052l-.026.026v.131a.323.323,0,0,0-.052.131c0,.052,0,.026-.026.026a.092.092,0,0,0-.026.052v.052a.026.026,0,0,1-.026.026v.026a.092.092,0,0,0-.026.052V93a.026.026,0,0,1-.026.026H324.2v.026l-.026.079v.026h-.026v.052h-.026v.026c-.026.026-.026.052-.053.052h-.026v.026h-.026v.026a.026.026,0,0,1-.026.026h-.026v.026a.026.026,0,0,1-.026.026l-.026.026v.026a.026.026,0,0,1-.026.026v.052a.026.026,0,0,1-.026.026V93.6l-.026.026H323.8v.026c0,.026-.026.026-.052.026l-.026.026-.026.026c0,.026,0,.026-.026.026l-.026.026-.026.026v.026h-.053v.026a.081.081,0,0,1-.052.026h-.052a.081.081,0,0,1-.026.052l-.052.026a.026.026,0,0,1-.026-.026h-.1a.092.092,0,0,1-.053-.026l-.026-.026h-.026a.026.026,0,0,0-.026.026h-.052c-.026,0-.026-.052-.026-.052h-.1l-.026-.026a.265.265,0,0,0-.079-.026H322.8c-.026,0-.079,0-.079-.026a.092.092,0,0,0-.052-.026h-.026c-.026,0-.026-.026-.053-.026a.051.051,0,0,1-.052-.052c-.052-.026-.026,0-.052,0a.081.081,0,0,1-.052-.026.092.092,0,0,1-.026-.052h-.052a.026.026,0,0,0-.026-.026h-.026a.026.026,0,0,1-.026-.026V93.47h.026v-.026l.026-.026v-.1l.026-.026.026-.026v-.026l-.026-.026v-.079l.026-.026a.265.265,0,0,0,.026-.079c0-.026,0-.026.026-.052v-.026a.129.129,0,0,1,.026-.079v-.079l.026-.052c0-.026,0-.026.026-.026h.026v-.052c0-.052-.026-.026,0-.052a.264.264,0,0,1,.026-.079v-.052a.026.026,0,0,1,.026-.026v-.052s0-.052.026-.052l.026-.026v-.052a.265.265,0,0,1,.026-.079v-.131c0-.026,0-.026.026-.052v-.079h.026c0-.026,0-.052.026-.052v-.42l.026-.026v-.052h0v-.026c-.026-.052,0-.052,0-.079.026-.026,0-.026,0-.026v-.052c-.026,0-.026-.026,0-.026v-.026a.092.092,0,0,1,.026-.052V91l.026-.026V90.9c0-.026.026-.052.026-.079v-.026h-.026v-.026a.264.264,0,0,1,.026-.079v-.052l-.026-.052v-.157c0-.026-.026-.131-.026-.157v-.157l-.026-.026v-.157a.092.092,0,0,1-.026-.052v-.341a.026.026,0,0,0-.026-.026V89.3H322.7l-.026-.026v-.026h-.026v-.131l-.026-.026s0-.052-.026-.052a.264.264,0,0,1-.026-.079v-.131c-.026-.026-.052-.052-.052-.079v-.026l-.026-.026v-.026l-.026-.026-.026-.026v-.026l-.026-.079a.081.081,0,0,0-.026-.052h-.026l-.026-.026-.026-.026c-.026,0,0,0-.026-.026-.052-.1-.026-.052-.052-.079l-.079-.079V88.2l-.026-.026H322.1c-.026,0-.053-.026-.079-.052l-.026-.026h-.026c-.026.026,0,0-.026,0h-.079s-.052-.052-.079-.052h-.052l-.026-.026a.026.026,0,0,1-.026-.026.092.092,0,0,1-.052-.026h-.131l-.026-.026a.026.026,0,0,0-.026-.026h-.026c-.1.026-.079,0-.079,0l-.026-.026h-.184l-.026-.026h-.236c-.026.026,0,0-.052,0h-.052l-.026-.026h-.157c-.052,0-.052-.026-.052-.026h-.052v.026h-.079c-.026,0-.052.026-.079.026h-.131l-.026.026h-.026l-.026.026a.092.092,0,0,0-.052.026c-.079.026-.052,0-.079.026l-.052.026c-.026,0-.026,0-.052.026a.092.092,0,0,1-.053.026.264.264,0,0,0-.079.026l-.026.026-.026.026c-.026,0-.026.052-.026.052l-.052.026-.026.026h-.026l-.026.026H319.5l-.052.026V88.3l-.026.026h-.052a36.478,36.478,0,0,0-.052.052h-.026a.092.092,0,0,0-.052.026l-.026.026-.026.026a.026.026,0,0,0-.026.026v.026a.026.026,0,0,1-.026.027H319.1a.026.026,0,0,0-.026.026c-.026,0-.026-.026-.026,0v.026c0,.026-.026,0-.026.026l-.026.026v.026h-.026v.026h-.026v.1s0,.052-.026.052l-.026.026a111.959,111.959,0,0,1-.052.1l-.026.052v.131l-.026.026v.026l-.026.052v.1l-.026.026v.315a.026.026,0,0,1-.026.026v.026c0,.052,0,.026.026.052.026,0,0,.026,0,.026V89.9c-.026.026,0,.026,0,.052v.131c.026-.026.026,0,.026.026l-.026.052c0,.026-.026.026-.026.052a.092.092,0,0,0,.026.052v.367c0,.026.026.052.026.079v.157a.264.264,0,0,1,.026.079c.026.079,0,.1,0,.1a.026.026,0,0,0,.026.026v.026s.026.052,0,.079v.079a.081.081,0,0,0,.026.052v.21l.026.026v.1c0,.026.026,0,.026.026v.1l.026.026a.026.026,0,0,0,.026.026l.026.026v.052c-.026.052,0,.052,0,.052v.052a.092.092,0,0,1,.026.052v.157a.026.026,0,0,0,.026.026v.026l.026.026v.026l-.026.026v.052s.026.052,0,.079v.052c0,.026.052.052.052.079v.21l.026.026a.092.092,0,0,1,.026.052v.131l.026.026V93.1c0,.052-.026.052,0,.079a.026.026,0,0,1,.026.026v.052h.026v.131l.026.026v.052h.026v.052l.026.026v.026c-.026.026,0,.026,0,.026v.079h-.026s-.052.026-.052.052h-.026c0,.026-.026.026-.052.026H319.1c-.026,0-.026,0-.026.026-.026.026-.026,0-.026,0h-.026c-.026.026,0,.026-.026.026h-.053a.026.026,0,0,0-.026-.026h-.052v.026l-.026.026h-.053s-.026-.026-.026,0l-.026.026h-.052v.052h-.026c-.026,0-.053.026-.079.026a.026.026,0,0,0-.026.026l-.026.026a.264.264,0,0,1-.079.026h-.026l-.026.026a.092.092,0,0,1-.052.026l-.026.026h-.026l-.052-.026v-.026h-.079l-.026-.026h-.026a.081.081,0,0,0-.026-.052s-.079-.026-.079-.052a25.531,25.531,0,0,1-.052-.052l-.026-.026-.026-.026-.026-.026a.026.026,0,0,1-.026-.026l-.026-.026a.026.026,0,0,0-.026-.026V93.68h-.026v-.052c-.026,0-.026,0-.026-.026a.092.092,0,0,0-.052-.026.026.026,0,0,0-.026-.026v-.1h-.026a.026.026,0,0,1-.026-.026.026.026,0,0,0-.026-.026h-.026v-.052c0-.026,0-.026-.026-.026v-.026a.081.081,0,0,1-.026-.052.13.13,0,0,0-.026-.079.092.092,0,0,1-.026-.052c-.026-.026-.026-.026-.052-.026V93a.092.092,0,0,0-.026-.052h-.052l-.026-.026-.026-.026V92.84a.049.049,0,0,1,0-.079v-.052l-.027-.026c-.026,0,0,0-.026-.026h-.026l-.026-.026-.026-.026-.026-.026v-.026a.081.081,0,0,1,.026-.052c-.026-.026-.053-.026-.079-.079v-.026a.026.026,0,0,1-.026-.026v-.052a.081.081,0,0,0-.026-.052.026.026,0,0,1-.026-.026l-.026-.026v-.079l-.026-.026h-.052V92a.092.092,0,0,1-.026-.052V91.9c0-.026-.026-.026-.026-.052,0,0-.026-.026,0-.026s0-.026,0-.026v-.052c0-.026-.052-.079-.052-.079v-.052l-.026-.026-.026-.026c-.026-.026,0-.026-.026-.052l-.026-.052.026-.026v-.079l-.026-.026v-.1l-.026-.026v-.026h-.026V91.03a.026.026,0,0,0-.026-.026h-.026c-.026-.026,0,0,0-.026V90.9h0V90.82h-.052v-.052c0-.052.026-.026.026-.079a.026.026,0,0,0-.026-.026V90.4a.026.026,0,0,1,.026-.026v-.131h.026s-.026,0,0-.052l.026-.026v-.026l-.026-.026v-.026a.092.092,0,0,1-.026-.052c0-.026.026-.026.026-.052v-.052a.026.026,0,0,1,.026-.026v-.394h-.026c0-.026,0-.026.026-.026v-.157c0-.026,0-.052.026-.052.026-.026,0-.026,0-.026v-.026a.092.092,0,0,1-.026-.052c0-.079.026-.052.026-.052.026,0,.026-.026.026-.052a.092.092,0,0,0,.026-.052v-.079a.158.158,0,0,1-.026-.1.264.264,0,0,0-.026-.079v-.026c0-.026,0,0,.026-.026a.2.2,0,0,0,.052-.1.026.026,0,0,1,.026-.026l.026-.026v-.105c0-.026,0,0,.026-.026v-.052a.026.026,0,0,0,.026-.026v-.052c0-.052-.026-.026,0-.026V88.17c0-.026,0-.026.026-.026v-.052h.026v-.026l.026-.026v-.026s-.026-.026,0-.026v-.079c.026,0,0-.026,0-.052a.026.026,0,0,0,.026-.026.092.092,0,0,0,.026-.052h.026v-.262a.092.092,0,0,0,.026-.052v-.026l.026-.026v-.1l.026-.052c0-.026.026,0,.026,0v-.026l.026-.026a.026.026,0,0,0,.026-.026.026.026,0,0,1,.026-.026h.026v-.052a.325.325,0,0,1,.052-.079v-.026h.026c0-.026,0,0,.026,0v-.026c0-.026,0-.026.026-.026h.026V86.91a.092.092,0,0,1,.026-.052l.026-.026h0v-.026a.081.081,0,0,1,.026-.052h.026v-.026h.026v.026a.026.026,0,0,0,.026-.026V86.7a.026.026,0,0,1,.026-.026h.026v-.026c.026,0,0,0,.026-.026V86.6l.026-.026c0-.026,0-.026.026-.026a.081.081,0,0,1,.026-.052h.026a.026.026,0,0,1,.026-.026v-.026a.026.026,0,0,0,.026-.026l.052-.052.026-.026.026-.026h.026v-.1l.026-.026c0-.026.052-.026.052-.026h.052a.026.026,0,0,0,.026-.026l.026-.026v-.026a.051.051,0,0,1,.052-.052c.026,0,.026-.026.052-.052l.026-.026c.026,0,0-.026,0-.026l.026-.026v-.026a.092.092,0,0,0,.026-.052.026.026,0,0,0,.026-.026v-.026l.026-.026.026-.026c.026,0,.052-.026.079-.026v-.026h.026v-.026h.026a.026.026,0,0,1,.026-.026h.026a.026.026,0,0,0,.026-.026l.026-.026.026-.026h.026v-.026h.1c0-.026.026-.026.026-.052h.026l.026-.026.079-.026.026-.026h.052c.052,0,.052-.026.052-.026s.079-.026.079-.052h.026v.026h.026v-.026h.026a.026.026,0,0,0,.026-.026c.026,0,0-.026.026-.026h.052v.026c0-.026.052-.026.052-.026h.079l.026-.026h.079a.026.026,0,0,1,.026-.026h.131a.026.026,0,0,0,.026-.026c.026,0,0,0,.026-.026a.081.081,0,0,1,.052-.026c.026,0,.079-.026.105-.026h.1a.092.092,0,0,1,.053-.026h.052l.026.026h.1a.026.026,0,0,0,.026-.026h.026l.026.026h.289c.184-.5.184-.5.21-.5h0m-.131.918h0l-.052.026H320.5a.026.026,0,0,0-.026.026.081.081,0,0,1-.052.026V85.6l-.026.026a.026.026,0,0,1-.026.026v.026l-.026.026v.026a.082.082,0,0,0-.053.026l-.026.026h-.026a.026.026,0,0,0-.026.026l-.026.026a.026.026,0,0,1-.026.026v.026c-.026,0-.026.026-.026.052-.026.026-.026.026-.052.026h-.026l-.026.026s-.026,0-.052.052l-.026.052v.026a.026.026,0,0,0,.026.026l.026.026h.026s0,.052.026.052c0,.026.052.052.052.052a.026.026,0,0,0,.026.026v.1c0,.026.026.026.052.052v.052a.264.264,0,0,1,.026.079l.026.026.026.026h.026a.026.026,0,0,0,.026.026.026.026,0,0,1,.026.026l.026.026v.052a.026.026,0,0,1,.026.026.026.026,0,0,0,.026.026.026.026,0,0,1,.026.026v.026h.026a.026.026,0,0,0,.026-.026l.026-.026h.052a.026.026,0,0,1,.026-.026l.026-.026.026-.026h.026l.026-.026h.026l.052-.052a.026.026,0,0,0,.026-.026.092.092,0,0,0,.052-.026h.026l.026-.026h.052c.026,0,.026,0,.026-.026h.052l.026-.026a.026.026,0,0,1,.026-.026h.026V86.49a.026.026,0,0,0,.026-.026.026.026,0,0,1,.026-.026h.052a.092.092,0,0,0,.026-.052v-.052l-.026-.026V86.28H321.2v-.026s-.026-.079-.053-.079a.092.092,0,0,0-.052-.026V86.1a.026.026,0,0,1-.026-.026v-.026h-.053l-.052-.079-.026-.026s-.053-.052-.053-.079a.026.026,0,0,1-.026-.026v-.026a.026.026,0,0,1-.026-.026v-.026a.026.026,0,0,0-.026-.026c-.026-.026-.026,0-.052,0a.092.092,0,0,1-.026-.052h-.026l-.026-.026c-.026-.157-.026-.157-.052-.157h0m3.1,1.469a.265.265,0,0,1-.079.026c-.026,0,0,0-.026.026v.026h-.026l-.026.026v.026h-.052l-.026.026a.026.026,0,0,0-.026.026.026.026,0,0,1-.026.026h-.026a.026.026,0,0,1-.026.026.026.026,0,0,0-.026.026H323.3a.026.026,0,0,0-.026.026V87.3h-.052v.026l-.079.079v.052h-.026a.026.026,0,0,0-.026.026v.026c0,.026-.026.026-.052.052l.026.052h.026l.026.026.026.052h.026l.026.026h.026l.026.026.026.026h.026l.026.026h.026v.026a.026.026,0,0,1,.026.026v.052l.026.026v.026l.052.052.026.026h.026a.081.081,0,0,1,.052.026.026.026,0,0,1,.026.026v.026l.026.026h.026v.026h.026s0,.026.026,0a.026.026,0,0,1,.026-.026h.026a.056.056,0,0,0,.052-.052l.026-.026.052-.026v-.026a.026.026,0,0,0,.026-.026V87.96h.026v-.026h.026v-.026a.092.092,0,0,0,.026-.052h.053v-.026h.026a50.951,50.951,0,0,0,.052-.052c.026,0,0-.026.026-.026h.026c.026,0,.026,0,.026-.026l.026-.026a.026.026,0,0,1,.026-.026h.026l.026-.026h0c.026,0,.026-.026.026-.052a.026.026,0,0,0-.026-.026.092.092,0,0,0-.026-.052h-.026v-.026a.026.026,0,0,1-.026-.026v-.052H324.2v-.026l-.026-.026h-.053V87.33l-.026-.026a.026.026,0,0,1-.026-.026v-.026l-.026-.026V87.2h-.053l-.052-.052V87.12h-.026v-.026a.026.026,0,0,1-.026-.026v-.026h-.052l-.026-.026h-.052l-.026-.026c.026,0,.026-.026,0-.026m-5.615.656h0c-.026,0-.026,0-.052.026l-.026.052c-.026,0-.026,0-.053.026h-.052a127.55,127.55,0,0,1-.052.052l-.026.052c-.026.026-.053.026-.079.052h-.026v.026h-.026v.026a.081.081,0,0,0-.053.026v.052h-.026v.026l-.026.026h-.026c-.026,0-.026,0-.052.026v.026s-.052,0-.052.026l-.026.026a.092.092,0,0,0,.026.052.026.026,0,0,1,.026.026v.026a.026.026,0,0,1,.026.026v.1l.052.079.026.026a.092.092,0,0,0,.052.026h.026v.026a.026.026,0,0,0,.026.026c0,.026,0,.026.026.026l.026.026.026.026a.026.026,0,0,1,.026.026v.026h.026l.026.026.052-.026h.026l.026-.026s.026.026.026,0c.026-.026,0-.026.026-.026h.026c.026,0,.026-.026.052-.026h.052a.092.092,0,0,0,.026-.052h.026a.026.026,0,0,1,.026-.026l.026-.026h.052v-.026a.092.092,0,0,1,.026-.052h.026v-.026c0-.026.026-.052.026-.079.026-.026,0-.026.053-.026l.026-.026v-.052a.026.026,0,0,0-.026-.026l-.026-.026V88.17H318.4c0-.026,0-.026-.026-.052,0,0-.026-.026,0-.026,0-.026,0-.026-.026-.052v-.026l-.026-.026V87.96h-.026a.374.374,0,0,0-.052-.1c-.052-.052-.026-.026-.052-.079V87.75h-.026l-.052-.052a.026.026,0,0,1-.026-.026v-.026c.052-.026.026-.026.026-.026m6.3,2.676h-.052a.026.026,0,0,1-.026.026h-.052a.026.026,0,0,0-.026.026h-.026l-.026.026a.026.026,0,0,0-.026.026h-.026a.115.115,0,0,0-.079.026.081.081,0,0,1-.052.026c-.026,0,0,0-.026.026a.026.026,0,0,0-.026.026v.026h-.052s-.052,0-.052.026h-.079a.081.081,0,0,1-.026.052.026.026,0,0,0-.026.026v.052a.026.026,0,0,1,.026.026.115.115,0,0,1,.026.079v.079a.384.384,0,0,1,.052.1v.052c0,.026,0,.026.026.052a.092.092,0,0,0,.026.052v.026s.052.079.026.1v.026c0,.026.026,0,.026.026v.026l.026.026c0,.026,0,.026.026.026h.131a.026.026,0,0,0,.026-.026l.026-.026h.052a.026.026,0,0,1,.026-.026h.131a.026.026,0,0,0,.026-.026c.026-.026.026,0,.052-.026h.105l.052-.026h.026s0,.026.026,0h.026l.026-.026h-.026v-.026l-.026-.026c.026,0,0-.079-.026-.1v-.131l-.026-.052v-.131c0-.026,0-.026-.026-.026l-.026-.026v-.026l-.026-.052a.036.036,0,0,0,0-.052v-.1h-.026c-.052-.184-.079-.157-.1-.157m-6.717.289h0a.2.2,0,0,1-.105.052v.079c0,.026-.052.026-.052.052a.026.026,0,0,0-.026.026v.026a.092.092,0,0,1-.053.026V90.9a.026.026,0,0,0-.026.026v.026a.026.026,0,0,0-.026.026l-.026.052v.052l-.052.052v.026l-.026.026a.026.026,0,0,1-.026.026v.052a.026.026,0,0,0-.026.026l-.026.052.026.026V91.4a.092.092,0,0,0,.026.052.026.026,0,0,1,.026.026.026.026,0,0,0,.026.026h.026l.079.079h.026a.026.026,0,0,0,.026.026h.026a.092.092,0,0,0,.052.026h.026l.026.026h.026l.026.026a.026.026,0,0,1,.026.026h.026c.026,0,.026.026.052.026a.081.081,0,0,0,.026.052h.1v.026a.026.026,0,1,0,.052,0l.026-.026c.026,0,.026-.026.053-.026a.026.026,0,0,1,.026-.026l.026-.026c.026-.026.026,0,.026-.026v-.026l.026-.026c0-.026,0-.026.053-.026l.026-.026V91.5a.092.092,0,0,1,.052-.026v-.1h.026V91.24a.036.036,0,0,0,0-.052c-.026,0-.026.026-.026,0v-.052a.026.026,0,0,1-.026-.026l-.026-.052a.026.026,0,0,1-.026-.026A.026.026,0,0,0,318.16,91h-.079v-.026a.1.1,0,0,0-.105-.052c-.026-.026,0-.026-.026-.026v-.026a.091.091,0,0,0-.052-.026l-.026-.026a.026.026,0,0,1-.026-.026l-.026-.026h-.026v-.026c-.079-.1-.079-.131-.1-.157.026,0,.026.026,0,0h0" transform="translate(-259.073 -83.087)" fill="#4d2200" fill-rule="evenodd"/>
          <g id="グループ_44" data-name="グループ 44" transform="translate(14.059 0)">
            <path id="パス_691" data-name="パス 691" d="M120.32,75.589a7.543,7.543,0,0,0-1.312,1.784c0,.1.131.236.289.289.289.1,1.627-1.233,1.627-1.627,0-.262-.42-.577-.6-.446" transform="translate(-117.119 -75.558)" fill="#4d2200" stroke="#4d2200" stroke-width="0.4"/>
            <path id="パス_696" data-name="パス 696" d="M114.747,85.391c0,.341-.708.6-1.679.6-.813,0-.945.157-.525.577.184.184.5.236,1.076.157l.813-.1-.131.761c-.157,1.076-1.286,1.994-1.548,1.286-.184-.472-.525-.157-.656.551-.052.367-.157.945-.236,1.259-.1.446-.052.6.157.682.446.157.813-.262.813-.971,0-.577.052-.63.525-.656.6-.052.708.21.184.367-.42.131-.446.315-.131.787.184.315.184.394-.1.6a.5.5,0,0,0-.21.63c.079.236.052.42-.1.525-.184.131-.184.21-.026.5.341.551.289.813-.21,1.076-.42.21-.551.787-.184.787a15.68,15.68,0,0,0,3.044-1.522c0-.079-.367-.131-.813-.131-.682,0-.761-.026-.42-.184.472-.184.5-.315.079-.6-.394-.289-.262-.394.761-.656.472-.1.866-.289.866-.394a4.165,4.165,0,0,1,.367-.866c.525-1,.682-2.23.315-2.6-.236-.236-.367-.236-1.076,0l-.813.236.1-.42c.289-1.128.446-1.338.971-1.338.341,0,.577-.1.656-.289.131-.341-.236-.577-.708-.472a.461.461,0,0,1-.525-.21c-.184-.341-.63-.341-.63.026m1.207,4.172c-.184.446-.21.472-.5.21a.716.716,0,0,0-.6-.184c-.184.052-.289.026-.289-.131,0-.394.236-.6.866-.787.708-.184.866.052.525.892m-.446.813a.391.391,0,0,0,.1.42c.184.21.131.262-.315.262a3.228,3.228,0,0,0-.813.1c-.394.157-.341-.21.079-.63.367-.367,1.181-.5.945-.157" transform="translate(-111.808 -82.605)" fill="#4d2200" stroke="#4d2200" stroke-width="0.4"/>
            <path id="パス_699" data-name="パス 699" d="M137.933,95.973c-.026.079-.1.341-.184.6a1.1,1.1,0,0,1-.446.656c-.262.131-.315.289-.236.682.079.42-.052.708-.787,1.679-.892,1.181-.971,1.5-.367,1.5.315,0,1.076-1.023,2.02-2.729.42-.761.971-1.286,1.364-1.286.1,0,0,.551-.367,1.889-.21.787-.315.918-.577.866-.446-.1-.446.262-.026.63.446.394.63.367.866-.184a7.036,7.036,0,0,0,.813-3.568c-.079-.262-.236-.315-.761-.236-.551.079-.682.026-.761-.236-.1-.42-.394-.525-.551-.262" transform="translate(-130.178 -90.511)" fill="#4d2200" stroke="#4d2200" stroke-width="0.4"/>
          </g>
          <g id="グループ_45" data-name="グループ 45" transform="translate(0 0.651)">
            <path id="パス_692" data-name="パス 692" d="M39.637,78.179c-.446.184-.525.656-.1.813.367.131,1.5-.42,1.417-.708-.1-.262-.813-.341-1.312-.1" transform="translate(-37.407 -78.039)" fill="#4d2200" stroke="#4d2200" stroke-width="0.4"/>
            <path id="パス_695" data-name="パス 695" d="M68.318,83.907a7.434,7.434,0,0,1-1.259,1.023c-.315.157-.551.367-.551.472,0,.367,1.023.184,1.705-.315.761-.551,1.443-.682,1.443-.289a2.11,2.11,0,0,1-.341.735,1.2,1.2,0,0,1-1.1.6c-.813.1-1.05.577-.341.656.5.079.525.315.052.42a.481.481,0,0,0-.079.892c.42.157.656-.026,1.364-1,.892-1.233,1.522-2.493,1.391-2.834a.6.6,0,0,0-.525-.262c-.341,0-.42-.079-.42-.446-.026-.63-.5-.5-1.338.341" transform="translate(-60.748 -81.824)" fill="#4d2200" stroke="#4d2200" stroke-width="0.4"/>
            <path id="パス_697" data-name="パス 697" d="M34.911,86.457c0,.6-.052.682-.577.866a4.477,4.477,0,0,1-1.128.21c-.6,0-.761.315-.341.656.157.131.472.1,1-.079a3.75,3.75,0,0,1,.813-.21,7.431,7.431,0,0,1-.157,1.417l-.21,1.364-1.05.735c-.577.394-1.05.84-1.05.971,0,.394.577.42,1.233.026l.6-.367-.052,1.469c-.052,1.548.026,1.784.472,1.627.184-.079.262-.367.262-1.1a12.752,12.752,0,0,1,.131-1.81l.131-.787h1a2.723,2.723,0,0,0,1.207-.21c.184-.184.1-.236-1.469-.472-.6-.1-.656-.157-.577-.577.052-.262.131-.813.184-1.259.184-1.259.236-1.364.866-1.469,1.05-.21,1.05-.708-.026-.656-.394.026-.577-.026-.5-.157a.632.632,0,0,0-.446-.866c-.262,0-.315.131-.315.682" transform="translate(-32.208 -83.745)" fill="#4d2200" stroke="#4d2200" stroke-width="0.4"/>
            <path id="パス_703" data-name="パス 703" d="M70.646,104.014A5.259,5.259,0,0,0,69.6,105.3c.262.262.761.1,1.391-.446a2.228,2.228,0,0,1,1.05-.577,1.2,1.2,0,0,1,.42.026,4.912,4.912,0,0,1-.262.656c-.289.682-.525.813-1.417.813-.394,0-.6.079-.6.262,0,.315.5.6.866.5.131-.052-.026.21-.394.551-.761.708-.866,1.154-.289,1.154.708,0,2.519-2.493,2.7-3.726.1-.682.052-.761-.341-.971-.236-.1-.446-.289-.446-.367,0-.525-.6-.21-1.627.84" transform="translate(-63.023 -96.395)" fill="#4d2200" stroke="#4d2200" stroke-width="0.4"/>
          </g>
          <g id="グループ_41" data-name="グループ 41" transform="translate(27.618 1.639)">
            <path id="パス_693" data-name="パス 693" d="M179.028,82.032c-.577.184-1,.446-1,.577,0,.289.5.315,1.1.079.551-.21.656-.131.5.472-.1.394-.315.525-1.154.787a5.509,5.509,0,0,0-1.259.5.392.392,0,0,1-.394.079c-.236-.157-.446.394-.735,1.784l-.21,1.1.551.5c.656.6.63.682-.656,1.837-.761.708-.866,1.128-.262,1.128a4.364,4.364,0,0,0,1.312-1.076c.892-.918,1.023-1.128.945-1.548-.079-.446-.053-.5.63-.682,1-.262,1.364-.577,1.443-1.286.052-.315.236-1.391.42-2.361.394-2.152.394-1.915.026-2.1a2.81,2.81,0,0,0-1.259.21m.341,2.676a1.78,1.78,0,0,0-.1.446c0,.079-.472.157-1.05.157-1.128,0-1.391-.236-.5-.446.315-.079.787-.21,1.023-.262.682-.21.735-.184.63.1m-.315,1.705c.052.367,0,.42-.236.341a2.543,2.543,0,0,0-1.154.289,2.5,2.5,0,0,1-.945.315,1.583,1.583,0,0,1,.1-.761l.184-.682,1,.026c.945.026,1,.052,1.05.472" transform="translate(-175.123 -81.803)" fill="#4d2200" stroke="#4d2200" stroke-width="0.4"/>
            <path id="パス_698" data-name="パス 698" d="M204.384,89c-1.155.472-1.364.63-1.417,1.023a9.154,9.154,0,0,1-1.233,2.912c-.446.682-.551.918-.367,1.05a1.177,1.177,0,0,0,.341.157c.21,0,.918-.971,1.259-1.758,1.076-2.545,1.1-2.6,1.627-2.729.971-.21,1.705-.577,1.758-.84.1-.42-.708-.341-1.968.184" transform="translate(-196.172 -86.779)" fill="#4d2200" stroke="#4d2200" stroke-width="0.4"/>
            <path id="パス_700" data-name="パス 700" d="M211.029,97.627c-.971.5-1.05.6-.656.945.184.157.341.157.656-.079.682-.472.708-.315.131.446-.682.866-.971,1-1.391.6-.341-.315-.708-.236-.708.157a.675.675,0,0,0,.262.446c.236.184.236.262-.131.63-.367.394-.367.42-.1.708s.315.289.63,0c.42-.367.577-.367,1.338.079a7.543,7.543,0,0,0,3.2.6c.21-.21-.341-.63-.813-.63a5.714,5.714,0,0,1-2.44-.813c-.236-.21-.184-.341.341-.892a8.063,8.063,0,0,0,1.548-1.889c.21-.394.21-.472-.026-.63-.394-.236-.866-.157-1.837.315" transform="translate(-201.794 -93.148)" fill="#4d2200" stroke="#4d2200" stroke-width="0.4"/>
            <path id="パス_704" data-name="パス 704" d="M187.508,109.421c0,.315.341.551,1,.708.735.157.735-.131-.026-.577-.656-.446-.971-.472-.971-.131" transform="translate(-184.258 -102.003)" fill="#4d2200" stroke="#4d2200" stroke-width="0.4"/>
          </g>
          <g id="グループ_43" data-name="グループ 43" transform="translate(42.37 1.844)">
            <path id="パス_694" data-name="パス 694" d="M258.812,82.923c-.079.236-.367.394-1.155.551-.866.184-1.049.262-1.049.551,0,.315.079.341.945.236l.945-.1-.079.551a.787.787,0,0,1-.577.735c-.315.1-.5.315-.5.525,0,.315.079.315.735.21.42-.079,1.128-.184,1.627-.236.63-.079.892-.21.918-.42.052-.262-.079-.315-.735-.315H259.1l.21-.656a1.816,1.816,0,0,1,1.81-1.076c.289,0,.394-.131.394-.367,0-.341-.079-.341-.945-.236-.6.079-.971.052-1.05-.079-.184-.341-.577-.236-.708.131" transform="translate(-254.532 -82.585)" fill="#4d2200" stroke="#4d2200" stroke-width="0.4"/>
            <g id="グループ_42" data-name="グループ 42" transform="translate(0 4.007)">
              <path id="パス_701" data-name="パス 701" d="M259.4,98.359c-1.338.341-2.7.735-3.044.84a4.5,4.5,0,0,1-1.1.21c-.394,0-.5.052-.42.289a3.352,3.352,0,0,1,.1.341c0,.262.971.026,5.51-1.259.5-.131.945-.262,1.023-.262.236,0-.026,1.522-.341,2.02-.341.525-.236.682.341.551.761-.184,1.364-2.886.708-3.2a8.066,8.066,0,0,0-2.781.472" transform="translate(-253.209 -97.855)" fill="#4d2200" stroke="#4d2200" stroke-width="0.4"/>
              <path id="パス_702" data-name="パス 702" d="M249.458,102.148a3.593,3.593,0,0,1-.446.787c-.446.63-.42,1.181.052,1.181.262,0,.446-.21.682-.787a6.433,6.433,0,0,0,.394-1.1c.079-.394-.525-.472-.682-.079" transform="translate(-248.693 -100.83)" fill="#4d2200" stroke="#4d2200" stroke-width="0.4"/>
              <path id="パス_705" data-name="パス 705" d="M255.89,112.661a6.049,6.049,0,0,1-.866,1.1c-.971,1.076-1,1.154-.63,1.286.315.131,1.207-.6,1.863-1.522.6-.84.6-.971.052-.971-.236-.026-.42.026-.42.1" transform="translate(-252.738 -108.694)" fill="#4d2200" stroke="#4d2200" stroke-width="0.4"/>
              <path id="パス_706" data-name="パス 706" d="M268.379,112.632a7.529,7.529,0,0,0,1.522,2.755,2.614,2.614,0,0,0,.813.472c.761.184,3.673-.551,3.673-.918,0-.315-.656-.315-1.706,0a8.511,8.511,0,0,1-1.548.341c-.6,0-1.233-.656-1.679-1.81-.262-.682-.5-1-.708-1a.44.44,0,0,0-.367.157" transform="translate(-263.206 -108.639)" fill="#4d2200" stroke="#4d2200" stroke-width="0.4"/>
            </g>
          </g>
        </g>
        <g id="グループ_46" data-name="グループ 46" transform="matrix(1, -0.017, 0.017, 1, 6.759, 20.831)">
          <path id="パス_707" data-name="パス 707" d="M17.6.505a3.446,3.446,0,0,0-.487.543,1.025,1.025,0,0,1-.168.3,2.847,2.847,0,0,0-.412,1.217c0,.187-.056.262-.262.356a5.408,5.408,0,0,1-1.535.468l-.356.037.056-.393c.037-.318.037-.393-.075-.468-.112-.056-.15-.037-.281.168a.785.785,0,0,1-.524.356c-.524.169-.693.131-.749-.112a2.729,2.729,0,0,0-.075-.318c-.037-.131-.243-.112-.3.019a1.625,1.625,0,0,1-1.273,1.086c-.243,0-.3-.225-.187-.73.075-.281.15-.412.562-.768.618-.524.936-1.067.842-1.4-.112-.356-.318-.431-.655-.206a2.241,2.241,0,0,0-.487.449,3.226,3.226,0,0,0-.487,1.179.558.558,0,0,1-.075.281,2.736,2.736,0,0,1-1.048.524c-.318.056-.356.056-.543-.187a.508.508,0,0,0-.449-.243c-.281,0-.374.094-.393.412-.019.3.112.468.356.505.15.019.131.056-.225.225-.505.225-.6.168-.449-.281.15-.468.15-.524.019-.562-.075-.019-.168.056-.243.168a1.143,1.143,0,0,1-.449.356,2.51,2.51,0,0,1-.974.281,1.431,1.431,0,0,1-.037-.412c0-.505-.112-.711-.318-.655a.59.59,0,0,0-.243.112,4.852,4.852,0,0,1-.749.468,1.046,1.046,0,0,1,0-.374c.019-.262,0-.393-.075-.431-.15-.075-.6.094-1.03.356a3.787,3.787,0,0,1-.412.243c-.056,0-.15-.431-.15-.655,0-.3-.075-.393-.524-.655C2.061,1.348,1.387,1.516.526,2.3.039,2.733.02,2.771,0,3.126a.956.956,0,0,0,.356.88c.168.056.655-.075.674-.187,0-.056-.112-.075-.3-.056-.243.019-.318,0-.412-.131C.114,3.314.189,3.014.6,2.6A1.964,1.964,0,0,1,2,1.891c.6,0,.9.206.992.693a1.861,1.861,0,0,1-.262,1.329c-.15.3-.206.711-.112.711s.3-.3.412-.58c.131-.337.281-.505.861-.9.468-.318.768-.412.768-.225a3.3,3.3,0,0,1-.131.524c-.15.505-.15.468-.019.524.075.037.206-.037.374-.187a6.43,6.43,0,0,1,.618-.505c.431-.318.505-.262.487.281-.019.6.15.637.955.3l.543-.243v.206c-.019.318.075.412.412.393a2.368,2.368,0,0,0,1.2-.543,1.191,1.191,0,0,1,.468-.243,4.191,4.191,0,0,0,.674-.262A1.471,1.471,0,0,1,10.617,3a.667.667,0,0,1,0,.3.5.5,0,0,0,.15.505.435.435,0,0,0,.505.168c.168-.019.318-.056.337-.112a.154.154,0,0,1,.112-.075,1.151,1.151,0,0,0,.412-.3c.3-.262.337-.281.468-.169.131.131.824.206.824.094,0-.037.131-.094.3-.131.262-.056.3-.056.431.112.206.281.543.3,1.236.112a6.619,6.619,0,0,0,.88-.3l.262-.112.243.412c.337.562.562.637,1.385.412a.455.455,0,0,1,.393.131c.206.15.281.169.693.15a4.283,4.283,0,0,0,1.5-.374c0-.094-.281-.075-.786.019-.955.187-1.61.019-1.048-.281a1.31,1.31,0,0,0,.58-.974c.056-.337-.112-.449-.412-.262a1.45,1.45,0,0,0-.6.786,1.03,1.03,0,0,1-.842.637c-.206.056-.674-.356-.73-.655-.037-.187,0-.262.206-.412A3.269,3.269,0,0,0,18.48.655c.056-.281.037-.393-.056-.505A.351.351,0,0,0,18.18,0a5.287,5.287,0,0,0-.58.505m.674.15A2.531,2.531,0,0,1,17.412,2.1a3.211,3.211,0,0,0-.356.318c-.187.168-.225.075-.112-.318a3.613,3.613,0,0,1,.936-1.4c.337-.356.468-.374.393-.037M12.152.917c.206.15-.281.9-.786,1.254-.131.094-.243.15-.262.131a2.932,2.932,0,0,1,.543-1.123c.262-.318.337-.374.505-.262m6.8,2.265c-.112.094-.131.094-.112,0,0-.15.187-.318.225-.206a.288.288,0,0,1-.112.206M8.857,3.07c.15.15.094.281-.094.281a.213.213,0,0,1-.206-.318c.056-.075.206-.056.3.037" transform="translate(0 0)" fill="#4d2200"/>
          <path id="パス_708" data-name="パス 708" d="M0,.18C0,.274.094.33.206.33.356.33.393.068.262.012.168-.026,0,.03,0,.143Z" transform="translate(14.511 1.598)" fill="#4d2200"/>
          <path id="パス_709" data-name="パス 709" d="M2.218.061a2.509,2.509,0,0,0-.637.412c-.356.318-.393.318-.468.206a2.149,2.149,0,0,0-.3-.337C.646.192.571.155.515.211.44.267.458.323.59.454A.964.964,0,0,1,.8.941c.037.281.019.374-.262.917a2.839,2.839,0,0,0-.356.974,1.54,1.54,0,0,1-.112.487.544.544,0,0,0,.075.618c.075.075.169.131.225.112A3.223,3.223,0,0,0,.8,3.412a2.629,2.629,0,0,0,.449-1.348c.075-.637.112-.786.3-1.03A1.51,1.51,0,0,1,2.817.267c.3-.037.337-.019.412.112a.806.806,0,0,1-.337.861.634.634,0,0,1-.618.15L1.9,1.353l.019.206c.019.187.037.206.262.187.281-.019.337.019.58.318A.793.793,0,0,1,2.817,3a1.247,1.247,0,0,1-.992.393A.35.35,0,0,1,1.6,3.3c0-.037-.075-.056-.15-.056a.422.422,0,0,1-.262-.15c-.112-.15-.112-.15-.094.056.056.431.337.6,1.1.73.73.112.936.094,1.292-.168.206-.15.318-.187.318-.131,0,.094.15.168.374.168A1.109,1.109,0,0,0,4.6,3.581c.281-.15.3-.169.524-.075.262.112.468.075.88-.094.318-.131.8-.562.8-.693,0-.075.056-.112.187-.112.262,0,.318-.112.094-.225-.206-.112-.393-.075-.318.075.019.056-.112.206-.356.374-.468.318-.674.431-.9.431-.15,0-.168-.037-.168-.337,0-.468-.131-.58-.543-.524a1.769,1.769,0,0,0-.917.449.36.36,0,0,0-.056.225c0,.281-.805.711-1.123.6-.094-.037-.037-.094.187-.262a.889.889,0,0,0,.393-1.086,1.588,1.588,0,0,0-.243-.505l-.15-.15.262-.206c.412-.356.562-.88.337-1.142A.426.426,0,0,1,3.379.1C3.379.024,3.285,0,2.93,0a2.528,2.528,0,0,0-.711.056M.8,2.4c-.056.356-.225.786-.318.786-.019,0-.019-.112,0-.281a2.34,2.34,0,0,1,.337-.861A.766.766,0,0,1,.8,2.4m4.194.3a.567.567,0,0,1-.431.6.876.876,0,0,1-.374.094c-.056-.056.037-.412.131-.524.168-.169.674-.3.674-.169" transform="translate(23.937 0.369)" fill="#4d2200"/>
          <path id="パス_710" data-name="パス 710" d="M2.914.383c-.468.749-.543.9-.505.955.019.019.019.037-.037.037a1.6,1.6,0,0,0-.3.505,1.6,1.6,0,0,1-.3.505c-.037,0-.075-.075-.15-.112A1.846,1.846,0,0,0,.181,2.218a.431.431,0,0,0-.075.637.862.862,0,0,0,.655.281L1.566,3.1l-.037.412c-.056.505.037.674.243.487.112-.094.15-.243.168-.543l.019-.412.431-.112c.281-.075.431-.15.431-.206,0-.075-.094-.094-.412-.094-.3.019-.412,0-.412-.075A11.848,11.848,0,0,1,3.139.476C3.289.289,3.4.1,3.382.065c-.056-.15-.243-.037-.468.318M1.623,2.7c.112.131-.637.15-.974.094C.387,2.742.312,2.629.443,2.461a1.514,1.514,0,0,1,1.067.094Z" transform="translate(44.64 0.048)" fill="#4d2200"/>
          <path id="パス_711" data-name="パス 711" d="M0,.169Q.033.337.173.337T.341.169C.36.037.323,0,.173,0,.023.019-.014.037,0,.169" transform="translate(57.959 1.292)" fill="#4d2200"/>
          <path id="パス_712" data-name="パス 712" d="M.092.134c-.131.131-.131.15.056.15a.765.765,0,0,1,.768.861,3.042,3.042,0,0,1-.6,1.685c-.225.225-.262.3-.187.374.131.131.206.056.505-.412a2.5,2.5,0,0,0,.393-.824A2.156,2.156,0,0,0,1.084.434.967.967,0,0,0,.373,0,.39.39,0,0,0,.092.134" transform="translate(43.081 1.027)" fill="#4d2200"/>
          <path id="パス_713" data-name="パス 713" d="M.062.061C-.069.136.025.379.175.342.325.323.4,0,.25,0,.212-.014.119.024.062.061" transform="translate(48.615 1.306)" fill="#4d2200"/>
          <path id="パス_714" data-name="パス 714" d="M9.009.136a2.289,2.289,0,0,0-.786.693l-.131.187.037-.3C8.167.511,8.148.4,8.073.342,8,.267,7.924.3,7.774.511a3.209,3.209,0,0,1-1.254.805c-.262.056-.262.019-.112-.449A1.077,1.077,0,0,0,6.482.473C6.388.323,6.239.4,6.108.66a1.457,1.457,0,0,1-.88.674c-.168.019-.187,0-.168-.281.019-.262,0-.3-.131-.3a1.109,1.109,0,0,0-.412.169,1.732,1.732,0,0,1-.431.206c-.131.037-.15.019-.112-.131C4.03.735,3.861.7,3.449.885c-.187.075-.356.15-.356.15C3.075,1.035,3.037.941,3,.81,2.906.511,2.738.529,2.382.9c-.393.393-.524.468-.9.468-.3,0-.3,0-.243-.206A1.558,1.558,0,0,0,1.3.754L1.315.529.922.548A.793.793,0,0,0,.285.791C0,1.053-.052,1.241.042,1.5c.075.225.206.243.524.094C.772,1.5.791,1.5.922,1.615c.112.094.206.112.562.075a1.227,1.227,0,0,0,.786-.318,2.862,2.862,0,0,1,.393-.281c.019,0,0,.131-.037.3-.094.431,0,.487.337.187a3.954,3.954,0,0,1,.449-.337c.168-.094.168-.075.131.15-.075.431.019.468.524.15a3.279,3.279,0,0,1,.505-.281c.037,0,.075.094.075.206.019.168.075.206.281.262.243.056.3.056.6-.15a1.559,1.559,0,0,1,.393-.225c.037,0,.094.075.131.187a.3.3,0,0,0,.225.187,3.905,3.905,0,0,0,1.217-.58c.112-.075.187-.112.206-.056A5.866,5.866,0,0,1,7.343,2.27a1.636,1.636,0,0,0-.094.243c-.037.131-.243.356-.318.356-.112,0-.131.262-.019.318a.26.26,0,0,0,.225-.075c.112-.094.112-.15.056-.187q-.112-.056,0-.056c.168,0,.262-.15.524-.805l.243-.637.187.187A.6.6,0,0,0,8.5,1.8C8.9,1.8,9.346,1.39,9.646.791c.206-.431.225-.524.075-.674-.131-.169-.374-.15-.711.019M9.5.492a1.666,1.666,0,0,1-.674.9c-.318.206-.431.187-.3-.075.056-.094.075-.206.037-.243-.056-.112.3-.58.449-.58C9.066.492,9.1.473,9.1.436c0-.075.206-.15.318-.112C9.477.3,9.5.4,9.5.492M.922.922a1.7,1.7,0,0,1-.58.505c-.131,0-.056-.15.15-.374C.678.866.922.791.922.922" transform="translate(51.556 1.923)" fill="#4d2200"/>
          <path id="パス_715" data-name="パス 715" d="M6.775.108c0,.206-.337.487-1.048.9-.768.449-.992.487-1.273.3-.15-.112-.169-.15-.112-.637C4.4.145,4.4.145,4.21.089a.858.858,0,0,0-.786.262c-.3.225-.412.243-.543.075C2.806.314,2.787.314,2.712.538c-.056.131-.112.206-.15.187a1.921,1.921,0,0,0-.6.206c-.768.356-.88.318-.637-.131.187-.356.094-.543-.3-.6C.691.145.672.145.41.445c-.281.318-.468.711-.393.9.056.15.318.131.58-.019l.225-.15.094.206c.056.112.131.206.169.206a6.873,6.873,0,0,0,.73-.318A7.484,7.484,0,0,1,2.525.95c.037,0,.019.056-.019.15a.266.266,0,0,0-.019.262c.056.094.094.094.243-.075A3.245,3.245,0,0,1,3.48.651,3.228,3.228,0,0,1,3.986.332c.056,0,.037.168-.075.562a.745.745,0,0,0,.824.842A6.749,6.749,0,0,0,6.55.744C6.831.482,7,.22,6.944.089c-.037-.112-.168-.131-.168.019M.784.819c-.262.225-.374.225-.225,0A.413.413,0,0,1,.84.651C.971.651.971.669.784.819" transform="translate(61.597 1.97)" fill="#4d2200"/>
          <path id="パス_716" data-name="パス 716" d="M1.781.318a1.215,1.215,0,0,1-.524.543c-.468.281-.805.412-.9.318A1.345,1.345,0,0,1,.49.337C.6.15.583.112.415.112c-.094,0-.187.094-.281.3C-.128.992,0,1.46.452,1.479A2.639,2.639,0,0,0,1.8.768c.206-.206.318-.281.487-.281.262,0,.337.112.243.449a.794.794,0,0,0,.094.674c.075.112.112.131.318.075.3-.075.374-.243.112-.243-.243,0-.3-.168-.187-.562C2.98.449,2.9.337,2.381.15L1.95,0Z" transform="translate(48.094 2.19)" fill="#4d2200"/>
          <path id="パス_717" data-name="パス 717" d="M.824,1.7C.6,2.186.225,3.216.094,3.385s-.131.225.037.225.393-.262.749-.917a1.952,1.952,0,0,1,.711-.88c.412-.3.73-.225.58.112-.056.15-.187.131-.3,0-.131-.168-.206-.094-.281.318-.15.768.281,1.385,1.217,1.161a.655.655,0,0,0,.318-.187c.112-.075.168-.019.243,0a1.86,1.86,0,0,0,1.011.131.946.946,0,0,0,.693-.468c.3-.431,1.067-.693,1.161-.6.037.037,0,.168-.094.318a.9.9,0,0,0-.15.374c0,.169.075.374.206.412.168.037.262.112.431.019.037-.019.112-.056.3-.131.318-.131.3-.187.431-.075.187.168.243.168.6,0,.449-.206.487-.168.3.225-.094.206-.094.262-.15.262-.187,0-.655.487-.711.768-.056.337-.019.393.337.393.3,0,.3,0,.543-.431.225-.393.112-.449.337-.449a3.3,3.3,0,0,0,1.048-.374c.374-.15.749-.468.749-.618s-.094-.3-.168-.262a.2.2,0,0,0-.075.15c0,.243-.842.674-1.273.73-.468.056-.374-.168.356-1.236a4.091,4.091,0,0,0,.374-.6c0-.037-.094-.075-.206-.075-.187,0-.243.056-.468.431a2.8,2.8,0,0,1-.431.562,2.44,2.44,0,0,1-.842.318c-.094,0,.019-.337.187-.543s.206-.505.056-.505-.337.187-.505.543a1.057,1.057,0,0,1-.768.58c-.356.112-.412-.019-.206-.393.15-.262.168-.318.075-.505-.112-.225-.281-.243-.861-.131-.187.037-.243.019-.243-.056,0-.131-.206-.187-.393-.112a.4.4,0,0,0-.131.58c.094.15.056.15-.056.318a.766.766,0,0,1-.73.3c-.337,0-.412-.112-.431-.131s.075-.168.225-.3c.3-.3.337-.487.112-.674s-.431-.169-.562.056a1.682,1.682,0,0,0-.206.693c.019.019-.019.094-.075.168a1.291,1.291,0,0,1-.974.262c-.225-.037-.356-.562-.281-.73a.373.373,0,0,1,.225-.168.5.5,0,0,0,.225-.711c-.112-.131-.168-.15-.393-.112l-.281.037.168-.225A3.325,3.325,0,0,0,2.172.726c.262-.468.037-.842-.393-.693a.716.716,0,0,0-.206.15A6.353,6.353,0,0,0,.824,1.7M2.1.483a1.355,1.355,0,0,1-.3.505c-.131.187-.318.412-.393.524-.243.337-.225.056.037-.393C1.816.427,2.21.033,2.1.483m1.8,1.8c0,.15-.131.318-.187.262-.075-.056.037-.374.112-.374.037,0,.075.056.075.112M7.863,4.508c-.056.094-.075.094-.094.019,0-.112.262-.543.318-.487a4.844,4.844,0,0,1-.225.468" transform="translate(30.105 0.64)" fill="#4d2200"/>
        </g>
      </g>
    </g>
    <path id="パス_89444" data-name="パス 89444" d="M-31.932-6.156c.261,0,.27,0,.27,1.422,0,.153-.018.279-.279.279h-1.152a1.072,1.072,0,0,1-.423-.072,1.362,1.362,0,0,0-.441-.126c-.036,0-.036.018-.036.162,0,.036.045,1.395.045,1.656,0,.54,0,.6-.252.6-.207,0-1.1-.063-1.278-.063-.018,0-.036,0-.036.018s0,.018.045.063l.171.207c.027.036.045.054.081.054s.162-.018.189-.018C-34.713-2-34.11-2-33.894-2h1.944c.126,0,.27,0,.27.27,0,.225-.018,1.017-.027,1.3-.009.144-.063.756-.063.882a.3.3,0,0,0,.279.279.8.8,0,0,0,.477-.216c.081-.063.09-.153.09-.306,0-.18-.054-.963-.054-1.125V-1.71c0-.2.045-.288.27-.288h2.763c.4,0,.477-.027.477-.108a2.9,2.9,0,0,0-.927-.72c-.09,0-.117.036-.351.369-.153.225-.189.225-.5.225h-1.467c-.279,0-.279-.162-.279-.279,0-.342,0-1.044-.009-1.377,0-.306.072-.333.324-.333h1.638c.369,0,.486,0,.486-.117s-.792-.6-.837-.6c-.108,0-.423.414-.5.459a1.682,1.682,0,0,1-.441.027h-.342c-.216,0-.324-.018-.324-.3V-5.94c.018-.2.144-.216.27-.216h2.016c.306,0,.486,0,.486-.126s-.873-.648-.909-.648c-.09,0-.306.387-.36.45s-.1.081-.513.081h-2.637c-.225,0-.243,0-.243-.063a.735.735,0,0,1,.216-.324c.045-.045.3-.207.3-.27,0-.126-.729-.441-.891-.5-.027,0-.09.189-.1.234a7.376,7.376,0,0,1-1.674,2.7,2.13,2.13,0,0,0-.288.324c0,.027.027.027.036.027a5.772,5.772,0,0,0,1.881-1.557c.252-.3.27-.324.549-.324Zm-.009,1.935c.3,0,.3.027.3.918,0,1.071-.018,1.071-.306,1.071H-33c-.288,0-.306,0-.306-1.179,0-.774.027-.81.288-.81Zm6.732-2.718c-.126,0-.153-.009-.387-.135a1.339,1.339,0,0,0-.423-.162c-.036,0-.036.054-.036.09,0,.009.045.756.054.828.009.117.009,1.467.009,2.016,0,.99,0,1.584-.09,4.257,0,.117-.009.333-.009.36,0,.063,0,.315.234.315.468,0,.468-.486.468-.648,0-.216-.027-1.17-.036-1.368-.009-.342-.009-1.863-.009-2.277a4.325,4.325,0,0,1,.027-.639c.045-.117.189-.117.333-.117h1.116c.171,0,.27,0,.3.189.018.144.045.315.261.315.126,0,.378-.09.378-.585,0-.261-.045-1.4-.045-1.638s0-.315.063-.4c.027-.036.171-.171.171-.216,0-.126-.45-.459-.549-.459-.081,0-.153.072-.243.171a.28.28,0,0,1-.252.1Zm1.332.243c.18,0,.261,0,.261.18v.486c0,.234-.054.234-.261.234h-1.287c-.18,0-.261,0-.261-.189v-.486c0-.225.054-.225.261-.225ZM-23.9-5.562c.2,0,.27.009.27.207v.513c0,.18-.09.18-.27.18h-1.269c-.2,0-.27,0-.27-.2v-.522c0-.18.09-.18.27-.18Zm2.637-1.395a.388.388,0,0,1-.234-.054,1.241,1.241,0,0,0-.423-.144c-.081,0-.1.108-.1.153,0,.153.045.819.045.954s0,1.908.009,1.962a.2.2,0,0,0,.216.171c.162,0,.387-.09.414-.288.027-.144.054-.189.261-.189h1.17c.225,0,.351,0,.351.279,0,1.287-.018,3.546-.027,3.636-.027.252-.117.3-.7.324-.09,0-.423.018-.423.063,0,.081.378.18.441.216a.623.623,0,0,1,.252.261c.09.153.153.243.252.243a1.5,1.5,0,0,0,.423-.144c.315-.162.36-.378.36-.738,0-.927-.018-5.013-.018-5.841,0-.324,0-.351.144-.477.054-.045.1-.09.1-.144,0-.171-.513-.459-.585-.459-.054,0-.09.027-.2.144a.2.2,0,0,1-.189.072Zm.135,1.116c-.126,0-.225,0-.243-.135-.009-.036-.009-.405-.009-.54,0-.207.1-.207.252-.207H-19.8c.144,0,.225,0,.252.135v.549c0,.2-.09.2-.252.2Zm.018,1.215c-.189,0-.261,0-.261-.2v-.594c0-.18.081-.18.261-.18H-19.8c.18,0,.252,0,.252.189v.594c0,.189-.081.189-.252.189Zm-2.187,1.314c-.108,0-.567-.216-.666-.216-.045,0-.081.009-.081.081,0,.045.027.243.027.279.027.324.027,1.188.027,1.233,0,.378-.009.648-.036,1.116-.009.081-.018.324-.018.387,0,.279.09.324.207.324.225,0,.378-.153.414-.423.018-.171.063-.207.27-.207h1.116c.18,0,.3,0,.3.216,0,.135,0,.324.2.324a.575.575,0,0,0,.378-.2c.081-.1.081-.216.081-.459,0-.216-.027-1.638,0-1.872A.4.4,0,0,1-20.952-3a.2.2,0,0,0,.054-.117c0-.162-.441-.459-.531-.459s-.18.1-.252.18a.215.215,0,0,1-.207.081Zm1.368.243c.171,0,.234,0,.234.225v.513c-.027.126-.1.126-.234.126h-1.269c-.135,0-.207,0-.234-.126v-.45c0-.27.018-.288.234-.288Zm-.018,1.107c.18,0,.216,0,.243.126.009.045.009.54.009.621,0,.234-.054.234-.252.234h-1.233c-.162,0-.252,0-.252-.171v-.621c0-.189.081-.189.252-.189Zm9.207-3.168A9.814,9.814,0,0,1-16.128-.954a2.777,2.777,0,0,0-.414.333c0,.054.045.054.063.054a2.211,2.211,0,0,0,.558-.207,9.042,9.042,0,0,0,2.4-1.926c.2-.225.225-.252.315-.252a4.13,4.13,0,0,1,1.611,1.773c.315.558.351.621.558.621a.389.389,0,0,0,.369-.4c0-.819-1.611-1.728-2.016-1.962-.378-.207-.4-.225-.4-.306a.3.3,0,0,1,.072-.18c.144-.207.855-1.26,1.035-1.476.054-.063.387-.306.387-.387,0-.225-.549-.684-.765-.684a3.436,3.436,0,0,0-.5.279,12.454,12.454,0,0,1-2.466.333,1.6,1.6,0,0,1-.477-.09c-.027-.009-.225-.063-.234-.063-.045,0-.054.027-.054.072a1.836,1.836,0,0,0,.216.522,1.878,1.878,0,0,0,.612.324,3.887,3.887,0,0,0,.405-.171c.045-.018,1.935-.459,2-.459A.1.1,0,0,1-12.735-5.13Zm6.948-1.377c-.018,0-.126,0-.126.063A1,1,0,0,0-5.85-6.3a1.378,1.378,0,0,1,.063.423,3.8,3.8,0,0,1-.864,2.043c-.153.2-1.008,1.233-1.008,1.26s.009.054.045.054a4.44,4.44,0,0,0,1.764-1.6c.036-.045.081-.126.153-.126.036,0,.045.009.162.126a.259.259,0,0,0,.171.108c.054,0,.315-.09.369-.1a2.68,2.68,0,0,1,.351-.045c.279,0,.324.315.324.5a3.86,3.86,0,0,1-.657,1.737A9.121,9.121,0,0,1-6.543-.207c-.117.1-.126.117-.126.153,0,.054.036.054.054.054A5.183,5.183,0,0,0-3.852-2.916c.045-.09.2-.558.243-.666a1.6,1.6,0,0,0,.153-.27c0-.054-.162-.252-.162-.306,0-.126.6-.135.693-.135.225,0,.459.027.648.045.081.009.477.072.576.072a.281.281,0,0,0,.3-.243c0-.4-.846-.54-.891-.54-.108,0-.612.171-.729.2a15.207,15.207,0,0,1-2.016.216c-.3,0-.414-.063-.414-.171a2.55,2.55,0,0,1,.5-.756c.135-.144.162-.18.162-.234,0-.072-.144-.225-.288-.387C-5.364-6.408-5.454-6.507-5.787-6.507ZM2.34-4.32c-.054,0-.63,0-.63.135,0,.036.063.072.09.09a2.333,2.333,0,0,1,.819.738c.135.225.18.279.315.279.216,0,.342-.261.342-.45C3.276-3.969,2.727-4.32,2.34-4.32Zm1.5-1.665a1.239,1.239,0,0,0-.459-.09c-.27,0-.684.09-.684.189,0,.036.009.036.135.081a1.522,1.522,0,0,1,.783.486c.315.369.351.414.45.414.144,0,.3-.189.3-.423A.786.786,0,0,0,3.843-5.985ZM2.691-.171c.1,0,.135-.027.468-.288.072-.054.108-.081.657-.423C7.344-3.105,7.794-4.5,7.794-4.518a.057.057,0,0,0-.054-.054c-.027,0-.549.531-.648.63a13.559,13.559,0,0,1-4.518,2.8c-.09,0-.5-.144-.522-.144a.066.066,0,0,0-.072.072.367.367,0,0,0,.045.162c.018.045.162.234.189.288C2.394-.378,2.5-.171,2.691-.171ZM7.155-7.236c-.162,0-.342,0-.342.081,0,.018.018.063.1.108a2.258,2.258,0,0,1,.729.585c.126.207.252.4.441.4a.265.265,0,0,0,.243-.288C8.325-6.975,7.389-7.236,7.155-7.236ZM6.12-6.66c-.054,0-.162.009-.162.063,0,.036.081.117.117.144a2.8,2.8,0,0,1,.576.6c.225.351.306.45.441.45.171,0,.288-.234.288-.342C7.38-6.219,6.642-6.66,6.12-6.66ZM11.7-3.528c-.054,0-.081.009-.081.063,0,.171.324.594.531.594A2.3,2.3,0,0,0,12.465-3a14.444,14.444,0,0,1,1.485-.378c.045,0,.117,0,.117.135,0,.018-.2,1.44-.216,1.611-.027.2-.045.3-.144.342s-2.16.2-2.385.2a2.546,2.546,0,0,1-.648-.108,2.1,2.1,0,0,0-.225-.063c-.045,0-.063.018-.063.063,0,.486.666.8.747.8a3.3,3.3,0,0,0,.4-.117,18,18,0,0,1,3.393-.378,3.773,3.773,0,0,1,.918.1,4.42,4.42,0,0,0,.495.108c.171,0,.2-.135.2-.225,0-.333-.567-.612-.936-.612-.144,0-.855.171-1.017.171-.126,0-.144-.054-.144-.126A6.842,6.842,0,0,1,14.751-3.2c.027-.045.225-.252.225-.315a1,1,0,0,0-.7-.495,2.071,2.071,0,0,0-.288.135,11.35,11.35,0,0,1-1.845.369C12.069-3.51,11.727-3.528,11.7-3.528Zm8.757-.1a4.9,4.9,0,0,1-1.1-.081c-.045-.009-.261-.108-.306-.108s-.072.054-.072.108c0,.306.414.864.8.864.108,0,.594-.144.7-.162.216-.045,2.277-.162,3.519-.162.18,0,1.08.018,1.287.018.378,0,.747-.027.747-.279,0-.063-.081-.4-.63-.4-.045,0-.144.009-.2.009C23.9-3.744,20.754-3.627,20.457-3.627Zm10.035-.981c0-.459-.954-.765-1.017-.765-.036,0-.045.018-.045.045a.668.668,0,0,0,.036.162,1.974,1.974,0,0,1,.153.774A4.766,4.766,0,0,1,28.53-1.755a2.549,2.549,0,0,0-.36.477.042.042,0,0,0,.045.045,3.134,3.134,0,0,0,1.665-1.71C30.033-3.285,30.492-4.581,30.492-4.608Zm1.584,3.24c.063-.009.144-.072.3-.243a5,5,0,0,1,.621-.576,7.562,7.562,0,0,0,2.1-2.574.039.039,0,0,0-.036-.036c-.036,0-.8.81-.954.963a5.358,5.358,0,0,1-1.962,1.467c-.162,0-.171-.18-.171-.3,0-.3.036-1.386.072-1.629.018-.1.144-.567.144-.675,0-.468-.945-.63-.99-.63-.018,0-.054.009-.054.045a2.339,2.339,0,0,0,.117.324,5.518,5.518,0,0,1,.171,1.692c0,.225-.009.936-.036,1.107-.009.045-.054.279-.054.324C31.338-1.854,31.815-1.323,32.076-1.368Z" transform="translate(185.25 758.962)" fill="#4d2200" stroke="#4d2200" stroke-width="0.3"/>
  </g>
</svg>
