<svg id="グループ_122" data-name="グループ 122" xmlns="http://www.w3.org/2000/svg" xmlns:xlink="http://www.w3.org/1999/xlink" width="12" height="12" viewBox="0 0 12 12">
  <defs>
    <clipPath id="clip-path">
      <rect id="長方形_107" data-name="長方形 107" width="12" height="12" fill="#fff"/>
    </clipPath>
  </defs>
  <g id="グループ_103" data-name="グループ 103" transform="translate(0 0)" clip-path="url(#clip-path)">
    <path id="パス_913" data-name="パス 913" d="M10.643,0H1.357A1.357,1.357,0,0,0,0,1.357v9.286A1.357,1.357,0,0,0,1.357,12h9.286A1.357,1.357,0,0,0,12,10.643V1.357A1.357,1.357,0,0,0,10.643,0M9.461,5.775a.48.48,0,1,1-.961,0V3.993L3.094,9.845a.48.48,0,1,1-.705-.652l5.4-5.848L5.9,3.5l-.04,0a.48.48,0,0,1-.039-.959l3.12-.257a.452.452,0,0,1,.059,0h.02a.458.458,0,0,1,.128.029h.007l.011.007a.485.485,0,0,1,.1.06l.014.01a.483.483,0,0,1,.084.091c.006.008.011.017.017.025a.482.482,0,0,1,.05.1l.005.012a.485.485,0,0,1,.02.1c0,.009,0,.017,0,.026s0,.009,0,.014Z" transform="translate(0 0)" fill="#fff"/>
  </g>
</svg>
