<svg xmlns="http://www.w3.org/2000/svg" width="35" height="35" viewBox="0 0 35 35">
  <path id="icon_fb" d="M29.938,4.4H13.862A9.508,9.508,0,0,0,4.4,13.862V29.938A9.508,9.508,0,0,0,13.862,39.4H29.938A9.508,9.508,0,0,0,39.4,29.938V13.862A9.508,9.508,0,0,0,29.938,4.4Zm6.247,25.538a6.253,6.253,0,0,1-6.247,6.247H27.412V24.748h4.915V21.073H27.412v-.919a3.925,3.925,0,0,1,.551-2.48,2.807,2.807,0,0,1,2.159-.643,7.817,7.817,0,0,1,2.572.459V13.678a15.6,15.6,0,0,0-3.858-.505c-2.388,0-4.088.551-5.19,1.654s-1.654,2.894-1.654,5.282v.873H18.363v3.675h3.629V36.093h-8.13a6.253,6.253,0,0,1-6.247-6.247V13.862a6.253,6.253,0,0,1,6.247-6.247H29.938a6.253,6.253,0,0,1,6.247,6.247Z" transform="translate(-4.4 -4.4)" fill="#5f4b35"/>
</svg>
