<svg id="icon_insta" xmlns="http://www.w3.org/2000/svg" width="35" height="35" viewBox="0 0 35 35">
  <path id="パス_766" data-name="パス 766" d="M22,7.578c4.7,0,5.25,0,7.092.092a10.749,10.749,0,0,1,3.27.6,5.854,5.854,0,0,1,2.026,1.289,4.935,4.935,0,0,1,1.289,2.026,10.435,10.435,0,0,1,.6,3.27c.092,1.842.092,2.395.092,7.092s0,5.25-.092,7.092a10.749,10.749,0,0,1-.6,3.27,5.854,5.854,0,0,1-1.289,2.026,4.935,4.935,0,0,1-2.026,1.289,10.435,10.435,0,0,1-3.27.6c-1.842.092-2.395.092-7.092.092s-5.25,0-7.092-.092a10.749,10.749,0,0,1-3.27-.6,5.854,5.854,0,0,1-2.026-1.289,4.935,4.935,0,0,1-1.289-2.026,10.435,10.435,0,0,1-.6-3.27c-.092-1.842-.092-2.395-.092-7.092s0-5.25.092-7.092a10.749,10.749,0,0,1,.6-3.27A5.854,5.854,0,0,1,9.612,9.558a4.935,4.935,0,0,1,2.026-1.289,10.435,10.435,0,0,1,3.27-.6C16.75,7.578,17.3,7.578,22,7.578M22,4.4c-4.743,0-5.342,0-7.23.092a12.057,12.057,0,0,0-4.237.829,9.1,9.1,0,0,0-5.112,5.112,13.478,13.478,0,0,0-.829,4.237C4.5,16.558,4.5,17.157,4.5,21.9s0,5.342.092,7.23a12.057,12.057,0,0,0,.829,4.237,9.1,9.1,0,0,0,5.112,5.112,13.478,13.478,0,0,0,4.237.829c1.888.092,2.487.092,7.23.092s5.342,0,7.23-.092a12.057,12.057,0,0,0,4.237-.829,9.1,9.1,0,0,0,5.112-5.112,13.478,13.478,0,0,0,.829-4.237c.092-1.888.092-2.487.092-7.23s0-5.342-.092-7.23a12.057,12.057,0,0,0-.829-4.237,9.1,9.1,0,0,0-5.112-5.112,13.478,13.478,0,0,0-4.237-.829C27.342,4.446,26.743,4.4,22,4.4Z" transform="translate(-4.5 -4.4)" fill="#5f4b35"/>
  <path id="パス_767" data-name="パス 767" d="M31.848,22.9A8.948,8.948,0,1,0,40.8,31.848,8.963,8.963,0,0,0,31.848,22.9Zm0,14.747a5.8,5.8,0,1,1,5.8-5.8A5.806,5.806,0,0,1,31.848,37.647Z" transform="translate(-14.348 -14.302)" fill="#5f4b35"/>
  <ellipse id="楕円形_1" data-name="楕円形 1" cx="2.138" cy="2.138" rx="2.138" ry="2.138" transform="translate(24.699 6.071)" fill="#5f4b35"/>
</svg>
